<svg width="232" height="232" viewBox="0 0 232 232" fill="none" xmlns="http://www.w3.org/2000/svg">
<path d="M82.3153 77.9553C82.3153 80.5741 81.4072 83.1118 79.7459 85.1361C78.0845 87.1604 75.7727 88.5461 73.2042 89.057C70.6358 89.5678 67.9696 89.1723 65.6601 87.9378C63.3505 86.7033 61.5405 84.7062 60.5383 82.2868C59.5362 79.8673 59.404 77.1753 60.1642 74.6693C60.9244 72.1633 62.53 69.9984 64.7075 68.5435C66.8849 67.0886 69.4994 66.4337 72.1056 66.6904C74.7118 66.9471 77.1483 68.0995 79 69.9513C80.053 71.001 80.888 72.2486 81.4569 73.6222C82.0259 74.9959 82.3176 76.4685 82.3153 77.9553Z" fill="#ECE7E1" stroke="black" stroke-width="0.58203" stroke-miterlimit="10" stroke-linecap="round"/>
<path d="M77.6424 68.8007C75.9425 68.2654 74.1398 68.1421 72.3829 68.4411C70.6222 68.7143 68.9726 69.4736 67.62 70.6335C66.3415 71.795 65.4786 73.3432 65.1631 75.0415C64.8203 76.7381 64.9568 78.4966 65.5575 80.1199C65.8699 80.9601 66.3427 81.7315 66.9495 82.3912C67.5542 83.0529 68.306 83.5631 69.1442 83.8807C70.4516 84.3227 71.8702 84.3096 73.1692 83.8433C74.4682 83.377 75.5713 82.4851 76.2991 81.3124C76.6142 80.7241 76.8062 80.0778 76.8632 79.4129C76.9203 78.7479 76.8412 78.0783 76.6308 77.445C76.2156 76.1829 75.2829 75.1459 73.8468 74.9162C73.289 74.8101 72.7122 74.876 72.1927 75.1051C71.6731 75.3342 71.2354 75.7158 70.9376 76.1991C70.639 76.6829 70.4674 77.2342 70.4386 77.802C70.4098 78.3698 70.5248 78.9356 70.7728 79.4471" stroke="#070707" stroke-width="0.58203" stroke-miterlimit="10" stroke-linecap="round"/>
<path d="M58.3857 82.836C59.2418 82.4463 60.3229 81.9892 61.6059 81.5299C63.0552 81.0126 64.5323 80.5765 66.0301 80.2237C68.321 79.6978 70.654 79.3764 73.0017 79.2632C77.5842 79.0188 82.178 79.4368 86.641 80.5044C88.1701 80.8695 89.68 81.3109 91.165 81.8268C93.1082 82.5026 95.0067 83.3007 96.849 84.2164C95.4212 86.3077 94.1317 88.4901 92.9885 90.7496C89.6109 97.4233 87.5697 104.693 86.9797 112.149C86.7335 115.284 86.7405 118.434 87.0006 121.568C87.0006 121.568 83.8617 122.441 79.7901 125.048C74.4138 128.484 70.0085 133.24 66.9953 138.864C66.9953 138.864 68.7979 131.468 68.6193 120.768C68.4406 110.068 66.29 96.0484 58.3857 82.836Z" fill="#F6C34C" stroke="#070707" stroke-width="0.58203" stroke-miterlimit="10" stroke-linecap="round"/>
<path d="M190.527 117.358C190.395 111.563 189.494 105.811 187.848 100.253C185.419 92.0468 180.769 82.5 171.863 75.1085C168.91 72.6578 165.662 70.5862 162.195 68.9419C159.475 67.6522 156.641 66.6185 153.73 65.854C142.538 63.0166 131.24 63.5781 121.192 67.0372C111.144 70.4963 102.353 76.8577 96.1797 85.6204C89.8183 94.6452 87.554 104.345 86.974 112.27C86.5751 117.623 86.8778 123.004 87.8741 128.278L139.202 122.819L190.527 117.358Z" fill="#ECE7E1" stroke="black" stroke-width="0.58203" stroke-miterlimit="10" stroke-linecap="round"/>
<path d="M142.833 122.433L166.68 119.895L190.527 117.357C190.395 111.562 189.494 105.81 187.848 100.252C185.419 92.0459 180.769 82.4991 171.863 75.1076C168.91 72.6569 165.662 70.5853 162.195 68.941C159.475 67.6513 156.641 66.6176 153.73 65.8531C151.863 65.3798 149.995 65.0001 148.125 64.714C146.255 64.4278 144.393 64.2337 142.538 64.1317C138.738 70.9513 136.332 78.458 135.457 86.2157C134.33 96.3054 135.597 108.752 142.833 122.433Z" fill="#F6991A" stroke="#070707" stroke-width="0.58203" stroke-miterlimit="10" stroke-linecap="round"/>
<path d="M151.816 65.3985C152.579 68.4686 152.868 71.6371 152.675 74.7945C152.371 80.1305 150.587 86.775 144.722 91.9393C145.739 94.0206 146.256 96.3112 146.23 98.6279C146.206 102.551 144.627 107.622 138.404 112.232" stroke="#070707" stroke-width="0.58203" stroke-miterlimit="10" stroke-linecap="round"/>
<path d="M114.937 69.6486C111.227 71.482 107.753 73.7592 104.592 76.4299C101.409 79.1237 98.5825 82.2117 96.1797 85.6194C89.8183 94.6442 87.554 104.344 86.974 112.269C86.5751 117.622 86.8778 123.003 87.8741 128.277L103.369 126.63L118.862 124.981C122.806 113.863 122.475 101.695 120.832 91.4705C119.616 84.0146 117.641 76.7026 114.937 69.6486Z" fill="#F6991A" stroke="#070707" stroke-width="0.58203" stroke-miterlimit="10" stroke-linecap="round"/>
<path d="M106.376 74.9973C105.988 77.6814 105.948 80.4044 106.257 83.0987C106.735 87.1007 108.192 91.6595 111.992 94.5479C112.516 94.9449 113.07 95.3009 113.649 95.6128C114.335 95.9832 115.051 96.2937 115.79 96.5408C115.014 97.9915 114.453 99.5475 114.125 101.16C113.593 103.744 113.547 107.071 115.366 110.247C116.166 111.633 117.23 112.849 118.498 113.825C119.343 114.479 120.262 115.034 121.235 115.477" stroke="#070707" stroke-width="0.58203" stroke-miterlimit="10" stroke-linecap="round"/>
<path d="M85.64 163.617L91.44 173.199L97.24 182.78C94.108 185.11 90.9791 187.447 87.8533 189.791C84.7275 192.136 81.587 194.456 78.4318 196.751C75.7939 198.672 73.1282 200.547 70.2584 201.855C67.3886 203.164 64.3169 203.885 60.8647 203.512C59.3066 203.328 57.7751 202.964 56.3013 202.426C54.9276 201.948 53.6154 201.308 52.3921 200.521C52.2436 200.422 52.0905 200.315 51.9768 200.234L51.7819 200.097C48.5139 197.974 46.1108 194.754 45.0052 191.016C43.9751 187.618 43.9705 184.033 44.3881 180.829C44.703 178.429 45.2818 176.071 46.1142 173.797C46.9451 171.522 48.0103 169.34 49.2926 167.285L58.6793 152.205L68.0637 137.125C68.8061 135.931 69.6011 134.771 70.4486 133.645C71.2971 132.525 72.2015 131.449 73.1584 130.42C76.5899 126.714 80.9205 123.957 85.7305 122.416C90.331 120.897 95.3167 120.328 100.595 120.082C108.193 119.739 116.921 120.56 124.588 123.435C132.256 126.309 138.856 131.239 142.213 139.109C142.64 140.114 143.078 141.114 143.526 142.108C143.975 143.103 144.429 144.095 144.888 145.085L154.973 166.83L165.058 188.576C165.839 190.255 166.302 192.064 166.425 193.912C166.623 196.869 165.88 199.814 164.304 202.324C163.754 203.188 163.114 203.993 162.397 204.725C159.864 207.344 156.464 208.95 152.832 209.242C149.191 209.547 145.56 208.562 142.573 206.458C136.733 202.343 129.752 195.786 124.233 190.251C118.714 184.715 114.652 180.219 114.652 180.219L121.688 171.635L128.725 163.051C128.736 163.038 128.743 163.022 128.745 163.005C128.747 162.988 128.744 162.971 128.736 162.956C128.729 162.941 128.718 162.929 128.704 162.92C128.69 162.911 128.674 162.907 128.657 162.907L107.144 163.267L85.64 163.617Z" fill="#84A1E5" stroke="#070707" stroke-width="0.58203" stroke-miterlimit="10" stroke-linecap="round"/>
<path d="M153.168 176.123C153.168 177.877 152.56 179.576 151.448 180.932C150.335 182.287 148.787 183.215 147.067 183.557C145.348 183.9 143.562 183.635 142.016 182.808C140.469 181.982 139.257 180.645 138.586 179.025C137.915 177.405 137.826 175.602 138.335 173.924C138.844 172.246 139.919 170.796 141.377 169.822C142.835 168.847 144.586 168.409 146.331 168.581C148.076 168.752 149.707 169.524 150.947 170.764C151.652 171.467 152.211 172.302 152.592 173.222C152.973 174.142 153.169 175.128 153.168 176.123Z" fill="#DBCAF4" stroke="black" stroke-width="0.58203" stroke-miterlimit="10" stroke-linecap="round"/>
<path d="M124.307 149.541C124.307 151.295 123.699 152.994 122.586 154.349C121.473 155.704 119.925 156.632 118.205 156.974C116.486 157.315 114.7 157.05 113.154 156.224C111.608 155.397 110.396 154.059 109.725 152.439C109.054 150.819 108.966 149.017 109.475 147.339C109.984 145.661 111.059 144.212 112.517 143.237C113.975 142.263 115.726 141.825 117.471 141.997C119.216 142.168 120.847 142.94 122.087 144.18C122.792 144.883 123.351 145.719 123.732 146.639C124.113 147.559 124.309 148.545 124.307 149.541Z" fill="#DBCAF4" stroke="black" stroke-width="0.58203" stroke-miterlimit="10" stroke-linecap="round"/>
<path d="M65.7351 183.702C65.7352 185.456 65.1273 187.155 64.0149 188.511C62.9026 189.866 61.3546 190.794 59.6348 191.136C57.915 191.479 56.1297 191.214 54.5831 190.387C53.0366 189.561 51.8245 188.224 51.1533 186.604C50.4821 184.984 50.3935 183.181 50.9024 181.503C51.4113 179.825 52.4864 178.375 53.9443 177.401C55.4023 176.426 57.153 175.988 58.8981 176.16C60.6432 176.331 62.2748 177.103 63.5148 178.343C64.2194 179.046 64.7782 179.882 65.1592 180.801C65.5402 181.721 65.7359 182.707 65.7351 183.702Z" fill="#DBCAF4" stroke="black" stroke-width="0.58203" stroke-miterlimit="10" stroke-linecap="round"/>
<path d="M147.088 201.994C147.09 200.3 146.524 198.655 145.481 197.321C144.438 195.987 142.978 195.041 141.334 194.633C139.691 194.226 137.958 194.38 136.413 195.073C134.867 195.765 133.598 196.956 132.809 198.453C134.467 199.955 136.142 201.416 137.785 202.771C139.428 204.126 141.033 205.374 142.573 206.455C142.894 206.681 143.22 206.892 143.553 207.089C143.885 207.285 144.222 207.47 144.564 207.643C145.36 206.933 145.996 206.063 146.431 205.089C146.867 204.115 147.09 203.06 147.088 201.994Z" fill="#DBCAF4" stroke="black" stroke-width="0.58203" stroke-miterlimit="10" stroke-linecap="round"/>
<path d="M82.3113 134.86C83.8171 134.86 85.2887 134.412 86.5385 133.572C87.7882 132.732 88.7593 131.539 89.3277 130.145C89.8961 128.75 90.0361 127.218 89.7298 125.744C89.4235 124.27 88.6847 122.92 87.6079 121.868C85.2964 122.484 83.0596 123.352 80.9379 124.457C78.7401 125.617 76.701 127.056 74.8711 128.737C75.208 130.463 76.1343 132.019 77.4917 133.137C78.849 134.255 80.5527 134.866 82.3113 134.867V134.86Z" fill="#DBCAF4" stroke="black" stroke-width="0.58203" stroke-miterlimit="10" stroke-linecap="round"/>
<path d="M130.35 134.857C131.666 134.859 132.96 134.518 134.104 133.867C135.248 133.216 136.203 132.278 136.874 131.145C135.098 129.345 133.1 127.779 130.928 126.484C128.718 125.167 126.382 124.073 123.956 123.218C123.578 123.813 123.284 124.457 123.081 125.132C122.744 126.264 122.676 127.458 122.882 128.621C123.089 129.784 123.564 130.882 124.27 131.828C124.976 132.775 125.893 133.543 126.949 134.072C128.004 134.601 129.169 134.877 130.35 134.876V134.857Z" fill="#DBCAF4" stroke="black" stroke-width="0.58203" stroke-miterlimit="10" stroke-linecap="round"/>
<path d="M83.5207 182.787C81.9355 182.786 80.3898 183.282 79.1014 184.205C77.813 185.129 76.8466 186.433 76.3384 187.935C75.8302 189.436 75.8057 191.059 76.2685 192.575C76.7312 194.092 77.6578 195.425 78.9178 196.386C80.8805 194.954 82.8355 193.514 84.7828 192.064C86.73 190.615 88.6757 189.164 90.6199 187.71C90.0791 186.264 89.1094 185.017 87.8406 184.137C86.5719 183.257 85.0647 182.786 83.5207 182.787Z" fill="#DBCAF4" stroke="black" stroke-width="0.58203" stroke-miterlimit="10" stroke-linecap="round"/>
<path d="M66.4698 141.182C64.7158 148.606 59.2314 149.676 54.1854 148.899C49.1394 148.121 44.5434 145.491 44.5434 145.491C40.7595 150.513 36.4861 152.158 33.1592 152.548C29.8323 152.938 27.452 152.07 27.452 152.07C17.302 126.135 24.733 108.359 34.6997 97.0675C44.6664 85.776 57.1596 80.969 57.1596 80.969C57.1596 80.969 61.6163 87.0172 65.0082 97.5686C68.4 108.12 70.727 123.17 66.4698 141.182Z" fill="#DBCAF4" stroke="black" stroke-width="0.58203" stroke-miterlimit="10" stroke-linecap="round"/>
<path d="M57.2006 131.572C57.2447 132.357 57.061 133.139 56.6716 133.822C56.303 134.458 55.7737 134.985 55.1368 135.352C54.5 135.718 53.7779 135.911 53.0431 135.91C52.2567 135.905 51.4884 135.674 50.8298 135.244H50.8113C50.1535 135.674 49.386 135.905 48.6003 135.91C47.8653 135.911 47.143 135.718 46.5058 135.352C45.8686 134.985 45.3389 134.458 44.9695 133.822C44.5809 133.139 44.398 132.357 44.4429 131.572C43.7406 131.218 43.1557 130.668 42.7586 129.99C42.3908 129.352 42.1973 128.629 42.1973 127.894C42.1973 127.158 42.3908 126.435 42.7586 125.797C43.1559 125.119 43.7408 124.571 44.4429 124.217C44.3982 123.433 44.5811 122.652 44.9695 121.969C45.3396 121.335 45.8695 120.808 46.5065 120.441C47.1436 120.075 47.8655 119.882 48.6003 119.881C49.3862 119.887 50.1537 120.119 50.8113 120.55H50.8252C51.4836 120.119 52.2519 119.887 53.0385 119.881C53.7731 119.882 54.4948 120.075 55.1315 120.441C55.7682 120.807 56.2976 121.334 56.667 121.969C57.0561 122.652 57.2397 123.433 57.1959 124.217C57.897 124.572 58.4816 125.12 58.8802 125.797C59.2466 126.435 59.4394 127.158 59.4394 127.894C59.4394 128.629 59.2466 129.352 58.8802 129.99C58.483 130.667 57.9001 131.216 57.2006 131.572Z" fill="#FF6406" stroke="#070707" stroke-width="0.58203" stroke-miterlimit="10" stroke-linecap="round"/>
<path d="M53.2055 127.89C53.2043 128.442 53.0119 128.976 52.661 129.402C52.3101 129.827 51.8225 130.118 51.2812 130.225C50.7399 130.332 50.1783 130.247 49.6923 129.986C49.2062 129.725 48.8256 129.304 48.6154 128.794C48.4052 128.284 48.3784 127.716 48.5394 127.189C48.7005 126.661 49.0396 126.206 49.4988 125.9C49.958 125.594 50.5091 125.457 51.058 125.512C51.607 125.567 52.1199 125.81 52.5095 126.201C52.7311 126.423 52.9067 126.686 53.0261 126.976C53.1456 127.266 53.2065 127.577 53.2055 127.89Z" fill="#ECE7E1" stroke="black" stroke-width="0.58203" stroke-miterlimit="10" stroke-linecap="round"/>
<path d="M63.0027 96.4028C62.3947 96.3893 61.8148 96.1441 61.3816 95.7174C60.9484 95.2906 60.6946 94.7144 60.672 94.1067C60.6495 93.499 60.86 92.9056 61.2604 92.4479C61.6609 91.9902 62.221 91.7028 62.8264 91.6444C62.3624 90.5494 61.9146 89.5309 61.4715 88.5959C61.0284 87.661 60.6015 86.8026 60.1932 86.0439C59.9278 86.081 59.6667 86.1439 59.4136 86.2319C59.1658 86.3127 58.9258 86.416 58.6968 86.5404C58.0589 86.9068 57.5297 87.436 57.1632 88.0739C56.7741 88.7576 56.5904 89.5389 56.6343 90.3243C55.9335 90.6804 55.3491 91.2294 54.95 91.9066C54.5823 92.544 54.3887 93.2669 54.3887 94.0027C54.3887 94.7386 54.5823 95.4615 54.95 96.0988C55.3491 96.776 55.9335 97.325 56.6343 97.6811C56.5904 98.4665 56.7741 99.2479 57.1632 99.9315C57.5319 100.567 58.0612 101.095 58.698 101.461C59.3349 101.828 60.0569 102.02 60.7917 102.019C61.5781 102.015 62.3464 101.783 63.005 101.354H63.0189C63.4937 101.663 64.0276 101.87 64.5868 101.962C65.146 102.054 65.7182 102.029 66.2669 101.887C65.9885 100.805 65.697 99.766 65.3923 98.7715C65.0884 97.7692 64.7728 96.8064 64.4527 95.8808C64.0383 96.2031 63.5277 96.3771 63.0027 96.3749V96.4028Z" fill="#FF6406" stroke="#070707" stroke-width="0.58203" stroke-miterlimit="10" stroke-linecap="round"/>
<path d="M60.6162 94.0147C60.6162 94.3281 60.678 94.6384 60.798 94.9279C60.918 95.2174 61.0939 95.4805 61.3156 95.702C61.5373 95.9235 61.8005 96.0991 62.0901 96.2188C62.3797 96.3385 62.6901 96.4 63.0035 96.3997C63.5285 96.4019 64.0391 96.2279 64.4535 95.9055C64.189 95.1399 63.9176 94.3998 63.6461 93.6899C63.3747 92.98 63.1009 92.2979 62.8272 91.6367C62.2263 91.6801 61.6641 91.9496 61.2539 92.3908C60.8437 92.832 60.6158 93.4123 60.6162 94.0147Z" fill="#ECE7E1" stroke="black" stroke-width="0.58203" stroke-miterlimit="10" stroke-linecap="round"/>
<path d="M27.61 108.165C27.5675 108.946 27.7503 109.722 28.1366 110.402C28.5024 111.035 29.0281 111.561 29.6612 111.928C30.2944 112.294 31.0127 112.488 31.7442 112.49C32.5253 112.485 33.2884 112.255 33.9412 111.826H33.9575C34.6103 112.255 35.3734 112.485 36.1545 112.49C36.7148 112.495 37.2704 112.386 37.7868 112.168C38.3032 111.951 38.7695 111.63 39.1569 111.225C39.5444 110.82 39.8447 110.34 40.0394 109.815C40.234 109.289 40.3189 108.729 40.2887 108.17C40.9857 107.817 41.5663 107.271 41.9615 106.597C42.3294 105.962 42.5231 105.242 42.5231 104.509C42.5231 103.775 42.3294 103.055 41.9615 102.421C41.5663 101.747 40.9857 101.201 40.2887 100.848C40.3304 100.068 40.1485 99.2918 39.7644 98.6114C39.4437 98.0573 38.9999 97.5844 38.4673 97.2292C37.9347 96.874 37.3275 96.646 36.6927 96.5628C36.131 96.4885 35.5599 96.5352 35.0177 96.6997C33.5286 98.3525 32.1462 100.098 30.8788 101.927C29.5399 103.858 28.3449 105.885 27.3037 107.991C27.3524 108.024 27.4035 108.054 27.4545 108.082L27.61 108.167V108.165ZM33.9505 102.133C34.4983 102.134 35.0289 102.324 35.4521 102.672C35.8753 103.02 36.1648 103.504 36.2714 104.041C36.378 104.578 36.2951 105.136 36.0368 105.619C35.7785 106.102 35.3608 106.48 34.8547 106.69C34.3487 106.9 33.7856 106.928 33.2614 106.769C32.7371 106.61 32.2841 106.275 31.9794 105.819C31.6748 105.364 31.5373 104.817 31.5904 104.272C31.6436 103.727 31.884 103.217 32.2708 102.829C32.4923 102.608 32.7554 102.433 33.0449 102.315C33.3344 102.196 33.6446 102.136 33.9575 102.138L33.9505 102.133Z" fill="#FF6406" stroke="#070707" stroke-width="0.58203" stroke-miterlimit="10" stroke-linecap="round"/>
<path d="M33.957 106.879C34.506 106.879 35.038 106.688 35.4623 106.34C35.8866 105.992 36.1771 105.507 36.2842 104.969C36.3912 104.43 36.3083 103.871 36.0495 103.387C35.7907 102.903 35.3721 102.523 34.8649 102.313C34.3577 102.103 33.7933 102.075 33.2679 102.234C32.7425 102.394 32.2886 102.73 31.9834 103.186C31.6783 103.643 31.5408 104.191 31.5943 104.737C31.6479 105.284 31.8893 105.795 32.2773 106.183C32.4976 106.404 32.7594 106.579 33.0476 106.699C33.3359 106.818 33.6449 106.879 33.957 106.879Z" fill="#ECE7E1" stroke="black" stroke-width="0.58203" stroke-miterlimit="10" stroke-linecap="round"/>
<path d="M169.359 163.173L166.111 176.724L162.863 190.278L177.518 195.672L192.172 201.063C193.717 201.709 195.335 202.165 196.99 202.421C199.342 202.793 201.746 202.666 204.045 202.047C206.903 201.235 209.507 199.707 211.608 197.607C213.858 195.363 215.606 192.667 216.736 189.698C217.351 188.111 217.796 186.463 218.063 184.782C218.328 183.099 218.432 181.394 218.374 179.692C218.169 173.527 217.701 167.911 217.114 162.918C216.527 157.925 215.817 153.561 215.135 149.903C212.949 138.224 210.453 130.788 208.24 126.007C206.027 121.225 204.099 119.082 203.05 117.998C195.139 109.804 184.585 106.21 175.607 104.704C169.66 103.706 163.614 103.445 157.604 103.93C153.932 104.28 150.297 104.949 146.741 105.929C141.642 107.329 136.739 109.365 132.148 111.989C127.617 114.589 123.426 117.743 119.674 121.378C121.785 122.03 123.851 122.82 125.859 123.742C127.369 124.436 128.84 125.211 130.267 126.062C131.518 126.804 132.726 127.618 133.884 128.498C134.775 129.194 135.369 129.714 135.707 130.02C136.195 130.461 136.788 131.03 137.433 131.73C138.159 132.52 138.836 133.353 139.459 134.226C140.628 135.868 141.606 137.638 142.373 139.502C142.805 140.562 143.175 141.647 143.479 142.75C145.693 150.406 149.091 157.633 152.785 164.739C156.478 171.845 160.471 178.838 163.865 186.058C164.781 182.247 165.696 178.434 166.61 174.62C167.524 170.806 168.44 166.99 169.359 163.173Z" fill="#C6FCDB" stroke="black" stroke-width="0.58203" stroke-miterlimit="10" stroke-linecap="round"/>
<path d="M91.9385 147.11C91.9385 147.11 92.9732 146.463 95.3373 146.853C97.7014 147.243 101.395 148.667 106.705 152.808" stroke="black" stroke-width="0.58203" stroke-miterlimit="10" stroke-linecap="round"/>
<path d="M109.171 150.273C109.171 150.273 107.178 148.856 104.512 147.352C101.847 145.849 98.5082 144.26 95.8193 143.919" stroke="black" stroke-width="0.58203" stroke-miterlimit="10" stroke-linecap="round"/>
<path d="M110.896 148.063C110.218 147.587 109.504 147.103 108.719 146.615C107.935 146.128 107.121 145.641 106.246 145.161C105.43 144.711 104.633 144.299 103.857 143.926C103.084 143.555 102.332 143.217 101.613 142.913" stroke="black" stroke-width="0.58203" stroke-miterlimit="10" stroke-linecap="round"/>
<path d="M93.73 120.658C92.1616 120.89 91.4332 122.231 91.2499 123.813C91.0877 125.383 91.3581 126.968 92.0317 128.395C92.623 129.508 93.5731 130.387 94.7276 130.892C95.4484 131.219 96.2138 131.438 96.9988 131.541C98.4115 131.715 99.8442 131.473 101.121 130.845C102.472 130.176 103.634 129.179 104.499 127.945C104.901 128.688 105.412 129.367 106.014 129.959C107.172 131.141 108.689 131.906 110.327 132.135C111.199 132.232 112.081 132.196 112.942 132.028C114.557 131.758 116.011 130.89 117.016 129.597C117.882 128.434 118.348 127.022 118.345 125.572C118.346 124.053 117.894 122.567 117.048 121.305C117.048 121.305 114.032 120.742 109.624 120.377C105.216 120.013 99.3652 119.846 93.73 120.658Z" fill="#ECE7E1" stroke="black" stroke-width="0.58203" stroke-miterlimit="10" stroke-linecap="round"/>
<path d="M72.4767 152.108L70.1104 150.911L67.7439 149.711L61.8975 156.857L56.0488 164L57.4083 164.886L58.7679 165.775L66.0921 165.455L73.414 165.137L73.9384 161.571L74.4719 158.005L73.4813 155.056L72.4767 152.108Z" fill="#F2B3C1" stroke="black" stroke-width="0.58203" stroke-miterlimit="10" stroke-linecap="round"/>
<path d="M62.9166 147.265C62.7542 147.383 62.5384 147.534 62.2763 147.698C61.976 147.885 61.6662 148.056 61.3483 148.211C59.2603 149.22 57.0516 149.35 55.0263 149.116C53.0009 148.882 51.1542 148.281 49.7715 147.833C49.1288 147.624 48.3447 147.343 47.4515 146.961C46.4477 146.529 45.4715 146.036 44.5283 145.485C44.1455 145.975 43.6931 146.513 43.1641 147.07C41.3915 148.933 39.292 150.456 36.9697 151.561L46.5072 157.779L56.0448 163.996L61.8935 156.853L67.7399 149.708L65.3271 148.487L62.9166 147.265Z" fill="#F6C34C" stroke="#070707" stroke-width="0.58203" stroke-miterlimit="10" stroke-linecap="round"/>
<path d="M136.242 109.925C139.221 117.689 142.199 125.448 145.177 133.202C148.154 140.955 151.132 148.715 154.111 156.48C154.246 156.82 154.491 157.105 154.807 157.29C155.122 157.474 155.491 157.549 155.853 157.5C156.216 157.452 156.552 157.284 156.808 157.024C157.064 156.763 157.226 156.424 157.268 156.061L160.321 129.845L163.377 103.629C160.653 103.638 157.933 103.823 155.234 104.183C151.926 104.621 148.658 105.327 145.464 106.292C143.708 106.826 142.061 107.412 140.525 108.027C138.989 108.642 137.555 109.275 136.242 109.925Z" fill="#ECE7E1" stroke="black" stroke-width="0.58203" stroke-miterlimit="10" stroke-linecap="round"/>
<path d="M116.896 118.467L123.645 120.692L130.394 122.914L125.095 127.649L119.794 132.382L118.346 125.424L116.896 118.467Z" fill="#040400" stroke="#040400" stroke-width="0.58203" stroke-miterlimit="10"/>
<path d="M128.858 162.905L124.016 157.889L119.174 152.875C118.017 151.677 116.804 150.536 115.534 149.453C114.265 148.377 112.939 147.37 111.562 146.437C109.878 145.293 108.005 144.175 106.245 143.465C104.484 142.755 102.836 142.449 101.605 142.929C101.205 142.781 100.79 142.676 100.368 142.616C99.1283 142.437 97.864 142.67 96.7697 143.28C96.4333 143.466 96.1162 143.685 95.8231 143.934C94.9673 143.952 94.1385 144.237 93.4521 144.748C92.9652 145.119 92.5686 145.595 92.2921 146.14C92.1339 146.453 92.0155 146.784 91.9395 147.126C90.9716 147.675 90.0668 148.329 89.2413 149.075C88.884 149.398 88.5615 149.718 88.2715 150.031C87.9815 150.344 87.724 150.648 87.4967 150.936C87.1671 151.252 86.9311 151.654 86.8146 152.096C86.7111 152.457 86.7527 152.845 86.9306 153.177C87.0637 153.396 87.2569 153.572 87.4874 153.685C87.6292 153.747 87.778 153.792 87.9305 153.819C88.2134 153.887 88.5083 153.887 88.7912 153.819C89.225 153.699 89.6304 153.493 89.9837 153.214C90.7115 152.66 91.48 152.162 92.2828 151.725C92.853 151.426 93.482 151.257 94.1249 151.23H94.2595H94.3917C95.0873 151.24 95.7738 151.39 96.4101 151.671C97.0574 151.949 97.6826 152.275 98.28 152.648C100.394 153.918 102.405 155.352 104.296 156.935C106.407 158.768 108.056 160.789 107.555 162.355C107.5 162.525 107.422 162.686 107.323 162.835C107.205 163.006 107.065 163.162 106.908 163.299C106.908 163.299 106.514 163.823 105.556 163.821C104.597 163.819 103.075 163.287 100.82 161.176C100.653 161.021 100.493 160.863 100.333 160.712C100.173 160.561 100.015 160.39 99.8692 160.225C99.3736 159.692 98.7945 159.244 98.1547 158.898C97.3891 158.513 96.5099 158.374 95.7698 159.056C95.5247 159.186 95.3201 159.381 95.1785 159.619C95.0369 159.858 94.9637 160.131 94.9671 160.408C94.9415 161.411 95.6747 163.072 98.6976 165.696C99.3751 166.285 100.051 166.876 100.725 167.47C101.398 168.064 102.069 168.663 102.73 169.271L108.701 174.744L114.671 180.214L121.768 171.558L128.858 162.905Z" fill="#D87D61" stroke="black" stroke-width="0.58203" stroke-miterlimit="10" stroke-linecap="round"/>
<path d="M156.6 157.2C156.504 157.276 156.398 157.34 156.285 157.39C156.1 157.475 155.901 157.523 155.698 157.531C155.384 157.545 155.073 157.464 154.805 157.299C153.854 150.803 152.904 144.301 151.956 137.793C151.008 131.284 150.057 124.781 149.104 118.284L149.907 118.161L150.708 118.036C151.697 124.567 152.683 131.095 153.663 137.619C154.644 144.143 155.623 150.67 156.6 157.2Z" fill="#F6991A" stroke="#070707" stroke-width="0.58203" stroke-miterlimit="10" stroke-linecap="round"/>
<path d="M159.828 133.996C159.716 134.814 159.606 135.632 159.496 136.45L159.155 138.905C158.521 135.116 157.887 131.326 157.252 127.537C156.618 123.748 155.983 119.958 155.348 116.169L156.104 115.668L156.863 115.169C157.354 118.306 157.848 121.443 158.343 124.581C158.838 127.719 159.333 130.858 159.828 133.996Z" fill="#F6991A" stroke="#070707" stroke-width="0.58203" stroke-miterlimit="10" stroke-linecap="round"/>
<path d="M148.73 143.031C148.229 141.639 147.729 140.241 147.229 138.839L145.728 134.644C145.148 131.647 144.569 128.648 143.99 125.649C143.412 122.65 142.833 119.651 142.255 116.652C142.394 116.724 142.543 116.799 142.696 116.87C142.849 116.942 143.007 117.012 143.16 117.084C143.29 117.14 143.42 117.191 143.545 117.239L143.918 117.379C144.716 121.655 145.516 125.93 146.317 130.203L148.73 143.031Z" fill="#F6991A" stroke="#070707" stroke-width="0.58203" stroke-miterlimit="10" stroke-linecap="round"/>
<path d="M72.4748 171.6C72.8058 169.335 73.1368 167.069 73.4678 164.803C73.7987 162.537 74.129 160.271 74.4584 158.005C74.129 157.022 73.7987 156.039 73.4678 155.057L72.4748 152.108L58.5014 146.331L44.542 140.552L59.2021 137.044L73.8645 133.534C75.6973 133.095 77.5231 132.634 79.349 132.163C81.1748 131.692 82.9937 131.207 84.8172 130.729C86.7432 130.214 88.7695 130.203 90.7007 130.699C93.0718 131.323 95.6818 132.868 98.0296 136.176L103.598 143.225L109.166 150.273L90.819 160.945L72.4748 171.6Z" fill="#ECE7E1" stroke="black" stroke-width="0.58203" stroke-miterlimit="10" stroke-linecap="round"/>
<path d="M64.2188 148.615C64.8866 148.468 65.5111 148.168 66.0423 147.738C67.0051 146.995 68.0653 145.65 68.4574 143.198" stroke="black" stroke-width="0.58203" stroke-miterlimit="10" stroke-linecap="round"/>
<path d="M98.0194 136.184C95.6716 132.874 93.0592 131.331 90.6905 130.704C88.759 130.21 86.7329 130.222 84.807 130.737C82.9835 131.215 81.1623 131.697 79.3365 132.171C77.5106 132.644 75.6871 133.099 73.8543 133.542L72.4994 133.864L71.1445 134.189C71.4405 137.144 72.4353 139.986 74.0469 142.481C75.5754 144.849 77.7298 146.748 80.2714 147.967C82.0835 148.816 84.0485 149.289 86.0482 149.359C87.3874 149.408 88.7275 149.298 90.0409 149.032C90.5761 150.197 91.1112 151.362 91.6464 152.529L93.2541 156.027C93.4296 156.467 93.627 156.897 93.8457 157.317C94.0951 157.8 94.3773 158.265 94.6902 158.709C95.9299 160.556 97.8393 161.848 100.015 162.312C102.147 162.786 104.381 162.401 106.232 161.24C106.818 160.868 107.353 160.423 107.826 159.915C108.288 159.416 108.688 158.862 109.016 158.266C109.812 156.816 110.149 155.16 109.984 153.515C109.82 151.865 109.185 150.297 108.155 148.998L103.089 142.597L98.0194 136.184Z" fill="#040400" stroke="#040400" stroke-width="0.58203" stroke-miterlimit="10"/>
<path d="M68.4602 143.197C69.5454 143.099 70.6382 143.268 71.6432 143.689C72.4807 144.069 73.0561 144.64 73.2533 145.313C73.2998 145.485 73.3255 145.663 73.3298 145.842C73.3454 146.167 73.2647 146.49 73.0978 146.77C72.7313 147.347 71.9262 147.667 70.8428 147.698C69.4982 147.683 68.1697 147.403 66.9336 146.874C67.0889 146.675 67.2337 146.468 67.3674 146.255C67.5257 146.003 67.669 145.742 67.7966 145.473C68.1375 144.754 68.3622 143.986 68.4625 143.197H68.4602Z" fill="#FC762B" stroke="#070707" stroke-width="0.58203" stroke-miterlimit="10" stroke-linecap="round"/>
<path d="M78.2341 139.239C78.2339 139.503 78.1423 139.759 77.9747 139.963C77.8071 140.167 77.5739 140.306 77.3149 140.358C77.0558 140.409 76.787 140.369 76.5542 140.245C76.3213 140.12 76.1389 139.919 76.0379 139.675C75.9369 139.431 75.9237 139.159 76.0004 138.906C76.0772 138.654 76.2392 138.435 76.4588 138.289C76.6784 138.142 76.9421 138.076 77.2048 138.102C77.4676 138.128 77.7133 138.244 77.9 138.431C78.0062 138.537 78.0903 138.663 78.1477 138.802C78.205 138.94 78.2344 139.089 78.2341 139.239Z" fill="#ECE7E1" stroke="black" stroke-width="0.58203" stroke-miterlimit="10" stroke-linecap="round"/>
<path d="M73.2002 154.261C74.3857 154.375 75.6733 154.456 77.0537 154.493C78.4341 154.53 79.9073 154.493 81.4617 154.379C83.3291 154.25 85.188 154.018 87.0297 153.683C88.7372 153.368 90.2777 152.987 91.6697 152.6L92.4585 154.321L93.2496 156.041C91.3375 156.771 89.369 157.346 87.3638 157.757C84.8451 158.273 82.2785 158.517 79.7078 158.486C78.752 158.472 77.8332 158.421 76.9563 158.342C76.0793 158.263 75.2464 158.154 74.4553 158.026L73.8312 156.136L73.2002 154.261Z" fill="#DBCAF4" stroke="black" stroke-width="0.58203" stroke-miterlimit="10" stroke-linecap="round"/>
<path d="M116.952 119.725C117.098 119.449 117.242 119.162 117.381 118.858C117.521 118.554 117.657 118.236 117.787 117.902C118.157 116.952 118.443 115.973 118.643 114.974C118.81 114.142 118.917 113.299 118.964 112.452C119.335 112.476 119.703 112.548 120.056 112.666C120.515 112.814 120.928 113.078 121.253 113.434C121.963 114.232 122.135 115.485 121.868 116.682C121.601 117.879 120.896 119.002 119.854 119.547C119.327 119.815 118.74 119.944 118.149 119.923C117.743 119.908 117.341 119.842 116.952 119.725Z" fill="#D87D61" stroke="black" stroke-width="0.58203" stroke-miterlimit="10" stroke-linecap="round"/>
<path d="M93.2721 113.173L86.1683 113.361L79.0645 113.549L82.7811 119.607L86.4954 125.664L89.8826 119.419L93.2721 113.173Z" fill="#040400" stroke="#040400" stroke-width="0.58203" stroke-miterlimit="10"/>
<path d="M85.7656 163.913L91.2107 159.505L96.658 155.097C97.9758 154.074 99.3392 153.118 100.748 152.229C102.158 151.341 103.615 150.529 105.112 149.798C106.94 148.904 108.954 148.067 110.798 147.615C112.643 147.162 114.318 147.095 115.469 147.747C116.286 147.565 117.132 147.564 117.95 147.743C118.768 147.921 119.537 148.276 120.204 148.781C120.51 149.014 120.793 149.276 121.048 149.563C121.367 149.617 121.678 149.706 121.976 149.83C122.503 150.049 122.977 150.379 123.366 150.796C123.754 151.214 124.049 151.711 124.229 152.252C124.342 152.584 124.412 152.928 124.438 153.278L126.257 155.275L128.075 157.275C128.491 157.647 128.763 158.152 128.843 158.704C128.883 158.925 128.875 159.153 128.822 159.371C128.769 159.589 128.671 159.795 128.535 159.973C128.356 160.156 128.138 160.296 127.896 160.382C127.655 160.469 127.397 160.498 127.143 160.47C126.826 160.446 126.517 160.357 126.235 160.209C125.953 160.061 125.705 159.857 125.505 159.609C125.097 159.177 124.64 158.794 124.143 158.467C123.352 157.943 122.466 157.577 121.535 157.391L121.403 157.365L121.273 157.345C120.617 157.24 119.948 157.233 119.29 157.324C118.63 157.416 117.986 157.595 117.373 157.857C115.1 158.813 112.906 159.946 110.81 161.245C108.453 162.739 106.53 164.493 106.803 166.117C106.834 166.293 106.888 166.464 106.966 166.625C107.057 166.814 107.173 166.991 107.309 167.151C107.309 167.151 107.625 167.727 108.574 167.847C109.522 167.968 111.102 167.673 113.638 165.905C113.824 165.775 114.007 165.643 114.188 165.506C114.369 165.369 114.548 165.233 114.724 165.091C115.292 164.636 115.928 164.275 116.61 164.022C117.424 163.75 118.313 163.739 118.951 164.52C119.175 164.684 119.349 164.906 119.456 165.162C119.562 165.418 119.595 165.699 119.552 165.973C119.431 166.968 118.471 168.508 115.104 170.675C114.348 171.159 113.595 171.648 112.845 172.142C112.093 172.633 111.346 173.13 110.604 173.638L103.915 178.222L97.2241 182.788C95.314 179.642 93.4038 176.496 91.4937 173.35L85.7656 163.913Z" fill="#D87D61" stroke="black" stroke-width="0.58203" stroke-miterlimit="10" stroke-linecap="round"/>
<path d="M118.75 114.376C118.054 118.533 115.997 122.058 113.217 124.394C110.438 126.73 106.953 127.874 103.392 127.294C99.8309 126.714 96.896 124.487 95.0284 121.378C93.1608 118.269 92.3349 114.26 93.0309 110.103C93.7269 105.945 95.7848 102.421 98.5641 100.082C101.343 97.7439 104.828 96.6025 108.389 97.1825C111.951 97.7625 114.885 99.992 116.753 103.101C118.621 106.21 119.442 110.214 118.75 114.376Z" fill="#D87D61" stroke="black" stroke-width="0.58203" stroke-miterlimit="10" stroke-linecap="round"/>
<path d="M109.469 111.358C109.434 111.564 109.319 111.748 109.149 111.87C109.044 111.946 108.921 111.994 108.792 112.011C108.663 112.028 108.532 112.012 108.411 111.966C108.289 111.921 108.181 111.845 108.095 111.748C108.01 111.65 107.949 111.533 107.92 111.406C107.891 111.28 107.893 111.148 107.926 111.022C107.96 110.897 108.024 110.782 108.113 110.687C108.202 110.592 108.312 110.52 108.435 110.478C108.558 110.437 108.69 110.426 108.818 110.447C108.921 110.464 109.019 110.501 109.107 110.556C109.196 110.611 109.272 110.682 109.333 110.767C109.393 110.852 109.437 110.947 109.46 111.049C109.483 111.15 109.487 111.255 109.469 111.358Z" fill="#040400"/>
<path d="M100.021 110.049C99.9995 110.178 99.9466 110.298 99.8672 110.401C99.7878 110.504 99.6843 110.585 99.5658 110.639C99.4474 110.692 99.3177 110.715 99.1881 110.706C99.0586 110.697 98.9332 110.657 98.8231 110.588C98.7129 110.519 98.6214 110.424 98.5566 110.312C98.4918 110.199 98.4558 110.073 98.4516 109.943C98.4474 109.813 98.4753 109.684 98.5327 109.568C98.5901 109.451 98.6754 109.351 98.7809 109.275C98.9082 109.184 99.0597 109.132 99.2163 109.127C99.3729 109.122 99.5274 109.164 99.6603 109.247C99.7932 109.33 99.8985 109.45 99.9627 109.593C100.027 109.736 100.047 109.895 100.021 110.049Z" fill="#040400"/>
<path d="M102.204 113.682L101.584 112.889L100.967 112.095C100.959 112.086 100.953 112.074 100.951 112.061C100.949 112.048 100.951 112.035 100.955 112.024C100.96 112.011 100.968 112.001 100.978 111.993C100.988 111.984 101.001 111.979 101.013 111.977L101.941 111.908L102.869 111.836L103.252 109.527L103.637 107.207" stroke="black" stroke-width="0.58203" stroke-miterlimit="10" stroke-linecap="round"/>
<path d="M105.561 116.119C105.324 116.531 104.978 116.869 104.561 117.096C104.123 117.335 103.631 117.461 103.132 117.463C102.586 117.466 102.048 117.323 101.575 117.05C101.121 116.791 100.751 116.404 100.513 115.938" stroke="black" stroke-width="0.58203" stroke-miterlimit="10" stroke-linecap="round"/>
<path d="M107.676 106.619L109.903 107.591L112.13 108.566" stroke="black" stroke-width="0.58203" stroke-miterlimit="10" stroke-linecap="round"/>
<path d="M124.43 153.253C124.43 153.253 123.502 152.465 121.103 152.513C118.705 152.562 114.839 153.441 109 156.787" stroke="black" stroke-width="0.58203" stroke-miterlimit="10" stroke-linecap="round"/>
<path d="M101.634 106.197L99.237 106.777L96.8428 107.355" stroke="black" stroke-width="0.58203" stroke-miterlimit="10" stroke-linecap="round"/>
<path d="M106.922 153.933C106.922 153.933 109.098 152.815 111.949 151.706C114.801 150.597 118.334 149.502 121.046 149.546" stroke="black" stroke-width="0.58203" stroke-miterlimit="10" stroke-linecap="round"/>
<path d="M112.628 115.601C112.549 116.078 112.308 116.513 111.944 116.831C111.581 117.15 111.119 117.333 110.636 117.348C110.153 117.364 109.679 117.212 109.296 116.918C108.913 116.624 108.643 116.206 108.534 115.735C108.424 115.264 108.481 114.77 108.695 114.337C108.909 113.904 109.267 113.558 109.707 113.359C110.147 113.16 110.643 113.12 111.109 113.245C111.576 113.37 111.985 113.654 112.266 114.047C112.587 114.496 112.718 115.055 112.628 115.601Z" fill="#FF6406" stroke="#070707" stroke-width="0.58203" stroke-miterlimit="10" stroke-linecap="round"/>
<path d="M99.9487 113.724C99.8696 114.201 99.6278 114.635 99.2644 114.953C98.901 115.271 98.4385 115.454 97.9557 115.469C97.4729 115.485 96.9997 115.332 96.6166 115.038C96.2336 114.744 95.9644 114.326 95.855 113.855C95.7456 113.385 95.8028 112.891 96.0167 112.458C96.2306 112.025 96.5881 111.679 97.0282 111.48C97.4684 111.281 97.9639 111.241 98.4304 111.366C98.897 111.491 99.3056 111.774 99.5867 112.167C99.7463 112.39 99.8604 112.643 99.9225 112.91C99.9846 113.177 99.9935 113.453 99.9487 113.724Z" fill="#FF6406" stroke="#070707" stroke-width="0.58203" stroke-miterlimit="10" stroke-linecap="round"/>
<path d="M94.6894 105.023C96.4634 105.354 98.2775 105.414 100.069 105.2C103.125 104.852 106.911 103.627 109.837 100.128C110.401 101.988 111.145 103.789 112.057 105.506C113.556 108.327 115.838 111.408 118.973 112.454C119.345 112.481 119.712 112.559 120.063 112.686C120.414 112.796 120.739 112.976 121.018 113.216C121.297 113.455 121.525 113.748 121.687 114.078C121.687 114.078 123.453 110.234 123.03 105.726C122.608 101.218 119.998 96.0263 111.247 93.3444C108.51 92.6296 105.637 92.6184 102.895 93.3119C98.4338 94.4719 93.4087 98.0215 91.1514 107.51C91.3956 107.401 91.6529 107.323 91.917 107.278C92.4947 107.164 93.0934 107.222 93.6384 107.445L94.172 106.241L94.6894 105.023Z" fill="#040400" stroke="#040400" stroke-width="0.58203" stroke-miterlimit="10"/>
<path d="M99.0307 116.39C99.0426 116.334 99.0511 116.278 99.0562 116.221C99.0562 116.163 99.0678 116.105 99.0701 116.049C99.0763 115.889 99.0709 115.728 99.0539 115.569C99.0376 115.409 99.0144 115.251 98.9889 115.093C98.9263 114.687 98.852 114.281 98.7685 113.88C98.685 113.478 98.5922 113.075 98.4901 112.678C98.4809 112.644 98.4624 112.614 98.4366 112.59C98.4108 112.566 98.3789 112.55 98.3444 112.544C98.3099 112.538 98.2744 112.541 98.2419 112.554C98.2094 112.567 98.1812 112.589 98.1607 112.618C98.0006 112.85 97.8428 113.082 97.6967 113.314C97.5505 113.546 97.3951 113.789 97.2512 114.028C97.0795 114.314 96.8963 114.606 96.7408 114.912C96.5805 115.211 96.4648 115.531 96.3975 115.863C96.3693 116.023 96.3608 116.186 96.3719 116.348C96.3852 116.508 96.4244 116.665 96.4879 116.812C96.5896 117.03 96.7504 117.215 96.9519 117.346C97.1475 117.482 97.3769 117.561 97.6148 117.575C97.8527 117.589 98.0898 117.537 98.2999 117.425C98.6068 117.271 98.8433 117.005 98.9611 116.682C98.9923 116.587 99.0156 116.489 99.0307 116.39Z" fill="#84A1E5" stroke="#070707" stroke-width="0.58203" stroke-miterlimit="10" stroke-linecap="round"/>
<path d="M105.546 151.494C106.284 151.121 107.07 150.745 107.908 150.373C108.745 150.002 109.629 149.636 110.562 149.285C111.434 148.956 112.283 148.664 113.102 148.406C113.921 148.149 114.712 147.919 115.469 147.71" stroke="black" stroke-width="0.58203" stroke-miterlimit="10" stroke-linecap="round"/>
<path d="M128.856 162.898L137.904 170.503L146.952 178.108" stroke="black" stroke-width="0.58203" stroke-miterlimit="10" stroke-linecap="round"/>
<path d="M163.589 99.4119C163.821 104.377 162.375 108.959 159.833 112.351C157.29 115.742 153.659 117.944 149.541 118.151C145.423 118.357 141.598 116.543 138.737 113.427C135.876 110.311 133.995 105.901 133.756 100.936C133.517 95.9713 134.972 91.3916 137.512 87.9998C140.052 84.6079 143.686 82.4039 147.804 82.1998C151.922 81.9956 155.747 83.8099 158.603 86.9256C161.459 90.0414 163.35 94.4471 163.589 99.4119Z" fill="#D87D61" stroke="black" stroke-width="0.58203" stroke-miterlimit="10" stroke-linecap="round"/>
<path d="M149.873 98.55C149.886 98.7353 149.843 98.9202 149.75 99.0808C149.657 99.2414 149.517 99.3703 149.35 99.4508C149.182 99.5313 148.994 99.5596 148.811 99.5322C148.627 99.5048 148.456 99.4229 148.319 99.297C148.136 99.1297 148.026 98.8973 148.013 98.6497C148 98.4638 148.044 98.2785 148.139 98.1179C148.233 97.9573 148.374 97.8289 148.542 97.7493C148.711 97.6697 148.899 97.6426 149.083 97.6717C149.267 97.7007 149.438 97.7844 149.574 97.912C149.754 98.077 149.861 98.3062 149.873 98.55Z" fill="#040400"/>
<path d="M139.983 100.666C139.997 100.912 139.914 101.155 139.751 101.341C139.669 101.432 139.569 101.506 139.458 101.559C139.347 101.612 139.227 101.643 139.104 101.649C138.981 101.655 138.858 101.638 138.742 101.596C138.626 101.555 138.519 101.492 138.428 101.409C138.336 101.327 138.262 101.227 138.209 101.116C138.156 101.005 138.126 100.885 138.119 100.762C138.113 100.639 138.131 100.516 138.172 100.4C138.213 100.284 138.277 100.177 138.359 100.086C138.527 99.9027 138.759 99.7928 139.007 99.7794C139.129 99.7725 139.252 99.7901 139.368 99.831C139.484 99.872 139.59 99.9355 139.681 100.018C139.772 100.1 139.846 100.2 139.898 100.311C139.951 100.422 139.98 100.543 139.986 100.666H139.983Z" fill="#040400"/>
<path d="M143.882 103.932L142.841 103.361L141.799 102.772C141.786 102.765 141.775 102.754 141.767 102.741C141.76 102.728 141.755 102.713 141.755 102.698C141.754 102.683 141.758 102.667 141.765 102.654C141.772 102.64 141.783 102.629 141.797 102.621L142.773 102.109L143.75 101.596L143.087 98.914L142.423 96.2344" stroke="black" stroke-width="0.58203" stroke-miterlimit="10" stroke-linecap="round"/>
<path d="M148.515 105.58C148.404 106.129 148.143 106.636 147.761 107.046C147.361 107.478 146.858 107.802 146.3 107.99C145.689 108.197 145.034 108.238 144.402 108.108C143.796 107.989 143.238 107.694 142.799 107.259" stroke="black" stroke-width="0.58203" stroke-miterlimit="10" stroke-linecap="round"/>
<path d="M146.765 93.5865L149.593 93.1202L152.421 92.6539" stroke="black" stroke-width="0.58203" stroke-miterlimit="10" stroke-linecap="round"/>
<path d="M140.592 94.6698L137.836 95.5978L135.08 96.5258" stroke="black" stroke-width="0.58203" stroke-miterlimit="10" stroke-linecap="round"/>
<path d="M163.376 103.605C163.448 103.141 163.508 102.636 163.552 102.102C163.596 101.568 163.62 101.007 163.617 100.415C163.616 99.3879 163.538 98.362 163.385 97.346C163.26 96.5074 163.086 95.677 162.863 94.859C163.345 94.7365 163.842 94.6788 164.339 94.6873C165.016 94.6866 165.678 94.8869 166.241 95.2626C167.292 96.0027 167.793 97.4086 167.77 98.8494C167.747 100.29 167.202 101.768 166.146 102.652C165.709 103.015 165.197 103.279 164.647 103.424C164.233 103.537 163.806 103.598 163.376 103.605Z" fill="#D87D61" stroke="black" stroke-width="0.58203" stroke-miterlimit="10" stroke-linecap="round"/>
<path d="M154.877 102.693C154.905 103.261 154.735 103.821 154.396 104.278C154.057 104.735 153.57 105.06 153.018 105.198C152.466 105.336 151.883 105.278 151.369 105.035C150.855 104.792 150.441 104.378 150.198 103.863C149.955 103.349 149.897 102.766 150.036 102.215C150.174 101.663 150.499 101.176 150.956 100.837C151.413 100.498 151.973 100.328 152.542 100.356C153.11 100.384 153.651 100.608 154.072 100.99C154.312 101.207 154.507 101.469 154.645 101.761C154.783 102.053 154.862 102.37 154.877 102.693Z" fill="#FF6406" stroke="#070707" stroke-width="0.58203" stroke-miterlimit="10" stroke-linecap="round"/>
<path d="M141.036 105.986C141.064 106.555 140.894 107.116 140.555 107.573C140.215 108.031 139.728 108.356 139.176 108.494C138.623 108.633 138.04 108.575 137.525 108.332C137.01 108.088 136.596 107.674 136.352 107.159C136.109 106.644 136.052 106.06 136.19 105.508C136.329 104.956 136.654 104.468 137.112 104.129C137.569 103.79 138.13 103.62 138.699 103.648C139.268 103.676 139.809 103.901 140.231 104.283C140.471 104.5 140.666 104.762 140.804 105.054C140.942 105.346 141.021 105.663 141.036 105.986Z" fill="#FF6406" stroke="#070707" stroke-width="0.58203" stroke-miterlimit="10" stroke-linecap="round"/>
<path d="M135.383 108.344C135.221 107.931 135.061 107.495 134.919 107.038C134.778 106.581 134.622 106.11 134.488 105.602C134.197 104.528 133.976 103.436 133.824 102.333C133.697 101.391 133.62 100.444 133.592 99.4935C133.167 99.4508 132.738 99.4641 132.316 99.533C131.769 99.6209 131.254 99.8513 130.824 100.201C129.873 100.997 129.664 102.421 129.964 103.855C130.263 105.289 131.07 106.737 132.149 107.567C132.691 107.978 133.331 108.24 134.005 108.328C134.462 108.394 134.925 108.399 135.383 108.344Z" fill="#D87D61" stroke="black" stroke-width="0.58203" stroke-miterlimit="10" stroke-linecap="round"/>
<path d="M141.222 87.4338C141.218 88.8556 140.722 90.2322 139.817 91.329C138.912 92.4258 137.655 93.1749 136.26 93.4487C134.865 93.7226 133.418 93.5041 132.165 92.8306C130.913 92.1572 129.933 91.0703 129.392 89.7553C128.852 88.4403 128.784 86.9785 129.2 85.6189C129.616 84.2594 130.491 83.0862 131.675 82.2993C132.859 81.5125 134.28 81.1605 135.695 81.3036C137.109 81.4466 138.431 82.0757 139.433 83.0838C140.003 83.6554 140.454 84.334 140.761 85.0804C141.068 85.8269 141.225 86.6266 141.222 87.4338Z" fill="#040400" stroke="#040400" stroke-width="0.58203" stroke-miterlimit="10"/>
<path d="M152.349 83.2673C152.349 85.2741 151.653 87.2189 150.38 88.7701C149.106 90.3214 147.335 91.3832 145.366 91.7746C143.398 92.166 141.355 91.8628 139.585 90.9166C137.815 89.9705 136.428 88.4399 135.66 86.5858C134.892 84.7316 134.791 82.6686 135.374 80.7481C135.956 78.8277 137.187 77.1687 138.856 76.0538C140.524 74.939 142.528 74.4372 144.525 74.634C146.522 74.8308 148.39 75.714 149.809 77.1332C150.616 77.9376 151.256 78.8937 151.692 79.9464C152.128 80.9992 152.351 82.1278 152.349 83.2673Z" fill="#040400" stroke="#040400" stroke-width="0.58203" stroke-miterlimit="10"/>
<path d="M166.296 83.2643C166.299 85.2716 165.605 87.2178 164.334 88.7713C163.063 90.3247 161.293 91.3894 159.324 91.7839C157.356 92.1784 155.312 91.8783 153.541 90.9347C151.769 89.9912 150.379 88.4625 149.608 86.6092C148.837 84.7559 148.732 82.6926 149.312 80.7708C149.892 78.8491 151.12 77.1877 152.787 76.0697C154.454 74.9518 156.457 74.4465 158.455 74.6399C160.453 74.8332 162.322 75.7134 163.744 77.1303C164.553 77.9338 165.195 78.8895 165.633 79.9423C166.071 80.995 166.296 82.1241 166.296 83.2643Z" fill="#040400" stroke="#040400" stroke-width="0.58203" stroke-miterlimit="10"/>
<path d="M80.0594 72.5539C79.085 77.0431 79.7555 81.4465 81.63 84.9358C83.5046 88.4251 86.5832 91.0003 90.4205 91.8331C94.2578 92.666 98.1252 91.6011 101.278 89.2046C104.431 86.808 106.872 83.0821 107.846 78.5929C108.82 74.1037 108.152 69.698 106.275 66.2087C104.398 62.7195 101.324 60.1443 97.4872 59.3114C93.6499 58.4785 89.7825 59.5434 86.6296 61.9399C83.4767 64.3365 81.0361 68.0624 80.0594 72.5539Z" fill="#F2B3C1" stroke="black" stroke-width="0.58203" stroke-miterlimit="10" stroke-linecap="round"/>
<path d="M156.519 90.8362C156.669 92.2847 157.052 93.6995 157.653 95.0261C158.609 97.019 160.342 98.817 163.453 98.0212C163.453 98.0212 163.395 97.5178 163.293 96.8728C163.192 96.1956 163.048 95.5254 162.864 94.866C162.864 94.866 163.096 94.8127 163.437 94.7686C163.873 94.7107 164.313 94.6959 164.752 94.7245C164.912 93.9955 165.017 93.2557 165.068 92.5112C165.206 90.7396 165.1 88.9573 164.752 87.2147L160.637 89.0243L156.519 90.8362Z" fill="#040400" stroke="#040400" stroke-width="0.58203" stroke-miterlimit="10"/>
<path d="M169.359 162.904L166.381 175.133L163.404 187.362C159.963 186.486 156.62 185.26 153.428 183.703C151.131 182.578 148.927 181.274 146.835 179.803C145.411 178.808 144.061 177.71 142.798 176.518C140.83 174.664 139.101 172.572 137.65 170.291C137.038 169.287 136.505 168.237 136.056 167.15C135.337 165.394 134.778 163.264 135.411 161.779C135.481 161.604 135.57 161.438 135.678 161.283C135.835 161.05 136.05 160.863 136.302 160.74C136.724 160.563 137.196 160.544 137.631 160.684C137.982 160.779 138.313 160.937 138.608 161.148C139.342 161.724 139.994 162.398 140.545 163.15C141.113 163.897 141.624 164.696 142.123 165.456C142.499 166.068 142.945 166.633 143.452 167.141C144.011 167.66 144.663 167.992 145.338 167.702C145.466 167.645 145.578 167.557 145.665 167.447C145.754 167.337 145.824 167.212 145.872 167.078C146.336 165.756 145.872 163.958 145.285 162.489C144.922 161.589 144.49 160.719 143.993 159.886C143.153 158.611 142.207 157.41 141.164 156.295C139.967 154.972 138.457 153.434 136.453 151.4C135.695 150.675 134.991 149.895 134.348 149.066C133.808 148.305 133.513 147.576 133.74 146.917C133.846 146.627 134.031 146.372 134.274 146.182C134.496 146.003 134.742 145.855 135.005 145.743C134.494 145.285 134.165 144.659 134.077 143.978C134.035 143.705 134.053 143.425 134.13 143.16C134.207 142.894 134.341 142.648 134.522 142.44C134.84 142.132 135.26 141.954 135.701 141.939C135.952 141.92 136.205 141.933 136.453 141.978C136.202 141.479 136.093 140.92 136.137 140.363C136.152 139.956 136.303 139.566 136.565 139.255C136.827 138.943 137.186 138.728 137.585 138.644C137.785 138.595 137.989 138.568 138.195 138.563C138.39 138.559 138.585 138.584 138.773 138.637C139.026 138.713 139.275 138.804 139.517 138.909C139.796 139.025 140.12 139.164 140.482 139.331C140.844 139.498 141.243 139.695 141.675 139.923C141.83 139.762 141.995 139.57 142.169 139.384C142.332 139.203 142.515 139.041 142.714 138.902C143.559 138.354 144.619 138.586 145.628 139.073C146.55 139.566 147.426 140.138 148.247 140.783C149.492 141.687 150.656 142.696 151.727 143.799C152.351 144.437 152.939 145.108 153.491 145.808C156.662 149.838 158.474 152.304 159.845 154.077C160.965 155.595 162.206 157.018 163.557 158.334C164.197 158.954 164.996 159.68 165.963 160.462C167.049 161.338 168.183 162.153 169.359 162.904Z" fill="#D87D61" stroke="black" stroke-width="0.58203" stroke-miterlimit="10" stroke-linecap="round"/>
<path d="M135.006 145.744C135.934 146.347 136.904 147.025 137.911 147.79C138.917 148.556 139.952 149.414 141.003 150.342C142.358 151.561 143.644 152.854 144.857 154.214C145.979 155.479 146.945 156.697 147.775 157.827" stroke="black" stroke-width="0.58203" stroke-miterlimit="10" stroke-linecap="round"/>
<path d="M136.453 141.984C137.495 142.627 138.611 143.376 139.773 144.235C140.935 145.093 142.146 146.077 143.369 147.183C144.783 148.462 146.119 149.825 147.369 151.264C148.529 152.591 149.494 153.865 150.315 155.027" stroke="black" stroke-width="0.58203" stroke-miterlimit="10" stroke-linecap="round"/>
<path d="M141.676 139.929C142.78 140.802 143.947 141.785 145.156 142.911C146.365 144.036 147.587 145.275 148.817 146.657C149.666 147.611 150.441 148.553 151.162 149.472C151.884 150.39 152.531 151.288 153.127 152.153" stroke="black" stroke-width="0.58203" stroke-miterlimit="10" stroke-linecap="round"/>
<path d="M196.379 170.503L182.869 166.7L169.362 162.898" stroke="black" stroke-width="0.58203" stroke-miterlimit="10" stroke-linecap="round"/>
<path d="M79.6156 76.4234C79.6156 75.985 79.6411 75.5186 79.6828 75.0314C79.7246 74.5442 79.7872 74.0222 79.8777 73.484C80.0339 72.5475 80.2595 71.6239 80.5528 70.7209C80.795 69.9744 81.0817 69.243 81.4112 68.5308C80.9897 68.3468 80.5459 68.2189 80.0912 68.1503C79.4745 68.0463 78.8408 68.127 78.2699 68.3823C77.1981 68.8974 76.5299 70.1038 76.3327 71.4215C76.1355 72.7393 76.4093 74.1684 77.2283 75.1335C77.5733 75.5294 77.9999 75.8459 78.4787 76.0615C78.8419 76.227 79.2235 76.3485 79.6156 76.4234Z" fill="#F2B3C1" stroke="black" stroke-width="0.58203" stroke-miterlimit="10" stroke-linecap="round"/>
<path d="M178.898 149.83L180.961 158.196L183.023 166.559" stroke="black" stroke-width="0.58203" stroke-miterlimit="10" stroke-linecap="round"/>
<path d="M82.1803 67.0836C83.5202 67.8608 85.0182 68.3255 86.5628 68.4431C89.1728 68.6588 92.6226 67.9397 95.9773 64.1905C96.2258 65.744 96.7816 67.2323 97.6122 68.5684C98.4427 69.9045 99.5314 71.0615 100.815 71.9718C103.197 73.6422 106.076 74.2918 108.642 73.6097C110.563 73.0993 112.275 71.8558 113.547 70.1436C114.884 68.3082 115.663 66.126 115.79 63.8588C115.769 61.3652 114.957 58.9427 113.47 56.9405C112.108 55.0824 110.131 53.7673 107.891 53.2285C105.869 52.8048 103.764 53.0491 101.893 53.9245C100.874 54.3762 99.923 54.9681 99.0676 55.6831C97.7172 54.93 96.262 54.3827 94.75 54.0591C92.3372 53.5348 89.182 53.4373 85.9596 55.001C83.5229 56.1929 81.5017 58.0911 80.1596 60.4484C78.7844 62.8564 78.1305 65.6089 78.2757 68.3781C78.4421 68.3089 78.6135 68.2522 78.7884 68.2088C79.4018 68.0516 80.0455 68.0572 80.656 68.225C80.919 68.2971 81.174 68.3959 81.417 68.5196C81.4649 68.4129 81.516 68.3039 81.5701 68.1925C81.6235 68.0835 81.6815 67.9605 81.7418 67.8561C81.8021 67.7517 81.888 67.5824 81.9599 67.4525C82.0318 67.3225 82.106 67.2019 82.1803 67.0836Z" fill="#ECE7E1" stroke="black" stroke-width="0.58203" stroke-miterlimit="10" stroke-linecap="round"/>
<path d="M105.198 85.0972C105.414 84.7446 105.63 84.3734 105.841 83.979C106.052 83.5846 106.261 83.1716 106.463 82.7378C106.898 81.8044 107.272 80.8434 107.581 79.861C107.843 79.0227 108.06 78.1707 108.23 77.309C108.636 77.3337 109.037 77.4117 109.423 77.541C109.922 77.7042 110.37 77.9935 110.724 78.3808C111.497 79.2554 111.476 80.5871 110.977 81.8492C110.479 83.1113 109.502 84.3061 108.363 84.9116C107.789 85.2022 107.15 85.3419 106.507 85.3176C106.063 85.2991 105.623 85.225 105.198 85.0972Z" fill="#F2B3C1" stroke="black" stroke-width="0.58203" stroke-miterlimit="10" stroke-linecap="round"/>
<path d="M182 119.209C182.146 118.648 182.232 118.049 182.334 117.474C182.406 116.947 182.521 116.427 182.677 115.919C182.962 115.096 183.294 114.091 183.804 113.279C184.315 112.467 185.002 111.852 185.995 111.808C185.995 111.808 186.414 111.792 186.788 112.381C187.162 112.971 187.484 114.168 187.296 116.599C187.169 118.206 186.865 119.794 186.389 121.334C185.912 122.876 185.272 124.363 184.48 125.77L182.417 129.454L180.352 133.134C180.139 133.515 179.974 133.922 179.86 134.345C179.748 134.768 179.697 135.204 179.707 135.642C179.692 136.247 179.887 136.839 180.26 137.317C180.659 137.781 181.324 138.054 182.399 137.957C181.927 138.607 181.53 139.307 181.213 140.045C180.749 141.177 180.517 142.49 181.51 143.207C181.926 143.537 182.449 143.702 182.979 143.671C183.869 143.616 185.067 142.989 186.303 140.704C186.303 140.704 186.906 141.864 187.941 142.279C188.976 142.694 190.435 142.344 192.152 139.321C192.375 139.638 192.687 139.882 193.048 140.022C193.409 140.162 193.803 140.193 194.182 140.11C195.493 139.811 197.397 138.119 199.771 132.556C200.102 131.783 200.442 131.009 200.792 130.236C201.141 129.463 201.495 128.696 201.854 127.937C203.014 125.478 204.698 121.135 204.949 116.446C205.2 111.757 204.007 106.723 199.381 102.879C198.372 102.034 197.238 101.352 196.019 100.858C194.804 100.366 193.511 100.09 192.201 100.044C190.105 99.9686 188.035 100.515 186.25 101.614C184.162 102.89 182.074 105.094 180.271 108.751C179.595 110.151 179.016 111.597 178.538 113.077C177.768 115.479 177.19 118.36 177.96 120.269C178.141 120.722 178.477 121.095 178.909 121.32C179.121 121.433 179.354 121.502 179.593 121.524C179.832 121.545 180.073 121.519 180.301 121.446L180.376 121.42L180.45 121.392C180.868 121.218 181.222 120.917 181.461 120.532C181.708 120.121 181.89 119.675 182 119.209Z" fill="#F2B3C1" stroke="black" stroke-width="0.58203" stroke-miterlimit="10" stroke-linecap="round"/>
<path d="M190.168 123.146C189.515 124.709 188.788 126.323 187.987 127.988C187.182 129.649 186.295 131.354 185.321 133.092C184.838 133.953 184.353 134.789 183.864 135.599C183.375 136.409 182.885 137.198 182.396 137.959" stroke="black" stroke-width="0.58203" stroke-miterlimit="10" stroke-linecap="round"/>
<path d="M194.14 125.188C194.14 125.188 192.787 128.183 191.124 131.619C189.46 135.054 187.514 138.938 186.296 140.708" stroke="black" stroke-width="0.58203" stroke-miterlimit="10" stroke-linecap="round"/>
<path d="M197.873 127.091L195.013 133.206L192.152 139.322" stroke="black" stroke-width="0.58203" stroke-miterlimit="10" stroke-linecap="round"/>
<path d="M141.779 61.2168C142.011 65.8057 140.619 70.0328 138.204 73.174C135.789 76.3153 132.325 78.3453 128.404 78.5402C124.483 78.7351 120.838 77.0508 118.122 74.1693C115.405 71.2879 113.607 67.2093 113.38 62.625C113.152 58.0407 114.54 53.809 116.955 50.6654C119.37 47.5218 122.834 45.4941 126.754 45.2993C130.675 45.1044 134.318 46.7887 137.037 49.6701C139.756 52.5516 141.551 56.6255 141.779 61.2168Z" fill="#F2B3C1" stroke="black" stroke-width="0.58203" stroke-miterlimit="10" stroke-linecap="round"/>
<path d="M129.11 61.8764C129.119 62.0751 129.06 62.271 128.941 62.4306C128.822 62.5902 128.652 62.7038 128.459 62.7519C128.266 62.8 128.062 62.7798 127.882 62.6946C127.702 62.6094 127.557 62.4646 127.472 62.2847C127.387 62.1048 127.367 61.901 127.415 61.708C127.464 61.5149 127.577 61.3446 127.737 61.2259C127.897 61.1072 128.093 61.0475 128.291 61.057C128.49 61.0665 128.679 61.1445 128.827 61.2778C128.911 61.3541 128.98 61.4462 129.028 61.5489C129.077 61.6516 129.105 61.7629 129.11 61.8764Z" fill="#040400"/>
<path d="M119.866 64.7577C119.87 64.8715 119.852 64.9851 119.812 65.0918C119.773 65.1985 119.712 65.2963 119.634 65.3795C119.539 65.4848 119.419 65.565 119.286 65.613C119.152 65.661 119.008 65.6753 118.868 65.6546C118.728 65.6339 118.594 65.5788 118.48 65.4943C118.366 65.4098 118.275 65.2984 118.214 65.1701C118.153 65.0417 118.125 64.9004 118.132 64.7585C118.139 64.6167 118.181 64.4788 118.254 64.357C118.327 64.2352 118.429 64.1333 118.55 64.0603C118.672 63.9874 118.81 63.9456 118.952 63.9387C119.065 63.9328 119.179 63.9493 119.286 63.9873C119.392 64.0253 119.491 64.084 119.575 64.1601C119.659 64.2363 119.727 64.3282 119.775 64.4308C119.824 64.5333 119.852 64.6444 119.857 64.7577H119.866Z" fill="#040400"/>
<path d="M124.166 67.0516L123.203 66.525L122.242 65.9983C122.23 65.9913 122.219 65.9813 122.211 65.9691C122.204 65.957 122.199 65.9431 122.198 65.9287C122.198 65.9147 122.202 65.901 122.209 65.8889C122.216 65.8767 122.226 65.8665 122.238 65.8591L123.14 65.3951L124.045 64.9311L123.423 62.4278L122.811 59.9501" stroke="black" stroke-width="0.58203" stroke-miterlimit="10" stroke-linecap="round"/>
<path d="M128.79 67.6881C128.736 68.2036 128.539 68.6937 128.222 69.1033C127.89 69.5353 127.455 69.8775 126.958 70.0986C126.414 70.3416 125.815 70.4353 125.222 70.37C124.654 70.3113 124.116 70.087 123.675 69.7251" stroke="black" stroke-width="0.58203" stroke-miterlimit="10" stroke-linecap="round"/>
<path d="M125.615 58.6725L128.246 58.3593L130.877 58.0415" stroke="black" stroke-width="0.58203" stroke-miterlimit="10" stroke-linecap="round"/>
<path d="M120.552 59.989L118.141 61.1745L115.729 62.36" stroke="black" stroke-width="0.58203" stroke-miterlimit="10" stroke-linecap="round"/>
<path d="M141.588 65.0986C141.655 64.6648 141.711 64.2008 141.751 63.7066C141.79 63.2125 141.813 62.6928 141.813 62.1453C141.813 60.4104 141.579 58.6835 141.117 57.0111C141.563 56.8973 142.022 56.8435 142.481 56.851C143.107 56.8508 143.72 57.0365 144.24 57.3846C145.212 58.0667 145.676 59.3659 145.655 60.6976C145.634 62.0293 145.128 63.3958 144.161 64.2124C143.755 64.5495 143.28 64.7941 142.769 64.9293C142.384 65.0336 141.987 65.0905 141.588 65.0986Z" fill="#F2B3C1" stroke="black" stroke-width="0.58203" stroke-miterlimit="10" stroke-linecap="round"/>
<path d="M134.909 64.4854C134.936 65.0114 134.779 65.5302 134.465 65.9534C134.152 66.3766 133.701 66.678 133.191 66.8062C132.68 66.9345 132.14 66.8817 131.664 66.6567C131.188 66.4318 130.805 66.0487 130.579 65.5728C130.354 65.0968 130.301 64.5574 130.428 64.0465C130.556 63.5356 130.857 63.0849 131.28 62.7711C131.703 62.4573 132.222 62.2999 132.748 62.3257C133.274 62.3514 133.774 62.5588 134.165 62.9125C134.386 63.1126 134.566 63.3546 134.694 63.6245C134.822 63.8945 134.895 64.1871 134.909 64.4854Z" fill="#FF6406" stroke="#070707" stroke-width="0.58203" stroke-miterlimit="10" stroke-linecap="round"/>
<path d="M121.278 69.2903C121.304 69.8163 121.147 70.3351 120.833 70.7583C120.52 71.1815 120.069 71.4829 119.559 71.6111C119.048 71.7394 118.509 71.6865 118.032 71.4616C117.556 71.2367 117.173 70.8536 116.947 70.3776C116.722 69.9017 116.669 69.3623 116.797 68.8514C116.924 68.3405 117.225 67.8898 117.648 67.576C118.071 67.2622 118.59 67.1048 119.116 67.1305C119.642 67.1563 120.143 67.3637 120.533 67.7173C120.755 67.9175 120.935 68.1595 121.062 68.4294C121.19 68.6994 121.263 68.992 121.278 69.2903Z" fill="#FF6406" stroke="#070707" stroke-width="0.58203" stroke-miterlimit="10" stroke-linecap="round"/>
<path d="M114.926 69.4665C114.772 69.0845 114.621 68.6824 114.476 68.2601C114.332 67.8379 114.193 67.3948 114.065 66.9331C113.558 65.0914 113.273 63.1956 113.216 61.2862C112.812 61.246 112.404 61.2585 112.003 61.3233C111.483 61.4023 110.993 61.615 110.581 61.9404C109.674 62.6736 109.476 63.9913 109.762 65.3184C110.047 66.6454 110.815 67.9817 111.85 68.7543C112.371 69.1324 112.979 69.3719 113.618 69.4503C114.051 69.5099 114.491 69.5154 114.926 69.4665Z" fill="#F2B3C1" stroke="black" stroke-width="0.58203" stroke-miterlimit="10" stroke-linecap="round"/>
<path d="M113.217 61.2916C113.217 61.2916 115.502 61.1686 118.272 59.6212C121.043 58.0737 124.304 55.1018 126.235 49.4016C127.144 51.2205 128.367 52.865 129.847 54.2596C132.267 56.5124 135.916 58.4171 140.832 57.0204C140.934 56.9926 141.043 56.9671 141.159 56.9462C141.275 56.9253 141.391 56.9044 141.528 56.8882C141.708 56.8669 141.888 56.8553 142.069 56.8534C142.236 56.8534 142.391 56.8534 142.533 56.8673C142.625 55.1808 142.493 53.4895 142.141 51.8376C141.626 49.4433 140.517 46.6431 138.157 44.3648C135.141 41.4393 130.907 40.1308 126.703 40.3466C122.499 40.5624 118.312 42.3024 115.363 45.4738C112.468 48.5896 111.514 52.348 111.31 55.4336C111.175 57.415 111.323 59.4055 111.751 61.3449C111.84 61.3206 111.931 61.3012 112.022 61.2869C112.127 61.2682 112.232 61.255 112.338 61.2475C112.499 61.236 112.66 61.236 112.82 61.2475C112.953 61.2546 113.086 61.2693 113.217 61.2916Z" fill="#040400" stroke="#040400" stroke-width="0.58203" stroke-miterlimit="10"/>
<path d="M141.129 32.6291C141.129 34.9253 140.333 37.1504 138.876 38.9254C137.42 40.7004 135.393 41.9154 133.141 42.3633C130.888 42.8113 128.551 42.4645 126.526 41.3821C124.501 40.2997 122.914 38.5486 122.035 36.4272C121.156 34.3058 121.04 31.9453 121.707 29.748C122.373 27.5507 123.781 25.6525 125.69 24.3768C127.599 23.1011 129.892 22.5268 132.177 22.7519C134.462 22.977 136.599 23.9874 138.222 25.6111C139.145 26.5316 139.877 27.6255 140.376 28.8299C140.875 30.0343 141.131 31.3254 141.129 32.6291Z" fill="#040400" stroke="#040400" stroke-width="0.58203" stroke-miterlimit="10"/>
<path d="M90.06 75.2825C90.0124 75.5064 90.0551 75.74 90.179 75.9325C90.3028 76.125 90.4977 76.2608 90.7212 76.3103C90.8885 76.3468 91.0629 76.3329 91.2223 76.2703C91.3817 76.2077 91.519 76.0992 91.6167 75.9585C91.7144 75.8179 91.7681 75.6514 91.7712 75.4802C91.7742 75.309 91.7264 75.1407 91.6337 74.9967C91.541 74.8526 91.4077 74.7393 91.2507 74.6711C91.0936 74.6029 90.9198 74.5828 90.7513 74.6134C90.5828 74.644 90.4272 74.7239 90.3041 74.843C90.1811 74.9622 90.0961 75.1151 90.06 75.2825Z" fill="#040400"/>
<path d="M100.595 78.2736C100.546 78.4972 100.589 78.7309 100.713 78.9232C100.837 79.1154 101.032 79.2506 101.256 79.299C101.366 79.3235 101.481 79.3259 101.592 79.3061C101.704 79.2862 101.81 79.2444 101.906 79.1832C102.001 79.1219 102.083 79.0424 102.148 78.9492C102.212 78.856 102.258 78.7509 102.281 78.6401C102.306 78.529 102.309 78.4139 102.29 78.3016C102.27 78.1893 102.229 78.082 102.168 77.9859C102.106 77.8897 102.027 77.8067 101.933 77.7415C101.84 77.6763 101.734 77.6303 101.623 77.606C101.511 77.5818 101.396 77.5799 101.284 77.6004C101.172 77.621 101.065 77.6635 100.97 77.7255C100.874 77.7876 100.792 77.868 100.727 77.962C100.663 78.0561 100.618 78.162 100.595 78.2736Z" fill="#040400"/>
<path d="M95.6523 79.9568L96.6314 79.4627L97.6127 78.9708C97.6252 78.9643 97.6357 78.9546 97.6434 78.9429C97.6511 78.9311 97.6557 78.9176 97.6568 78.9036C97.6581 78.889 97.6554 78.8743 97.6488 78.8612C97.6423 78.8481 97.6322 78.837 97.6197 78.8293L96.7451 78.3259L95.8588 77.8224L96.5548 75.3656L97.2508 72.911" stroke="black" stroke-width="0.58203" stroke-miterlimit="10" stroke-linecap="round"/>
<path d="M90.8359 82.5966C90.9564 83.1006 91.2151 83.561 91.583 83.926C91.9707 84.3127 92.4494 84.5959 92.975 84.7496C93.546 84.9198 94.152 84.9358 94.7312 84.796C95.2863 84.6636 95.7909 84.3726 96.1835 83.9585" stroke="black" stroke-width="0.58203" stroke-miterlimit="10" stroke-linecap="round"/>
<path d="M94.4264 69.9602L91.777 69.8303L89.1299 69.7004" stroke="black" stroke-width="0.58203" stroke-miterlimit="10" stroke-linecap="round"/>
<path d="M101.343 72.6373L103.76 73.8135L106.175 74.9898" stroke="black" stroke-width="0.58203" stroke-miterlimit="10" stroke-linecap="round"/>
<path d="M85.3108 78.8331C85.1988 79.3482 85.2689 79.8862 85.5091 80.3555C85.7493 80.8247 86.1449 81.1961 86.6283 81.4064C87.1117 81.6167 87.653 81.6528 88.1601 81.5086C88.6671 81.3645 89.1085 81.0489 89.409 80.6158C89.7094 80.1826 89.8504 79.6587 89.8078 79.1333C89.7653 78.6078 89.5418 78.1134 89.1755 77.7343C88.8092 77.3552 88.3228 77.1148 87.7992 77.0541C87.2755 76.9935 86.747 77.1163 86.3038 77.4017C85.7962 77.7284 85.4391 78.2432 85.3108 78.8331Z" fill="#FF6406" stroke="#070707" stroke-width="0.58203" stroke-miterlimit="10" stroke-linecap="round"/>
<path d="M98.8074 82.7595C98.6961 83.2735 98.7664 83.8102 99.0063 84.2782C99.2463 84.7461 99.6411 85.1165 100.123 85.326C100.606 85.5356 101.146 85.5715 101.652 85.4276C102.158 85.2836 102.598 84.9688 102.898 84.5367C103.197 84.1045 103.338 83.5818 103.296 83.0576C103.253 82.5334 103.031 82.0401 102.665 81.6617C102.3 81.2833 101.815 81.0433 101.293 80.9824C100.77 80.9216 100.243 81.0437 99.8003 81.328C99.5488 81.4895 99.3316 81.6991 99.1612 81.9448C98.9908 82.1904 98.8705 82.4673 98.8074 82.7595Z" fill="#FF6406" stroke="#070707" stroke-width="0.58203" stroke-miterlimit="10" stroke-linecap="round"/>
<path d="M104.334 76.3119L102.974 75.9291L101.617 75.5463C101.233 75.4384 100.831 75.4069 100.434 75.4535C100.037 75.5003 99.6526 75.6257 99.3042 75.8224C99.0569 75.9599 98.8304 76.1317 98.6314 76.3328C98.4371 76.5329 98.2709 76.7585 98.1372 77.0033L96.7452 76.5741L95.3532 76.1472C95.4275 75.4336 95.2476 74.7166 94.8454 74.1225C94.4431 73.5284 93.8441 73.0952 93.1539 72.8992L91.4092 72.405L89.6692 71.9132C88.8981 71.7138 88.0795 71.8243 87.3889 72.2211C86.6982 72.618 86.1905 73.2695 85.9745 74.0362C85.7585 74.8029 85.8514 75.6237 86.2332 76.3227C86.6151 77.0217 87.2556 77.5434 88.0174 77.7759L89.7574 78.2677L91.4951 78.7572C91.6194 78.792 91.7456 78.8191 91.8732 78.8384C92.266 78.897 92.6664 78.878 93.0518 78.7827C93.3168 78.7171 93.572 78.6164 93.8104 78.4834C94.0822 78.3313 94.3287 78.138 94.5412 77.9104C94.752 77.6854 94.9272 77.4296 95.0609 77.1518L96.4251 77.5717L97.7869 77.9893C97.7301 78.3256 97.7301 78.6691 97.7869 79.0054C97.8471 79.3432 97.9632 79.6686 98.1303 79.9682C98.3262 80.3168 98.5887 80.6234 98.9028 80.8707C99.2159 81.1191 99.5757 81.3022 99.9608 81.409L101.32 81.7918L102.68 82.1746C102.803 82.2105 102.929 82.2376 103.056 82.2558C103.179 82.2745 103.304 82.2854 103.429 82.2882C104.171 82.306 104.893 82.0527 105.461 81.5758C106.029 81.0989 106.403 80.4311 106.514 79.6978C106.625 78.9645 106.464 78.216 106.062 77.5926C105.661 76.9692 105.045 76.5139 104.332 76.3119H104.334ZM93.2977 77.5717C93.0674 77.6958 92.8154 77.7746 92.5553 77.8037C92.2939 77.8337 92.0291 77.8124 91.7758 77.741L90.0381 77.2585L88.2981 76.769C87.7874 76.625 87.3548 76.284 87.0955 75.8211C86.8362 75.3582 86.7714 74.8112 86.9154 74.3005C87.0594 73.7898 87.4003 73.3572 87.8633 73.0979C88.3262 72.8386 88.8732 72.7738 89.3839 72.9178L91.1239 73.4073L92.8616 73.8968C93.1152 73.9673 93.3524 74.0871 93.5597 74.2493C93.7669 74.4116 93.9401 74.6131 94.0694 74.8424C94.1987 75.0717 94.2815 75.3242 94.3131 75.5855C94.3447 75.8468 94.3245 76.1118 94.2536 76.3653C94.1829 76.6187 94.0622 76.8553 93.8986 77.0613C93.7343 77.2698 93.53 77.4433 93.2977 77.5717ZM105.434 79.7873C105.291 80.2991 104.95 80.7333 104.488 80.9943C104.025 81.2553 103.477 81.3219 102.965 81.1793L101.617 80.7872L100.258 80.4044C100.005 80.3342 99.7681 80.2143 99.5618 80.0518C99.3555 79.8893 99.1835 79.6874 99.056 79.4579C98.9261 79.2291 98.8432 78.9767 98.8124 78.7154C98.7822 78.454 98.8035 78.1892 98.875 77.9359C98.9451 77.6828 99.065 77.4462 99.2276 77.2399C99.3917 77.0336 99.5941 76.861 99.8239 76.7319C100.287 76.4729 100.833 76.4079 101.343 76.5509L102.703 76.9337L104.063 77.3165C104.316 77.3872 104.553 77.5073 104.761 77.6697C104.968 77.8322 105.141 78.034 105.271 78.2634C105.4 78.4929 105.483 78.7456 105.514 79.007C105.546 79.2685 105.525 79.5337 105.455 79.7873H105.434Z" fill="#84A1E5" stroke="#070707" stroke-width="0.58203" stroke-miterlimit="10" stroke-linecap="round"/>
<path d="M68.5036 161.038C68.2802 160.767 68.0255 160.524 67.745 160.314C67.3309 159.993 66.858 159.757 66.353 159.618C65.4177 159.388 64.4314 159.498 63.569 159.926C63.0203 160.186 62.5149 160.529 62.0703 160.942L61.952 161.054L61.8313 161.165L56.0777 166.346L50.3172 171.531L50.113 171.705L49.9065 171.877C49.4723 172.244 49.1159 172.694 48.8585 173.202C48.6012 173.709 48.4479 174.263 48.4078 174.83C48.3563 175.382 48.421 175.939 48.5978 176.465C48.7747 176.991 49.0597 177.474 49.4345 177.883C49.8094 178.292 50.2657 178.617 50.7742 178.839C51.2826 179.061 51.8319 179.174 52.3866 179.171C52.9559 179.183 53.5219 179.08 54.051 178.87C54.5802 178.659 55.0618 178.345 55.4676 177.946L55.6578 177.753L55.8504 177.565L61.5413 172.334L67.23 167.1C67.7136 166.645 68.1349 166.127 68.4828 165.562C69.0164 164.687 69.4525 163.527 69.1347 162.314C69.0809 162.113 69.0095 161.917 68.9212 161.729C68.8072 161.484 68.6672 161.252 68.5036 161.038Z" fill="#ECE7E1" stroke="black" stroke-width="0.58203" stroke-miterlimit="10" stroke-linecap="round"/>
<path d="M92.8251 114.931C92.7903 114.62 92.7625 114.3 92.7439 113.966C92.7254 113.632 92.7161 113.286 92.7184 112.929C92.7223 111.909 92.8155 110.892 92.9968 109.889C93.1467 109.052 93.3552 108.227 93.6209 107.419C93.2671 107.303 92.8997 107.235 92.5281 107.214C92.0481 107.185 91.5685 107.28 91.1361 107.49C90.1803 107.973 89.5609 109.073 89.373 110.274C89.185 111.476 89.4286 112.785 90.1965 113.678C90.5882 114.121 91.0865 114.457 91.6442 114.655C92.0248 114.795 92.4215 114.888 92.8251 114.931Z" fill="#D87D61" stroke="black" stroke-width="0.58203" stroke-miterlimit="10" stroke-linecap="round"/>
<path d="M79.6591 167.348L76.657 164.511L73.6549 161.671C72.7931 161.019 71.7787 160.599 70.7085 160.451C68.9871 160.235 66.7645 160.808 64.7902 163.97L60.8276 170.782L56.8627 177.593C56.3556 178.53 56.2198 179.623 56.4823 180.656C56.6045 181.174 56.8299 181.662 57.145 182.091C57.46 182.52 57.8583 182.882 58.316 183.154C58.7737 183.426 59.2815 183.603 59.809 183.674C60.3366 183.745 60.8732 183.71 61.3867 183.57C61.9381 183.431 62.456 183.183 62.9096 182.84C63.3632 182.497 63.7431 182.067 64.0269 181.574L66.5998 177.63L69.1727 173.686L74.4159 170.508L79.6591 167.348Z" fill="#ECE7E1" stroke="black" stroke-width="0.58203" stroke-miterlimit="10" stroke-linecap="round"/>
<path d="M47.9528 140.564C47.9528 141.111 47.7634 141.641 47.4167 142.063C47.07 142.486 46.5874 142.776 46.0513 142.883C45.5151 142.99 44.9584 142.907 44.476 142.65C43.9936 142.393 43.6154 141.976 43.4056 141.471C43.1958 140.967 43.1675 140.405 43.3255 139.881C43.4835 139.358 43.818 138.905 44.2721 138.601C44.7262 138.296 45.2718 138.159 45.816 138.211C46.3602 138.264 46.8693 138.503 47.2568 138.889C47.478 139.108 47.6534 139.369 47.7729 139.657C47.8924 139.944 47.9535 140.253 47.9528 140.564Z" fill="#040400" stroke="#040400" stroke-width="0.58203" stroke-miterlimit="10"/>
<path d="M68.8486 174.207L70.0713 172.228L71.2962 170.249" stroke="black" stroke-width="0.58203" stroke-miterlimit="10" stroke-linecap="round"/>
<path d="M171.259 138.57C171.259 138.338 170.663 138.127 169.674 137.962C168.368 137.769 167.051 137.661 165.73 137.64C165.712 136.325 165.574 135.014 165.32 133.724C165.104 132.738 164.821 132.141 164.51 132.141C164.199 132.141 163.914 132.738 163.698 133.724C163.445 135.014 163.307 136.325 163.287 137.64C161.967 137.662 160.65 137.769 159.343 137.962C158.355 138.127 157.759 138.338 157.759 138.57C157.759 138.802 158.355 139.013 159.343 139.178C160.65 139.371 161.967 139.479 163.287 139.501C163.307 140.816 163.445 142.126 163.698 143.417C163.914 144.403 164.199 144.999 164.51 144.999C164.821 144.999 165.104 144.403 165.32 143.417C165.574 142.126 165.712 140.816 165.73 139.501C167.051 139.479 168.368 139.371 169.674 139.178C170.663 139.013 171.259 138.802 171.259 138.57Z" fill="url(#paint0_linear_30_2456)" stroke="black" stroke-width="0.58203" stroke-miterlimit="10" stroke-linecap="round"/>
<path d="M44.5417 73.6775C44.5417 73.3945 43.8132 73.1347 42.6068 72.9351C41.0133 72.6985 39.4059 72.5675 37.7951 72.5431C37.7704 70.9383 37.6027 69.3389 37.294 67.7639C37.0295 66.5598 36.6839 65.8313 36.3057 65.8313C35.9275 65.8313 35.5795 66.5598 35.3151 67.7639C35.0064 69.3389 34.8387 70.9383 34.8139 72.5431C33.2032 72.5675 31.5958 72.6985 30.0023 72.9351C28.7959 73.1347 28.0674 73.3991 28.0674 73.6775C28.0674 73.9559 28.7959 74.2181 30.0023 74.4199C31.5906 74.6538 33.1925 74.784 34.7977 74.8097C34.8224 76.4145 34.9901 78.0139 35.2988 79.5889C35.5633 80.793 35.909 81.5215 36.2895 81.5215C36.6699 81.5215 37.0133 80.793 37.2778 79.5889C37.5865 78.0139 37.7543 76.4145 37.7789 74.8097C39.3896 74.7847 40.9969 74.6545 42.5906 74.4199C43.8016 74.2181 44.5417 73.9583 44.5417 73.6775Z" fill="url(#paint1_linear_30_2456)" stroke="black" stroke-width="0.58203" stroke-miterlimit="10" stroke-linecap="round"/>
<path d="M176.707 55.7886C174.477 56.2526 173.106 56.7352 172.176 57.6632C171.245 58.5912 170.763 59.9646 170.301 62.1941C170.292 62.2438 170.266 62.2888 170.227 62.3212C170.188 62.3536 170.139 62.3713 170.089 62.3713C170.038 62.3713 169.989 62.3536 169.951 62.3212C169.912 62.2888 169.886 62.2438 169.877 62.1941C169.413 59.9646 168.93 58.5912 168.002 57.6632C167.074 56.7352 165.703 56.248 163.471 55.7886C163.421 55.7796 163.376 55.7534 163.344 55.7146C163.312 55.6758 163.294 55.6269 163.294 55.5763C163.294 55.5258 163.312 55.4769 163.344 55.4381C163.376 55.3993 163.421 55.3731 163.471 55.3641C165.703 54.9001 167.074 54.4175 168.002 53.4895C168.93 52.5615 169.417 51.1881 169.877 48.9585C169.886 48.9088 169.912 48.8639 169.951 48.8315C169.989 48.7991 170.038 48.7814 170.089 48.7814C170.139 48.7814 170.188 48.7991 170.227 48.8315C170.266 48.8639 170.292 48.9088 170.301 48.9585C170.765 51.1881 171.248 52.5592 172.176 53.4895C173.104 54.4198 174.477 54.9047 176.707 55.3641C176.756 55.3731 176.801 55.3993 176.834 55.4381C176.866 55.4769 176.884 55.5258 176.884 55.5763C176.884 55.6269 176.866 55.6758 176.834 55.7146C176.801 55.7534 176.756 55.7796 176.707 55.7886Z" fill="url(#paint2_linear_30_2456)" stroke="black" stroke-width="0.58203" stroke-miterlimit="10" stroke-linecap="round"/>
<path d="M30.9398 86.6334C29.6545 86.9095 28.8518 87.2087 28.2997 87.7609C27.7475 88.3131 27.4482 89.1158 27.1721 90.4011C27.1643 90.4392 27.1435 90.4735 27.1133 90.4982C27.083 90.5228 27.0453 90.5363 27.0063 90.5363C26.9673 90.5363 26.9295 90.5228 26.8993 90.4982C26.869 90.4735 26.8482 90.4392 26.8404 90.4011C26.5643 89.1158 26.265 88.3131 25.7129 87.7609C25.1607 87.2087 24.358 86.9095 23.0727 86.6334C23.0345 86.6255 23.0002 86.6047 22.9756 86.5745C22.951 86.5443 22.9375 86.5065 22.9375 86.4675C22.9375 86.4285 22.951 86.3907 22.9756 86.3605C23.0002 86.3303 23.0345 86.3095 23.0727 86.3016C24.358 86.0255 25.1607 85.7263 25.7129 85.1741C26.265 84.6219 26.5643 83.8192 26.8404 82.5339C26.8482 82.4958 26.869 82.4615 26.8993 82.4368C26.9295 82.4122 26.9673 82.3987 27.0063 82.3987C27.0453 82.3987 27.083 82.4122 27.1133 82.4368C27.1435 82.4615 27.1643 82.4958 27.1721 82.5339C27.4482 83.8192 27.7475 84.6219 28.2997 85.1741C28.8518 85.7263 29.6545 86.0255 30.9398 86.3016C30.978 86.3095 31.0123 86.3303 31.0369 86.3605C31.0616 86.3907 31.075 86.4285 31.075 86.4675C31.075 86.5065 31.0616 86.5443 31.0369 86.5745C31.0123 86.6047 30.978 86.6255 30.9398 86.6334Z" fill="url(#paint3_linear_30_2456)" stroke="black" stroke-width="0.58203" stroke-miterlimit="10" stroke-linecap="round"/>
<path d="M171.258 152.082C170.667 152.083 170.094 151.879 169.637 151.504C169.18 151.13 168.867 150.609 168.752 150.029C168.636 149.45 168.725 148.849 169.003 148.328C169.281 147.806 169.732 147.398 170.278 147.172C170.823 146.946 171.431 146.916 171.996 147.088C172.561 147.26 173.049 147.622 173.377 148.114C173.705 148.605 173.852 149.195 173.794 149.783C173.735 150.371 173.474 150.92 173.056 151.337C172.579 151.813 171.932 152.081 171.258 152.082ZM171.258 148.386C170.989 148.385 170.729 148.478 170.521 148.648C170.313 148.818 170.17 149.055 170.118 149.319C170.065 149.582 170.106 149.856 170.232 150.093C170.359 150.33 170.564 150.515 170.812 150.618C171.061 150.721 171.337 150.734 171.594 150.655C171.851 150.577 172.073 150.412 172.222 150.188C172.37 149.964 172.437 149.696 172.409 149.428C172.382 149.161 172.263 148.912 172.072 148.722C171.965 148.615 171.838 148.531 171.699 148.473C171.559 148.415 171.409 148.386 171.258 148.386Z" fill="url(#paint4_linear_30_2456)" stroke="black" stroke-width="0.58203" stroke-miterlimit="10" stroke-linecap="round"/>
<path d="M68.125 145.04C68.3036 145.114 68.4916 145.188 68.6934 145.258C68.8952 145.327 69.104 145.397 69.3244 145.462C69.64 145.552 69.9439 145.627 70.2316 145.694C70.5192 145.761 70.7953 145.798 71.0505 145.831" fill="#ECE7E1"/>
<path d="M68.125 145.04C68.3036 145.114 68.4916 145.188 68.6934 145.258C68.8952 145.327 69.104 145.397 69.3244 145.462C69.64 145.552 69.9439 145.627 70.2316 145.694C70.5192 145.761 70.7953 145.798 71.0505 145.831" stroke="black" stroke-width="0.58203" stroke-miterlimit="10" stroke-linecap="round"/>
<path d="M145 132.721C146.515 128.273 147.761 124.622 148.626 122.084L149.979 118.114L151.603 120.17C152.995 121.931 155.547 125.16 160.187 131.034L161.786 117.323L163.382 103.612C163.244 105.136 162.895 106.634 162.345 108.062C161.357 110.718 159.642 113.043 157.396 114.771C156.317 115.6 155.135 116.285 153.879 116.808C151.738 117.715 149.397 118.046 147.088 117.769C143.527 117.328 140.892 115.518 139.11 113.743C137.97 112.617 137.001 111.33 136.235 109.922C137.507 113.258 138.781 116.593 140.059 119.926C141.336 123.259 142.621 126.591 143.912 129.921C144.051 130.278 144.253 130.798 144.453 131.313C144.652 131.828 144.854 132.361 145 132.721Z" fill="#DBCAF4" stroke="black" stroke-width="0.58203" stroke-miterlimit="10" stroke-linecap="round"/>
<path d="M174.095 164.235L171.028 178.111L167.961 191.987" fill="#DBCAF4"/>
<path d="M174.095 164.235L171.028 178.111L167.961 191.987" stroke="black" stroke-width="0.58203" stroke-miterlimit="10" stroke-linecap="round"/>
<path d="M95.6064 64.5939C95.6667 64.536 95.727 64.4734 95.7896 64.4062C95.8522 64.3389 95.9101 64.2717 95.9727 64.1975C96.1168 64.0227 96.25 63.8392 96.3715 63.6481C96.475 63.4842 96.5694 63.3147 96.6543 63.1404" stroke="#070707" stroke-width="0.58203" stroke-miterlimit="10" stroke-linecap="round"/>
<path d="M36.9565 133.368C36.757 132.823 36.6062 132.231 36.4577 131.67C36.3335 131.152 36.1682 130.644 35.9636 130.152C35.604 129.359 35.1771 128.389 34.5925 127.631C34.0078 126.872 33.2654 126.322 32.2724 126.373C32.2724 126.373 31.8525 126.394 31.537 127.018C31.2215 127.642 31.0127 128.874 31.428 131.264C31.7065 132.855 32.1601 134.411 32.7805 135.904C33.4025 137.394 34.1801 138.813 35.1005 140.14L37.5017 143.62L39.9029 147.1C40.1542 147.459 40.3577 147.849 40.5085 148.26C40.6609 148.67 40.7531 149.1 40.7822 149.536C40.855 150.138 40.7173 150.746 40.3925 151.257C40.0352 151.747 39.4018 152.09 38.323 152.097C38.8536 152.7 39.3157 153.36 39.7011 154.065C40.2741 155.148 40.6291 156.433 39.7011 157.241C39.3182 157.608 38.8136 157.821 38.2836 157.839C37.3927 157.867 36.1422 157.357 34.6945 155.199C34.6945 155.199 34.2027 156.415 33.2121 156.92C32.2214 157.426 30.7343 157.22 28.7414 154.368C28.549 154.705 28.2616 154.977 27.9154 155.15C27.5692 155.324 27.1795 155.392 26.7949 155.345C25.4609 155.171 23.4054 153.668 20.517 148.353C20.1164 147.61 19.705 146.873 19.2828 146.142C18.8629 145.411 18.436 144.68 18.0091 143.954C16.631 141.613 14.5291 137.458 13.8447 132.818C13.1603 128.178 13.8656 123.049 18.1019 118.784C19.0263 117.851 20.0909 117.069 21.2571 116.464C22.42 115.859 23.6804 115.462 24.9807 115.293C27.0607 115.017 29.1757 115.363 31.0591 116.288C33.2608 117.36 35.5553 119.357 37.685 122.828C38.4911 124.158 39.2043 125.543 39.8194 126.972C40.8124 129.292 41.6592 132.103 41.0722 134.082C40.9356 134.549 40.636 134.952 40.2277 135.217C40.028 135.348 39.8042 135.439 39.5692 135.483C39.3342 135.527 39.0928 135.524 38.8589 135.474L38.7824 135.456L38.7058 135.433C38.2733 135.299 37.8936 135.033 37.6201 134.672C37.3293 134.276 37.1052 133.836 36.9565 133.368Z" fill="#F2B3C1" stroke="black" stroke-width="0.58203" stroke-miterlimit="10" stroke-linecap="round"/>
<path d="M29.1895 138.06C29.9875 139.554 30.8622 141.097 31.818 142.674C32.7739 144.252 33.8202 145.864 34.9523 147.502C35.5169 148.313 36.0799 149.098 36.6413 149.859C37.2027 150.62 37.7665 151.358 38.3256 152.072" stroke="black" stroke-width="0.58203" stroke-miterlimit="10" stroke-linecap="round"/>
<path d="M25.4268 140.455C25.4268 140.455 27.0508 143.308 29.0297 146.575C31.0087 149.841 33.3194 153.519 34.6952 155.159" stroke="black" stroke-width="0.58203" stroke-miterlimit="10" stroke-linecap="round"/>
<path d="M21.8926 142.709L25.3169 148.528L28.7412 154.346" stroke="black" stroke-width="0.58203" stroke-miterlimit="10" stroke-linecap="round"/>
<path d="M53.6592 85.5205C54.5454 87.2141 55.4154 89.0167 56.246 90.9284C57.0765 92.8401 57.87 94.8724 58.6008 96.9929C61.0225 104.07 62.4825 111.441 62.9415 118.908C63.2987 124.708 63.0991 130.529 62.3453 136.291" stroke="black" stroke-width="0.58203" stroke-miterlimit="10" stroke-linecap="round"/>
<path d="M74.8767 79.1992C74.7145 79.5369 74.5908 79.8918 74.5078 80.2571C74.3811 80.8093 74.3544 81.3798 74.4289 81.9414C74.559 82.8715 74.9582 83.7432 75.5773 84.4493C75.9076 84.8364 76.2911 85.1746 76.7164 85.4539C76.5923 85.8734 76.5298 86.3087 76.5308 86.7461C76.5201 87.5345 76.7382 88.3091 77.1586 88.9761C77.579 89.6432 78.1837 90.174 78.8996 90.5045C79.5837 90.8243 80.3391 90.961 81.092 90.9012C81.0933 91.36 81.1669 91.8156 81.31 92.2515C81.5814 93.1491 82.1638 93.9206 82.9526 94.4276C83.5543 94.8084 84.2461 95.0229 84.9576 95.0494C85.6691 95.0759 86.375 94.9134 87.0033 94.5784C87.1175 94.9969 87.2665 95.4051 87.4488 95.7988C87.6931 96.3249 87.9967 96.8215 88.3536 97.2789C88.5602 97.544 88.785 97.7943 89.0264 98.0283C89.2283 98.2258 89.4413 98.4117 89.6644 98.5851" fill="#F6C34C"/>
<path d="M74.8767 79.1992C74.7145 79.5369 74.5908 79.8918 74.5078 80.2571C74.3811 80.8093 74.3544 81.3798 74.4289 81.9414C74.559 82.8715 74.9582 83.7432 75.5773 84.4493C75.9076 84.8364 76.2911 85.1746 76.7164 85.4539C76.5923 85.8734 76.5298 86.3087 76.5308 86.7461C76.5201 87.5345 76.7382 88.3091 77.1586 88.9761C77.579 89.6432 78.1837 90.174 78.8996 90.5045C79.5837 90.8243 80.3391 90.961 81.092 90.9012C81.0933 91.36 81.1669 91.8156 81.31 92.2515C81.5814 93.1491 82.1638 93.9206 82.9526 94.4276C83.5543 94.8084 84.2461 95.0229 84.9576 95.0494C85.6691 95.0759 86.375 94.9134 87.0033 94.5784C87.1175 94.9969 87.2665 95.4051 87.4488 95.7988C87.6931 96.3249 87.9967 96.8215 88.3536 97.2789C88.5602 97.544 88.785 97.7943 89.0264 98.0283C89.2283 98.2258 89.4413 98.4117 89.6644 98.5851" stroke="#070707" stroke-width="0.58203" stroke-miterlimit="10" stroke-linecap="round"/>
<path d="M50.4131 160.329L55.1528 154.552L59.8903 148.775" fill="#F6C34C"/>
<path d="M50.4131 160.329L55.1528 154.552L59.8903 148.775" stroke="#070707" stroke-width="0.58203" stroke-miterlimit="10" stroke-linecap="round"/>
<path d="M90.5098 85.9885C90.6734 86.3135 90.9119 86.5951 91.2058 86.8097C91.6906 87.1647 92.4539 87.4106 93.5652 86.9698" stroke="black" stroke-width="0.58203" stroke-miterlimit="10" stroke-linecap="round"/>
<path d="M145.092 115.085C145.367 114.568 145.753 114.117 146.222 113.765C146.703 113.401 147.266 113.159 147.861 113.06C148.457 112.961 149.068 113.007 149.641 113.195C150.231 113.382 150.773 113.694 151.233 114.109" stroke="black" stroke-width="0.58203" stroke-miterlimit="10" stroke-linecap="round"/>
<path d="M60.9594 178.905C60.69 179.206 60.4565 179.538 60.2634 179.893C59.9631 180.438 59.7649 181.033 59.6787 181.649C59.6302 182.006 59.6201 182.367 59.6486 182.726C59.6705 183 59.7139 183.272 59.7785 183.54" stroke="black" stroke-width="0.58203" stroke-miterlimit="10" stroke-linecap="round"/>
<path d="M58.3213 177.956C58.0267 178.297 57.7836 178.679 57.5998 179.09C57.1597 180.031 57.0087 181.08 57.166 182.106" stroke="black" stroke-width="0.58203" stroke-miterlimit="10" stroke-linecap="round"/>
<path d="M50.2227 178.549C50.2599 178.325 50.3142 178.104 50.3851 177.888C50.469 177.624 50.5762 177.369 50.7052 177.125C51.0071 176.549 51.4213 176.04 51.9232 175.628C52.2517 175.356 52.6106 175.122 52.9927 174.932" stroke="black" stroke-width="0.58203" stroke-miterlimit="10" stroke-linecap="round"/>
<path d="M48.6562 176.607C48.7268 176.313 48.8223 176.026 48.9416 175.748C49.1063 175.363 49.3149 174.998 49.5634 174.66C49.8442 174.28 50.1742 173.938 50.5447 173.644C50.8024 173.439 51.0781 173.257 51.3683 173.101" stroke="black" stroke-width="0.58203" stroke-miterlimit="10" stroke-linecap="round"/>
<defs>
<linearGradient id="paint0_linear_30_2456" x1="164.51" y1="132.141" x2="164.51" y2="144.999" gradientUnits="userSpaceOnUse">
<stop offset="0.26" stop-color="#FEC2D9"/>
<stop offset="0.75" stop-color="#A4C2FF"/>
</linearGradient>
<linearGradient id="paint1_linear_30_2456" x1="36.2941" y1="65.8313" x2="36.2941" y2="81.5215" gradientUnits="userSpaceOnUse">
<stop offset="0.31" stop-color="#FEC2D9"/>
<stop offset="0.75" stop-color="#A4C2FF"/>
</linearGradient>
<linearGradient id="paint2_linear_30_2456" x1="170.09" y1="48.7845" x2="170.09" y2="62.3681" gradientUnits="userSpaceOnUse">
<stop offset="0.31" stop-color="#FEC2D9"/>
<stop offset="0.88" stop-color="#A4C2FF"/>
</linearGradient>
<linearGradient id="paint3_linear_30_2456" x1="27.0051" y1="82.3994" x2="27.0051" y2="90.5356" gradientUnits="userSpaceOnUse">
<stop offset="0.31" stop-color="#FEC2D9"/>
<stop offset="0.75" stop-color="#A4C2FF"/>
</linearGradient>
<linearGradient id="paint4_linear_30_2456" x1="171.258" y1="146.994" x2="171.258" y2="152.082" gradientUnits="userSpaceOnUse">
<stop offset="0.22" stop-color="#FEC2D9"/>
<stop offset="0.75" stop-color="#A4C2FF"/>
</linearGradient>
</defs>
</svg>
