<svg width="51" height="52" viewBox="0 0 51 52" fill="none" xmlns="http://www.w3.org/2000/svg">
<g filter="url(#filter0_d_6_161)">
<g clip-path="url(#clip0_6_161)">
<rect x="1" width="49" height="50" rx="12" fill="#039BE5"/>
<path d="M26 15.5C23.4804 15.5 21.0641 16.5009 19.2825 18.2825C17.5009 20.0641 16.5 22.4804 16.5 25C16.5 27.5196 17.5009 29.9359 19.2825 31.7175C21.0641 33.4991 23.4804 34.5 26 34.5C28.5196 34.5 30.9359 33.4991 32.7175 31.7175C34.4991 29.9359 35.5 27.5196 35.5 25C35.5 22.4804 34.4991 20.0641 32.7175 18.2825C30.9359 16.5009 28.5196 15.5 26 15.5Z" fill="#039BE5"/>
<path d="M26.3809 25.752H29.4827L29.9697 22.444H26.3803V20.6359C26.3803 19.2617 26.808 18.0431 28.0324 18.0431H30V15.1563C29.6543 15.1073 28.9232 15 27.5416 15C24.6568 15 22.9656 16.5994 22.9656 20.2432V22.444H20V25.752H22.9656V34.8444C23.5529 34.9371 24.1477 35 24.7584 35C25.3104 35 25.8491 34.947 26.3809 34.8715V25.752Z" fill="white"/>
</g>
<rect x="1.5" y="0.5" width="48" height="49" rx="11.5" stroke="#272727" stroke-opacity="0.1"/>
</g>
<defs>
<filter id="filter0_d_6_161" x="0" y="0" width="51" height="52" filterUnits="userSpaceOnUse" color-interpolation-filters="sRGB">
<feFlood flood-opacity="0" result="BackgroundImageFix"/>
<feColorMatrix in="SourceAlpha" type="matrix" values="0 0 0 0 0 0 0 0 0 0 0 0 0 0 0 0 0 0 127 0" result="hardAlpha"/>
<feOffset dy="1"/>
<feGaussianBlur stdDeviation="0.5"/>
<feComposite in2="hardAlpha" operator="out"/>
<feColorMatrix type="matrix" values="0 0 0 0 0 0 0 0 0 0 0 0 0 0 0 0 0 0 0.1 0"/>
<feBlend mode="normal" in2="BackgroundImageFix" result="effect1_dropShadow_6_161"/>
<feBlend mode="normal" in="SourceGraphic" in2="effect1_dropShadow_6_161" result="shape"/>
</filter>
<clipPath id="clip0_6_161">
<rect x="1" width="49" height="50" rx="12" fill="white"/>
</clipPath>
</defs>
</svg>
