<svg width="244" height="182" viewBox="0 0 244 182" fill="none" xmlns="http://www.w3.org/2000/svg">
<path d="M98.6062 181.443C106.156 181.201 112.973 181.056 118.888 180.968C124.804 180.881 129.82 180.857 133.758 180.851C156.284 180.823 173.178 180.799 184.633 180.796C196.088 180.793 202.103 180.796 202.869 180.851C208.197 181.153 211.524 181.255 214.1 181.123C216.386 181.012 218.649 180.625 220.842 179.971C230.765 177.219 236.108 169.485 239.038 160.315C241.969 151.146 242.489 140.541 242.765 132.054C242.831 129.97 242.934 126.779 242.931 123.051C242.928 119.323 242.81 115.06 242.444 110.83C241.751 102.866 240.888 92.9593 238.23 83.2067C235.572 73.4541 231.116 63.8706 223.242 56.532C217.706 51.3808 211.678 48.4622 204.11 46.5256C196.542 44.589 187.424 43.6312 175.715 42.4016C165.402 41.2907 154.993 41.4094 144.708 42.7551C138.984 43.4999 133.331 44.7125 127.807 46.3806C125.243 47.1631 122.854 47.8912 120.466 48.7825C117.935 49.7168 115.48 50.8461 113.125 52.1602C103.774 57.387 97.2137 64.7951 92.6244 72.1005C88.0352 79.4059 85.4227 86.5754 83.9605 91.349L81.3874 102.035L78.8173 112.724L68.0102 99.4701L57.2212 86.2279L40.8743 100.763L24.5273 115.295L25.7382 116.842C26.1227 117.326 26.4769 117.779 26.8038 118.193L27.3154 118.848C27.6181 119.232 28.0117 119.737 28.378 120.208C29.5888 121.761 35.946 131.142 43.3959 141.384C50.8459 151.626 59.3281 162.729 64.8044 167.732C65.1979 168.092 65.7277 168.56 66.3967 169.074C67.1674 169.666 67.9764 170.207 68.8184 170.693C69.8614 171.282 70.9496 171.787 72.0727 172.204C74.4771 173.157 77.0356 173.665 79.6225 173.702C84.276 173.651 88.7748 172.028 92.3853 169.098C96.1934 166.01 98.9034 161.78 100.114 157.034C99.8635 161.101 99.6132 165.168 99.363 169.237L98.6062 181.443Z" fill="#84A1E5" stroke="black" stroke-width="0.964984" stroke-miterlimit="10" stroke-linecap="round"/>
<path d="M143.94 75.3859L138.848 128.119L133.763 180.849H151.896H170.026L156.981 128.119L143.94 75.3859Z" fill="#FFF8F8" stroke="black" stroke-width="0.964984" stroke-miterlimit="10" stroke-linecap="round"/>
<path d="M137.538 63.5201L140.735 69.4539L143.938 75.3876L146.084 68.6986L148.23 62.0095L142.884 62.7648L137.538 63.5201Z" fill="#FFF8F8" stroke="black" stroke-width="0.964984" stroke-miterlimit="10" stroke-linecap="round"/>
<path d="M78.8076 112.708L83.2758 118.473L87.7439 124.237C87.7735 124.275 87.8158 124.302 87.8633 124.312C87.9108 124.322 87.9603 124.314 88.0028 124.291C88.0453 124.268 88.078 124.23 88.0949 124.184C88.1118 124.139 88.1119 124.089 88.0951 124.044C86.8842 120.767 85.6814 117.489 84.4867 114.21C83.2919 110.93 82.0891 107.653 80.8782 104.378L79.8429 108.542L78.8076 112.708Z" fill="black" stroke="black" stroke-width="0.964984" stroke-miterlimit="10" stroke-linecap="round"/>
<path d="M103.089 111.292C102.598 119.199 102.109 127.105 101.621 135.009C101.132 142.912 100.643 150.818 100.152 158.725" stroke="black" stroke-width="0.964984" stroke-miterlimit="10" stroke-linecap="round"/>
<path d="M127.8 46.3746L123.649 47.6918L122.229 48.145C122.229 48.145 121.821 53.9821 121.227 62.4779C120.634 70.9736 119.85 82.1311 119.108 92.775L131.52 84.0798L143.932 75.3847L135.864 60.8826L127.8 46.3746Z" fill="#6391FF" stroke="black" stroke-width="0.964984" stroke-miterlimit="10" stroke-linecap="round"/>
<path d="M155.72 41.7774L149.829 58.5907C147.868 64.1921 145.904 69.7935 143.938 75.3949L159.183 83.365L174.429 91.3381C173.623 88.3743 170.245 75.9297 167.063 64.2344L160.906 41.575L158.351 41.6777L155.72 41.7774Z" fill="#104FC1" stroke="black" stroke-width="0.964984" stroke-miterlimit="10" stroke-linecap="round"/>
<path d="M160.863 24.39L152.317 26.5653L143.771 28.7406C144.495 30.9987 145.513 33.1522 146.799 35.1457C149.565 39.4603 153.665 42.7578 158.478 44.5388C159.835 45.041 161.234 45.4231 162.658 45.6808C163.22 43.8096 163.589 41.8862 163.76 39.9404C164.082 36.2312 163.703 32.4946 162.643 28.9249C162.177 27.3667 161.581 25.8498 160.863 24.39Z" fill="black" stroke="black" stroke-width="0.964984" stroke-miterlimit="10" stroke-linecap="round"/>
<path d="M155.335 43.102C154.769 42.7999 154.324 42.4978 153.979 42.2742C153.634 42.0506 153.374 41.8512 153.216 41.7153L152.874 41.4313L152.614 41.2016L152.847 41.2168H153.119H153.352C153.495 41.2168 153.682 41.2016 153.87 41.1775C154.901 41.0701 155.89 40.7147 156.753 40.1417C157.617 39.5686 158.327 38.7951 158.825 37.8876C159.322 36.98 159.592 35.9655 159.61 34.9311C159.628 33.8967 159.395 32.8734 158.929 31.949C158.464 31.0246 157.781 30.2267 156.938 29.6238C156.096 29.0209 155.12 28.6311 154.093 28.4877C153.066 28.3443 152.02 28.4518 151.045 28.8008C150.069 29.1497 149.192 29.7299 148.491 30.4913C147.445 31.6153 146.819 33.0639 146.717 34.5942C146.414 34.2074 146.111 33.7663 145.809 33.2709C145.47 32.7338 145.161 32.1791 144.882 31.6092C144.628 31.0865 144.413 30.5789 144.231 30.0985C144.05 29.6182 143.904 29.165 143.783 28.748L129.198 32.4581L114.616 36.1682C114.616 36.7453 114.631 37.3254 114.665 37.9085C114.698 38.4916 114.746 39.0777 114.816 39.6668C115.694 47.0599 119.224 53.4287 124.222 57.7491C129.219 62.0695 135.68 64.3475 142.427 63.5499C147.168 62.9823 151.612 60.9523 155.141 57.743C158.711 54.4867 161.321 50.3181 162.688 45.6882C161.795 45.5221 160.911 45.3103 160.039 45.0538C159.258 44.8211 158.586 44.5824 158.029 44.3619C157.727 44.241 157.324 44.0779 156.873 43.8724C156.422 43.667 155.883 43.4011 155.335 43.102Z" fill="#FFC0C0" stroke="black" stroke-width="0.964984" stroke-miterlimit="10" stroke-linecap="round"/>
<path d="M149.669 42.7478C149.762 43.5342 149.579 44.3285 149.151 44.9954C148.723 45.6623 148.077 46.1605 147.323 46.4051C146.568 46.6498 145.752 46.6258 145.013 46.3372C144.274 46.0485 143.658 45.5132 143.27 44.8223C142.883 44.1314 142.747 43.3277 142.886 42.5482C143.026 41.7686 143.432 41.0614 144.035 40.547C144.638 40.0326 145.401 39.7429 146.195 39.7271C146.988 39.7114 147.762 39.9706 148.385 40.4607C148.74 40.7384 149.036 41.0835 149.257 41.476C149.477 41.8686 149.617 42.3008 149.669 42.7478Z" fill="#EF3F3F" stroke="black" stroke-width="0.964984" stroke-miterlimit="10" stroke-linecap="round"/>
<path d="M132.164 55.9495C132.257 56.7359 132.074 57.5302 131.646 58.1971C131.219 58.864 130.572 59.3622 129.818 59.6068C129.063 59.8515 128.247 59.8275 127.508 59.5389C126.769 59.2503 126.153 58.7149 125.766 58.024C125.378 57.3331 125.242 56.5294 125.381 55.7499C125.521 54.9703 125.927 54.2631 126.53 53.7487C127.133 53.2343 127.897 52.9446 128.69 52.9288C129.483 52.9131 130.257 53.1723 130.881 53.6624C131.235 53.9405 131.531 54.2858 131.751 54.6782C131.971 55.0707 132.112 55.5027 132.164 55.9495Z" fill="#EF3F3F" stroke="black" stroke-width="0.964984" stroke-miterlimit="10" stroke-linecap="round"/>
<path d="M126.462 48.0958C126.491 48.2791 126.482 48.4663 126.437 48.6462C126.391 48.826 126.31 48.9949 126.198 49.1427C126.085 49.2905 125.944 49.4142 125.783 49.5064C125.622 49.5986 125.444 49.6575 125.259 49.6794C125.074 49.7013 124.887 49.6859 124.709 49.6341C124.53 49.5822 124.364 49.4951 124.22 49.3777C124.076 49.2604 123.958 49.1153 123.871 48.9511C123.784 48.7869 123.732 48.607 123.717 48.4221C123.688 48.2389 123.697 48.0517 123.742 47.8718C123.788 47.692 123.869 47.5231 123.981 47.3753C124.094 47.2275 124.235 47.1038 124.396 47.0116C124.557 46.9194 124.735 46.8605 124.92 46.8386C125.105 46.8167 125.292 46.8321 125.47 46.8839C125.649 46.9357 125.815 47.0229 125.959 47.1403C126.103 47.2576 126.222 47.4027 126.308 47.5669C126.395 47.7311 126.447 47.911 126.462 48.0958Z" fill="black"/>
<path d="M139.002 40.8829C139.035 41.154 138.985 41.4285 138.861 41.6718C138.737 41.9151 138.544 42.1163 138.305 42.2497C138.066 42.3832 137.793 42.4431 137.521 42.4218C137.248 42.4005 136.988 42.299 136.773 42.1301C136.558 41.9612 136.398 41.7325 136.313 41.4729C136.228 41.2133 136.223 40.9344 136.297 40.6716C136.371 40.4088 136.521 40.1737 136.729 39.9962C136.937 39.8187 137.193 39.7067 137.465 39.6743C137.645 39.6528 137.828 39.667 138.003 39.7162C138.178 39.7653 138.342 39.8483 138.484 39.9605C138.627 40.0728 138.746 40.212 138.835 40.3702C138.924 40.5285 138.981 40.7027 139.002 40.8829Z" fill="black"/>
<path d="M122.912 40.764C123.893 39.8854 124.935 39.0776 126.03 38.347C129.432 36.0701 133.303 34.5873 137.358 34.0085" stroke="black" stroke-width="0.964984" stroke-miterlimit="10" stroke-linecap="round"/>
<path d="M126.336 38.642L129.294 44.4851L132.254 50.3252L133.044 49.8418L133.834 49.3614" stroke="black" stroke-width="0.964984" stroke-miterlimit="10" stroke-linecap="round"/>
<path d="M136.056 9.99211C129.847 10.7293 124.483 13.9379 120.671 18.6299C116.704 23.6076 114.567 29.7928 114.617 36.1532L137.748 30.2738L160.879 24.3914C158.611 19.726 155.036 15.8176 150.586 13.1403C146.225 10.5147 141.115 9.40742 136.056 9.99211Z" fill="#F6C34C" stroke="black" stroke-width="0.964984" stroke-miterlimit="10" stroke-linecap="round"/>
<path d="M151.373 37.1758L153.168 35.2875L154.966 33.3962" stroke="black" stroke-width="0.964984" stroke-miterlimit="10" stroke-linecap="round"/>
<path d="M123.383 33.9255C124.137 36.3521 124.143 38.9486 123.402 41.3789C122.703 43.6939 121.263 45.7166 119.303 47.1374C118.567 47.6636 117.765 48.0903 116.917 48.4063C114.207 49.4047 111.214 49.3148 108.568 48.1556C107.22 47.5622 106.02 46.6766 105.057 45.5629C104.094 44.4493 103.392 43.1356 103.001 41.7173C102.762 40.8466 102.651 39.946 102.671 39.0435C102.741 37.0735 103.355 35.161 104.445 33.5176C105.556 31.8559 107.17 30.5598 109.171 30.1489C110.381 29.9165 111.631 29.9945 112.803 30.3755C113.573 30.6196 114.309 30.9607 114.992 31.3906C114.913 31.8529 114.841 32.3423 114.78 32.8529C114.72 33.3635 114.674 33.8983 114.641 34.4542C114.626 34.7563 114.614 35.0584 114.608 35.3364C114.601 35.6143 114.608 35.9044 114.608 36.1763L119 35.0584L123.383 33.9255Z" fill="black" stroke="black" stroke-width="0.964984" stroke-miterlimit="10" stroke-linecap="round"/>
<path d="M115.879 27.6331L136.288 22.9139L156.701 18.1947" stroke="black" stroke-width="0.964984" stroke-miterlimit="10" stroke-linecap="round"/>
<path d="M122.05 26.2064L122.516 30.1159L122.979 34.0254" stroke="black" stroke-width="0.964984" stroke-miterlimit="10" stroke-linecap="round"/>
<path d="M130.125 24.3977L130.564 28.0957L131.003 31.7907" stroke="black" stroke-width="0.964984" stroke-miterlimit="10" stroke-linecap="round"/>
<path d="M139.986 22.219L140.416 25.8506L140.849 29.4821" stroke="black" stroke-width="0.964984" stroke-miterlimit="10" stroke-linecap="round"/>
<path d="M150.016 19.8885L150.421 23.3237L150.83 26.7588" stroke="black" stroke-width="0.964984" stroke-miterlimit="10" stroke-linecap="round"/>
<path d="M143.065 47.9324C142.984 47.8222 142.88 47.7305 142.76 47.6633C142.641 47.5961 142.508 47.555 142.372 47.5427C142.236 47.5288 142.099 47.5443 141.97 47.5881C141.841 47.6319 141.723 47.703 141.624 47.7965L139.98 49.3313C139.435 49.8449 138.889 50.3565 138.34 50.8661C138.042 52.0506 137.966 53.2794 138.113 54.4916C138.214 55.4233 138.417 56.3412 138.718 57.2288C139.514 57.2345 140.303 57.0825 141.04 56.7817C141.766 56.4861 142.415 56.0295 142.938 55.4463C143.803 54.443 144.283 53.1655 144.291 51.842C144.319 50.4404 143.889 49.068 143.065 47.9324Z" fill="#EF3F3F" stroke="black" stroke-width="0.964984" stroke-miterlimit="10" stroke-linecap="round"/>
<path d="M134.671 54.3047C134.572 54.3993 134.493 54.5139 134.441 54.641C134.389 54.768 134.364 54.9047 134.369 55.0419C134.37 55.1797 134.402 55.3155 134.461 55.4401C134.52 55.5647 134.605 55.6752 134.711 55.764C135.839 56.7119 137.265 57.2337 138.74 57.2384C138.439 56.3508 138.236 55.4329 138.135 54.5011C137.987 53.2889 138.064 52.0601 138.362 50.8756L136.527 52.5947L134.671 54.3047Z" fill="black" stroke="black" stroke-width="0.964984" stroke-miterlimit="10" stroke-linecap="round"/>
<path d="M131.554 117.069C131.551 117.45 131.415 117.819 131.169 118.111C130.924 118.403 130.584 118.601 130.209 118.671C129.833 118.742 129.445 118.68 129.11 118.496C128.775 118.312 128.515 118.019 128.373 117.665C128.231 117.311 128.217 116.918 128.332 116.555C128.448 116.191 128.686 115.879 129.007 115.672C129.327 115.464 129.71 115.374 130.089 115.417C130.469 115.459 130.822 115.632 131.088 115.906C131.392 116.217 131.56 116.635 131.554 117.069Z" fill="black" stroke="black" stroke-width="0.964984" stroke-miterlimit="10" stroke-linecap="round"/>
<path d="M128.821 148.645C128.822 148.916 128.755 149.182 128.627 149.421C128.499 149.661 128.315 149.864 128.089 150.015C127.863 150.166 127.604 150.259 127.334 150.285C127.064 150.312 126.791 150.272 126.54 150.168C126.289 150.065 126.068 149.901 125.896 149.691C125.724 149.482 125.606 149.233 125.553 148.967C125.5 148.702 125.514 148.427 125.593 148.168C125.672 147.909 125.814 147.673 126.006 147.481C126.237 147.252 126.53 147.095 126.85 147.032C127.17 146.968 127.501 147.001 127.802 147.125C128.104 147.25 128.361 147.461 128.542 147.731C128.724 148.001 128.821 148.319 128.821 148.645Z" fill="black" stroke="black" stroke-width="0.964984" stroke-miterlimit="10" stroke-linecap="round"/>
<path d="M202.87 180.848C192.133 179.854 182.092 160.605 174.717 141.571C167.343 122.537 162.699 103.787 162.699 103.787L182.785 94.2041L202.87 84.6237L211.649 105.585L220.428 126.544" stroke="black" stroke-width="0.964984" stroke-miterlimit="10" stroke-linecap="round"/>
<path d="M175.144 72.5198L165.294 71.408L155.431 70.2962C155.051 70.2533 154.683 70.1362 154.349 69.9515C154.014 69.7668 153.719 69.518 153.481 69.2195C153.242 68.921 153.065 68.5786 152.959 68.2117C152.853 67.8449 152.821 67.4608 152.864 67.0815L155.21 46.3467L157.556 25.6118C157.644 24.8458 158.032 24.1457 158.636 23.6649C159.239 23.1841 160.01 22.9618 160.777 23.0467L170.631 24.1465L180.49 25.2583C180.871 25.3011 181.238 25.4182 181.573 25.603C181.908 25.7877 182.203 26.0364 182.441 26.3349C182.68 26.6334 182.857 26.9759 182.962 27.3427C183.068 27.7096 183.1 28.0936 183.058 28.4729L180.711 49.2229L178.365 69.9608C178.322 70.3401 178.205 70.7073 178.02 71.0413C177.835 71.3754 177.586 71.6697 177.287 71.9077C176.987 72.1456 176.644 72.3223 176.277 72.4279C175.909 72.5334 175.524 72.5657 175.144 72.5228V72.5198Z" fill="#D1B7E5" stroke="black" stroke-width="0.964984" stroke-miterlimit="10" stroke-linecap="round"/>
<path d="M178.487 33.0715C178.489 33.5388 178.329 33.9924 178.034 34.3551C177.739 34.7178 177.327 34.9673 176.868 35.061C176.409 35.1547 175.932 35.0869 175.518 34.8692C175.104 34.6514 174.778 34.2971 174.596 33.8666C174.414 33.4361 174.387 32.9559 174.52 32.5078C174.652 32.0597 174.937 31.6714 175.324 31.4088C175.711 31.1463 176.178 31.0258 176.644 31.0678C177.11 31.1099 177.548 31.3119 177.881 31.6395C178.072 31.8265 178.224 32.0493 178.328 32.2951C178.432 32.5409 178.486 32.8048 178.487 33.0715Z" fill="black" stroke="black" stroke-width="0.964984" stroke-miterlimit="10" stroke-linecap="round"/>
<path d="M177.746 40.3752C177.749 40.8441 177.589 41.2994 177.293 41.6637C176.997 42.0279 176.584 42.2786 176.123 42.3729C175.663 42.4672 175.185 42.3994 174.769 42.181C174.353 41.9626 174.026 41.6072 173.843 41.1752C173.661 40.7432 173.634 40.2613 173.767 39.8117C173.9 39.3621 174.186 38.9725 174.575 38.7093C174.963 38.4461 175.432 38.3256 175.9 38.3682C176.367 38.4108 176.806 38.614 177.141 38.9431C177.331 39.1304 177.482 39.3532 177.586 39.599C177.69 39.8447 177.745 40.1085 177.746 40.3752Z" fill="black" stroke="black" stroke-width="0.964984" stroke-miterlimit="10" stroke-linecap="round"/>
<path d="M183.277 32.8104C183.468 32.5903 183.693 32.4017 183.943 32.2515C184.188 32.1056 184.459 32.01 184.742 31.9705C184.888 31.9553 185.035 31.9553 185.181 31.9705C185.534 32.0063 185.877 32.1088 186.192 32.2726C187.705 33.0581 188.496 35.7259 188.898 38.2003C189.146 39.7712 189.288 41.3569 189.322 42.9467C189.356 46.6146 189.66 50.2751 190.23 53.8987C190.769 57.4276 191.517 61.0078 192.383 65.1559C192.383 65.1559 192.513 65.7602 193.427 68.724C194.341 71.6879 196.051 76.9842 199.2 86.3863C197.674 87.1114 196.145 87.8395 194.614 88.5707L190.018 90.7671C186.311 92.5476 182.617 94.3292 178.936 96.1117C175.255 97.8943 171.591 99.6808 167.944 101.471C163.197 95.731 159.165 90.5949 156.023 86.4497C152.88 82.3046 150.607 79.1051 149.381 77.2168C148.835 76.3357 148.356 75.4146 147.949 74.4614C147.259 72.845 146.614 70.7604 146.808 68.8721C146.851 68.4448 146.923 68.0209 147.023 67.6032C147.111 67.2346 147.207 66.9294 147.286 66.6968C146.771 66.1789 146.329 65.5923 145.975 64.9535C145.309 63.7906 145.007 62.4554 145.107 61.1195C145.169 60.3674 145.36 59.6315 145.673 58.9442C145.885 58.4785 146.147 58.0368 146.454 57.627C146.206 57.2417 146.013 56.8237 145.882 56.3852C145.603 55.5053 145.598 54.5616 145.869 53.6791C146.139 52.7966 146.671 52.0166 147.395 51.4425C147.784 51.1176 148.22 50.8538 148.688 50.66C148.393 49.8946 148.325 49.061 148.491 48.2581C148.642 47.5001 149.031 46.8099 149.602 46.2882C150.288 45.6915 151.171 45.3687 152.081 45.3818C153.054 45.3855 153.996 45.7189 154.754 46.3275C154.873 46.421 154.985 46.522 155.09 46.6296C155.199 46.7384 155.299 46.8532 155.393 46.971C156.294 48.0387 157.272 49.0384 158.32 49.9621C159.625 51.1107 161.036 52.1335 162.534 53.0165C165.689 54.8595 169.176 56.0657 172.796 56.5665C175.139 56.8976 177.512 56.9554 179.868 56.7387C180.473 51.9259 180.758 49.4061 180.915 48.0889C181.073 46.7716 181.076 46.6598 181.076 46.6598C181.182 45.0344 181.321 43.5177 181.527 41.6959C181.733 39.8741 181.996 37.7683 182.353 34.9313C182.4 34.5392 182.502 34.1557 182.656 33.7923C182.81 33.4346 183.02 33.1033 183.277 32.8104Z" fill="#F2B3C1" stroke="black" stroke-width="0.964984" stroke-miterlimit="10" stroke-linecap="round"/>
<path d="M148.677 50.6456C150.047 52.5849 151.553 54.4245 153.184 56.1504C155.93 59.0659 159.666 62.3137 163.613 63.628" stroke="black" stroke-width="0.964984" stroke-miterlimit="10" stroke-linecap="round"/>
<path d="M146.456 57.6163C147.845 59.4635 149.338 61.2307 150.927 62.9095C153.564 65.6951 157 68.7617 160.2 69.8795" stroke="black" stroke-width="0.964984" stroke-miterlimit="10" stroke-linecap="round"/>
<path d="M147.287 66.6869C147.287 66.6869 148.822 68.4422 150.92 70.4665C153.018 72.4907 155.639 74.7778 157.837 75.8443" stroke="black" stroke-width="0.964984" stroke-miterlimit="10" stroke-linecap="round"/>
<path d="M91.7998 1H49.0011C47.6737 1.0016 46.4011 1.5286 45.4624 2.4654C44.5238 3.4022 43.9957 4.67232 43.9941 5.99715V29.7895C43.9941 31.1149 44.5217 32.3859 45.4607 33.3231C46.3997 34.2602 47.6732 34.7867 49.0011 34.7867H68.4843L74.2965 40.5845L80.1057 46.3792L79.0795 40.5845L78.0533 34.7867H91.7998C93.1278 34.7867 94.4013 34.2602 95.3403 33.3231C96.2793 32.3859 96.8068 31.1149 96.8068 29.7895V5.99715C96.8052 4.67232 96.2772 3.4022 95.3385 2.4654C94.3999 1.5286 93.1273 1.0016 91.7998 1Z" fill="#14AF6C" stroke="black" stroke-width="0.964984" stroke-miterlimit="10" stroke-linecap="round"/>
<path d="M61.2542 18.906C61.2549 19.6351 61.0023 20.3419 60.5394 20.9059C60.0765 21.4699 59.432 21.8563 58.7156 21.9992C57.9993 22.1421 57.2554 22.0326 56.6109 21.6895C55.9663 21.3464 55.4609 20.7908 55.1808 20.1175C54.9007 19.4441 54.8632 18.6946 55.0747 17.9968C55.2862 17.2989 55.7336 16.6959 56.3407 16.2904C56.9478 15.8848 57.677 15.702 58.404 15.7729C59.1311 15.8438 59.811 16.1642 60.3279 16.6793C60.6216 16.9714 60.8546 17.3184 61.0136 17.7005C61.1725 18.0826 61.2543 18.4923 61.2542 18.906Z" fill="#F7CE21" stroke="black" stroke-width="0.964984" stroke-miterlimit="10" stroke-linecap="round"/>
<path d="M85.8592 18.9069C85.8552 19.6346 85.5983 20.3385 85.1325 20.8984C84.6667 21.4583 84.0207 21.8397 83.3046 21.9775C82.5886 22.1153 81.8469 22.001 81.2058 21.6541C80.5648 21.3072 80.0641 20.7491 79.7892 20.075C79.5143 19.401 79.4821 18.6526 79.6981 17.9575C79.9142 17.2624 80.3651 16.6635 80.974 16.2631C81.5829 15.8626 82.3121 15.6853 83.0373 15.7614C83.7625 15.8374 84.4389 16.1622 84.9511 16.6802C85.2416 16.9736 85.4714 17.3212 85.6272 17.7033C85.783 18.0854 85.8619 18.4944 85.8592 18.9069Z" fill="#F7CE21" stroke="black" stroke-width="0.964984" stroke-miterlimit="10" stroke-linecap="round"/>
<path d="M73.5722 18.9081C73.5716 19.6356 73.3184 20.3404 72.8555 20.9025C72.3927 21.4646 71.749 21.8491 71.034 21.9907C70.3189 22.1322 69.5769 22.022 68.9341 21.6787C68.2914 21.3355 67.7878 20.7805 67.509 20.1083C67.2303 19.4361 67.1937 18.6882 67.4054 17.992C67.6172 17.2959 68.0642 16.6945 68.6703 16.2904C69.2765 15.8863 70.0042 15.7043 70.7297 15.7756C71.4551 15.8469 72.1334 16.167 72.6489 16.6814C73.2401 17.2722 73.5722 18.0731 73.5722 18.9081Z" fill="#F7CE21" stroke="black" stroke-width="0.964984" stroke-miterlimit="10" stroke-linecap="round"/>
<path d="M26.4966 72.6274C25.3842 71.5339 24.3861 70.3303 23.5178 69.0351C22.7489 67.9082 22.1647 66.89 21.647 66.1075C20.0288 63.6692 18.5394 61.148 17.1849 58.5544C15.8283 55.9629 14.6559 53.2795 13.6764 50.5239C13.4371 49.7944 13.1184 49.0933 12.7258 48.4332C12.2101 47.5112 11.3972 46.7903 10.4191 46.3878C10.1757 46.2973 9.92283 46.2345 9.66532 46.2005C9.24504 46.1433 8.8172 46.1836 8.41508 46.3183C7.79034 46.5427 7.25795 46.9678 6.90148 47.5268C6.49284 48.1632 6.2446 48.8888 6.17798 49.6417C5.76707 49.718 5.3694 49.8534 4.99737 50.0435C4.74113 50.1738 4.50131 50.3341 4.28294 50.5209C3.52998 51.198 3.03659 52.1156 2.8874 53.1161C2.70138 54.2735 2.80538 55.4589 3.19012 56.5664C3.01934 56.6548 2.85541 56.7558 2.69971 56.8685C2.55681 56.975 2.42222 57.0922 2.29709 57.219C0.810734 58.7055 0.898523 61.2675 1.38893 63.5364C1.74882 65.1044 2.2671 66.6319 2.93583 68.0955L3.4323 69.1711C3.59577 69.5276 3.76226 69.8871 3.92573 70.2466C3.7802 70.325 3.64058 70.4139 3.50798 70.5125C3.33718 70.6413 3.17905 70.7859 3.03573 70.9446C2.49992 71.5488 1.93383 72.6244 2.21839 74.9145C2.50295 77.2046 3.64117 80.7032 6.50491 86.1385C8.57235 90.0291 10.8784 93.7886 13.41 97.3957C17.3911 103.065 21.7393 108.468 26.427 113.571L41.8082 99.8942L57.2228 86.2261C52.1189 75.839 47.7355 66.9112 44.5448 60.4094C41.3541 53.9077 39.3622 49.829 39.0323 49.1281C38.9879 49.0328 38.9383 48.9401 38.8839 48.8501C38.4665 48.1395 37.8612 47.5573 37.1342 47.1673C36.6454 46.9137 36.0929 46.8087 35.5449 46.8652C35.3676 46.8852 35.1929 46.9247 35.0243 46.983C34.6969 47.0867 34.3934 47.2541 34.1312 47.4754C33.2231 48.2459 33.0202 49.3214 33.108 50.4333C33.2453 51.5253 33.5084 52.5979 33.8921 53.6297C35.0785 57.1821 35.9983 60.8176 36.6438 64.5063C37.3915 69.165 37.3976 73.8117 34.9546 75.3224C34.5342 75.57 34.0636 75.7207 33.5772 75.7635C33.1008 75.8042 32.6218 75.8042 32.1454 75.7635C31.2859 75.7048 30.449 75.4638 29.6903 75.0565C28.5114 74.4087 27.4351 73.5901 26.4966 72.6274Z" fill="#F2B3C1" stroke="black" stroke-width="0.964984" stroke-miterlimit="10" stroke-linecap="round"/>
<path d="M3.94531 70.2603C3.94531 70.2603 5.06235 73.3027 6.6698 76.7802C8.27725 80.2577 10.3267 84.1672 12.2247 85.9044" stroke="black" stroke-width="0.964984" stroke-miterlimit="10" stroke-linecap="round"/>
<path d="M3.2002 56.5746C3.2002 56.5746 5.60683 62.5537 8.45846 68.711C11.3101 74.8684 14.6007 81.1918 16.3564 81.8837" stroke="black" stroke-width="0.964984" stroke-miterlimit="10" stroke-linecap="round"/>
<path d="M6.18066 49.6542C6.18066 49.6542 8.47529 55.9777 11.442 62.6456C14.4086 69.3135 18.0504 76.3319 20.7415 77.7186" stroke="black" stroke-width="0.964984" stroke-miterlimit="10" stroke-linecap="round"/>
<path d="M170.048 128.541V154.696V180.851H201.128C200.256 180.851 199.36 180.38 198.522 179.785C197.683 179.189 196.902 178.464 196.263 177.972C192.598 175.062 189.579 171.37 186.979 167.373C184.379 163.376 182.196 159.068 180.207 154.932C178.954 152.327 177.943 150.007 177.001 147.681C176.06 145.354 175.185 143.028 174.21 140.412C173.635 138.874 172.999 137.088 172.285 135.115C171.571 133.143 170.832 130.925 170.048 128.541Z" fill="black" stroke="black" stroke-width="0.964984" stroke-miterlimit="10" stroke-linecap="round"/>
</svg>
