<svg width="1728" height="1117" viewBox="0 0 1728 1117" fill="none" xmlns="http://www.w3.org/2000/svg">
<g opacity="0.05" clip-path="url(#clip0_157_11427)">
<mask id="mask0_157_11427" style="mask-type:luminance" maskUnits="userSpaceOnUse" x="0" y="-4" width="1728" height="1121">
<path d="M1728 -4H0V1117H1728V-4Z" fill="white"/>
</mask>
<g mask="url(#mask0_157_11427)">
<mask id="mask1_157_11427" style="mask-type:luminance" maskUnits="userSpaceOnUse" x="150" y="608" width="343" height="334">
<path d="M321.664 941.429C416.063 941.429 492.588 866.963 492.588 775.104C492.588 683.245 416.063 608.779 321.664 608.779C227.265 608.779 150.739 683.245 150.739 775.104C150.739 866.963 227.265 941.429 321.664 941.429Z" fill="white"/>
</mask>
<g mask="url(#mask1_157_11427)">
<path d="M367.253 497.056L32.3674 769.772L32.6587 770.111L367.545 497.395L367.253 497.056Z" fill="#F0FFF0"/>
<path d="M381.553 513.742L46.667 786.459L46.9583 786.797L381.844 514.081L381.553 513.742Z" fill="#F0FFF0"/>
<path d="M395.872 530.394L60.9863 803.11L61.2776 803.449L396.164 530.732L395.872 530.394Z" fill="#F0FFF0"/>
<path d="M410.193 547.044L75.3066 819.76L75.5979 820.099L410.484 547.382L410.193 547.044Z" fill="#F0FFF0"/>
<path d="M424.514 563.694L89.6277 836.41L89.919 836.749L424.805 564.032L424.514 563.694Z" fill="#F0FFF0"/>
<path d="M438.833 580.345L103.947 853.061L104.239 853.4L439.125 580.683L438.833 580.345Z" fill="#F0FFF0"/>
<path d="M453.155 596.994L118.269 869.711L118.56 870.049L453.446 597.333L453.155 596.994Z" fill="#F0FFF0"/>
<path d="M467.475 613.647L132.589 886.363L132.881 886.702L467.767 613.986L467.475 613.647Z" fill="#F0FFF0"/>
<path d="M481.794 630.295L146.908 903.012L147.199 903.35L482.085 630.634L481.794 630.295Z" fill="#F0FFF0"/>
<path d="M496.117 646.947L161.231 919.663L161.522 920.002L496.408 647.286L496.117 646.947Z" fill="#F0FFF0"/>
<path d="M510.438 663.597L175.552 936.313L175.843 936.652L510.729 663.935L510.438 663.597Z" fill="#F0FFF0"/>
<path d="M524.758 680.248L189.872 952.964L190.163 953.303L525.049 680.587L524.758 680.248Z" fill="#F0FFF0"/>
<path d="M539.079 696.898L204.193 969.614L204.484 969.953L539.37 697.236L539.079 696.898Z" fill="#F0FFF0"/>
<path d="M553.4 713.55L218.514 986.266L218.805 986.605L553.691 713.889L553.4 713.55Z" fill="#F0FFF0"/>
<path d="M567.718 730.199L232.833 1002.92L233.124 1003.25L568.01 730.538L567.718 730.199Z" fill="#F0FFF0"/>
<path d="M582.041 746.85L247.155 1019.57L247.447 1019.91L582.333 747.189L582.041 746.85Z" fill="#F0FFF0"/>
<path d="M596.361 763.502L261.475 1036.22L261.766 1036.56L596.652 763.84L596.361 763.502Z" fill="#F0FFF0"/>
<path d="M610.682 780.151L275.796 1052.87L276.087 1053.21L610.973 780.49L610.682 780.151Z" fill="#F0FFF0"/>
</g>
<mask id="mask2_157_11427" style="mask-type:luminance" maskUnits="userSpaceOnUse" x="492" y="-490" width="697" height="678">
<path d="M1086.32 87.9563C1222.14 -44.2101 1222.14 -258.494 1086.32 -390.661C950.499 -522.827 730.289 -522.827 594.467 -390.661C458.646 -258.494 458.646 -44.2101 594.467 87.9564C730.289 220.123 950.499 220.123 1086.32 87.9563Z" fill="white"/>
</mask>
<g mask="url(#mask2_157_11427)">
<path d="M1078.87 -547.732L397.445 7.18701L398.04 7.87821L1079.46 -547.041L1078.87 -547.732Z" fill="#6E6CDF"/>
<path d="M1108.01 -513.851L426.585 41.0686L427.179 41.7598L1108.6 -513.159L1108.01 -513.851Z" fill="#6E6CDF"/>
<path d="M1137.15 -479.97L455.727 74.9487L456.321 75.6399L1137.74 -479.279L1137.15 -479.97Z" fill="#6E6CDF"/>
<path d="M1166.29 -446.092L484.864 108.828L485.458 109.519L1166.88 -445.4L1166.29 -446.092Z" fill="#6E6CDF"/>
<path d="M1195.42 -412.21L514.003 142.709L514.598 143.4L1196.02 -411.519L1195.42 -412.21Z" fill="#6E6CDF"/>
<path d="M1224.56 -378.33L543.142 176.589L543.736 177.28L1225.16 -377.639L1224.56 -378.33Z" fill="#6E6CDF"/>
<path d="M1253.7 -344.45L572.283 210.469L572.877 211.16L1254.3 -343.759L1253.7 -344.45Z" fill="#6E6CDF"/>
<path d="M1282.84 -310.569L601.422 244.351L602.017 245.042L1283.44 -309.877L1282.84 -310.569Z" fill="#6E6CDF"/>
<path d="M1311.98 -276.687L630.562 278.232L631.156 278.923L1312.58 -275.996L1311.98 -276.687Z" fill="#6E6CDF"/>
<path d="M1341.12 -242.808L659.7 312.111L660.294 312.803L1341.72 -242.117L1341.12 -242.808Z" fill="#6E6CDF"/>
<path d="M1370.26 -208.926L688.839 345.993L689.434 346.684L1370.86 -208.235L1370.26 -208.926Z" fill="#6E6CDF"/>
<path d="M1399.4 -175.048L717.979 379.871L718.573 380.562L1399.99 -174.357L1399.4 -175.048Z" fill="#6E6CDF"/>
<path d="M1428.54 -141.167L747.118 413.752L747.713 414.444L1429.13 -140.476L1428.54 -141.167Z" fill="#6E6CDF"/>
<path d="M1091.7 -529.935L410.275 24.9846L410.869 25.6758L1092.29 -529.243L1091.7 -529.935Z" fill="#6E6CDF"/>
<path d="M1120.84 -496.053L439.414 58.8661L440.009 59.5573L1121.43 -495.362L1120.84 -496.053Z" fill="#6E6CDF"/>
<path d="M1149.97 -462.173L468.553 92.7462L469.147 93.4374L1150.57 -461.482L1149.97 -462.173Z" fill="#6E6CDF"/>
<path d="M1179.11 -428.295L497.692 126.624L498.286 127.315L1179.71 -427.604L1179.11 -428.295Z" fill="#6E6CDF"/>
<path d="M1208.25 -394.414L526.832 160.505L527.426 161.196L1208.85 -393.723L1208.25 -394.414Z" fill="#6E6CDF"/>
<path d="M1237.39 -360.533L555.971 194.387L556.565 195.078L1237.99 -359.841L1237.39 -360.533Z" fill="#6E6CDF"/>
<path d="M1266.53 -326.651L585.11 228.268L585.705 228.959L1267.13 -325.96L1266.53 -326.651Z" fill="#6E6CDF"/>
<path d="M1295.67 -292.771L614.252 262.148L614.846 262.84L1296.27 -292.08L1295.67 -292.771Z" fill="#6E6CDF"/>
<path d="M1324.81 -258.891L643.39 296.028L643.984 296.719L1325.41 -258.2L1324.81 -258.891Z" fill="#6E6CDF"/>
<path d="M1353.95 -225.012L672.527 329.907L673.122 330.598L1354.54 -224.321L1353.95 -225.012Z" fill="#6E6CDF"/>
<path d="M1383.09 -191.13L701.667 363.789L702.261 364.48L1383.68 -190.439L1383.09 -191.13Z" fill="#6E6CDF"/>
<path d="M1412.23 -157.249L730.807 397.67L731.401 398.361L1412.82 -156.558L1412.23 -157.249Z" fill="#6E6CDF"/>
<path d="M1441.37 -123.369L759.948 431.55L760.542 432.242L1441.96 -122.678L1441.37 -123.369Z" fill="#6E6CDF"/>
</g>
<mask id="mask3_157_11427" style="mask-type:luminance" maskUnits="userSpaceOnUse" x="729" y="971" width="696" height="678">
<path d="M1076.98 1648.39C1269.07 1648.39 1424.78 1496.86 1424.78 1309.95C1424.78 1123.04 1269.07 971.514 1076.98 971.514C884.902 971.514 729.188 1123.04 729.188 1309.95C729.188 1496.86 884.902 1648.39 1076.98 1648.39Z" fill="white"/>
</mask>
<g mask="url(#mask3_157_11427)">
<path d="M1169.66 744.212L488.24 1299.05L488.835 1299.74L1170.26 744.903L1169.66 744.212Z" fill="#6E6CDF"/>
<path d="M1198.87 778.136L517.449 1333.06L518.044 1333.75L1199.47 778.827L1198.87 778.136Z" fill="#6E6CDF"/>
<path d="M1228.01 812.016L546.59 1366.94L547.185 1367.63L1228.61 812.707L1228.01 812.016Z" fill="#6E6CDF"/>
<path d="M1257.15 845.894L575.727 1400.81L576.321 1401.5L1257.74 846.585L1257.15 845.894Z" fill="#6E6CDF"/>
<path d="M1286.29 879.775L604.866 1434.69L605.461 1435.39L1286.88 880.466L1286.29 879.775Z" fill="#6E6CDF"/>
<path d="M1315.43 913.656L634.006 1468.58L634.6 1469.27L1316.02 914.347L1315.43 913.656Z" fill="#6E6CDF"/>
<path d="M1344.57 947.538L663.145 1502.46L663.739 1503.15L1345.16 948.229L1344.57 947.538Z" fill="#6E6CDF"/>
<path d="M1373.71 981.418L692.287 1536.34L692.881 1537.03L1374.3 982.109L1373.71 981.418Z" fill="#6E6CDF"/>
<path d="M1402.84 1015.3L721.423 1570.21L722.017 1570.91L1403.44 1015.99L1402.84 1015.3Z" fill="#6E6CDF"/>
<path d="M1431.98 1049.18L750.562 1604.1L751.156 1604.79L1432.58 1049.87L1431.98 1049.18Z" fill="#6E6CDF"/>
<path d="M1461.12 1083.06L779.702 1637.98L780.296 1638.67L1461.72 1083.75L1461.12 1083.06Z" fill="#6E6CDF"/>
<path d="M1490.26 1116.94L808.843 1671.86L809.437 1672.55L1490.86 1117.63L1490.26 1116.94Z" fill="#6E6CDF"/>
<path d="M1182.49 762.007L501.067 1316.84L501.662 1317.53L1183.08 762.698L1182.49 762.007Z" fill="#6E6CDF"/>
<path d="M1211.7 795.932L530.277 1350.85L530.872 1351.54L1212.29 796.623L1211.7 795.932Z" fill="#6E6CDF"/>
<path d="M1240.84 829.813L559.417 1384.73L560.011 1385.42L1241.43 830.504L1240.84 829.813Z" fill="#6E6CDF"/>
<path d="M1269.98 863.691L588.556 1418.61L589.151 1419.3L1270.57 864.382L1269.98 863.691Z" fill="#6E6CDF"/>
<path d="M1299.12 897.571L617.694 1452.49L618.289 1453.18L1299.71 898.262L1299.12 897.571Z" fill="#6E6CDF"/>
<path d="M1328.26 931.452L646.834 1486.37L647.428 1487.06L1328.85 932.143L1328.26 931.452Z" fill="#6E6CDF"/>
<path d="M1357.39 965.334L675.974 1520.25L676.568 1520.94L1357.99 966.025L1357.39 965.334Z" fill="#6E6CDF"/>
<path d="M1386.53 999.215L705.113 1554.13L705.708 1554.83L1387.13 999.906L1386.53 999.215Z" fill="#6E6CDF"/>
<path d="M1415.67 1033.09L734.252 1588.01L734.847 1588.7L1416.27 1033.78L1415.67 1033.09Z" fill="#6E6CDF"/>
<path d="M1444.81 1066.97L763.392 1621.89L763.986 1622.58L1445.41 1067.67L1444.81 1066.97Z" fill="#6E6CDF"/>
<path d="M1473.95 1100.85L792.53 1655.77L793.125 1656.46L1474.55 1101.55L1473.95 1100.85Z" fill="#6E6CDF"/>
</g>
<mask id="mask4_157_11427" style="mask-type:luminance" maskUnits="userSpaceOnUse" x="-39" y="779" width="156" height="152">
<path d="M116.822 857.613C118.38 815.862 84.8632 780.786 41.959 779.27C-0.945149 777.753 -36.9893 810.37 -38.5479 852.121C-40.1064 893.871 -6.58919 928.947 36.315 930.463C79.2191 931.98 115.263 899.363 116.822 857.613Z" fill="white"/>
</mask>
<g mask="url(#mask4_157_11427)">
<path d="M59.8473 728.442L-92.4265 852.518L-92.2934 852.673L59.9805 728.597L59.8473 728.442Z" fill="#6E6CDF"/>
<path d="M66.3941 736.047L-85.9194 860.085L-85.7863 860.239L66.5273 736.202L66.3941 736.047Z" fill="#6E6CDF"/>
<path d="M72.9083 743.621L-79.4053 867.658L-79.2722 867.813L73.0414 743.776L72.9083 743.621Z" fill="#6E6CDF"/>
<path d="M79.4188 751.194L-72.8948 875.232L-72.7617 875.387L79.5519 751.349L79.4188 751.194Z" fill="#6E6CDF"/>
<path d="M85.9334 758.768L-66.3801 882.805L-66.247 882.96L86.0665 758.923L85.9334 758.768Z" fill="#6E6CDF"/>
<path d="M92.4469 766.342L-59.8667 890.379L-59.7336 890.534L92.5799 766.497L92.4469 766.342Z" fill="#6E6CDF"/>
<path d="M98.9596 773.914L-53.354 897.951L-53.2209 898.106L99.0927 774.069L98.9596 773.914Z" fill="#6E6CDF"/>
<path d="M105.474 781.487L-46.8394 905.524L-46.7063 905.679L105.607 781.642L105.474 781.487Z" fill="#6E6CDF"/>
<path d="M111.986 789.059L-40.3271 913.097L-40.1941 913.251L112.119 789.214L111.986 789.059Z" fill="#6E6CDF"/>
<path d="M118.501 796.632L-33.8125 920.67L-33.6794 920.825L118.634 796.787L118.501 796.632Z" fill="#6E6CDF"/>
<path d="M125.014 804.204L-27.3 928.242L-27.167 928.397L125.147 804.359L125.014 804.204Z" fill="#6E6CDF"/>
<path d="M131.527 811.779L-20.7864 935.816L-20.6533 935.971L131.66 811.933L131.527 811.779Z" fill="#6E6CDF"/>
<path d="M138.041 819.353L-14.2727 943.39L-14.1396 943.545L138.174 819.507L138.041 819.353Z" fill="#6E6CDF"/>
<path d="M144.554 826.924L-7.75928 950.961L-7.6262 951.116L144.687 827.079L144.554 826.924Z" fill="#6E6CDF"/>
<path d="M151.066 834.499L-1.24731 958.537L-1.11424 958.691L151.199 834.654L151.066 834.499Z" fill="#6E6CDF"/>
<path d="M157.58 842.07L5.26611 966.108L5.39919 966.263L157.713 842.225L157.58 842.07Z" fill="#6E6CDF"/>
<path d="M164.093 849.645L11.7793 973.682L11.9124 973.837L164.226 849.8L164.093 849.645Z" fill="#6E6CDF"/>
<path d="M170.607 857.219L18.2937 981.256L18.4268 981.411L170.74 857.373L170.607 857.219Z" fill="#6E6CDF"/>
<path d="M62.8087 732.441L-89.5645 856.401L-89.4315 856.555L62.9417 732.595L62.8087 732.441Z" fill="#6E6CDF"/>
<path d="M69.2616 740.028L-83.052 864.065L-82.9189 864.22L69.3946 740.183L69.2616 740.028Z" fill="#6E6CDF"/>
<path d="M75.7745 747.599L-76.5391 871.637L-76.406 871.792L75.9076 747.754L75.7745 747.599Z" fill="#6E6CDF"/>
<path d="M82.2882 755.173L-70.0254 879.211L-69.8923 879.365L82.4213 755.328L82.2882 755.173Z" fill="#6E6CDF"/>
<path d="M88.8014 762.745L-63.5122 886.782L-63.3791 886.937L88.9344 762.899L88.8014 762.745Z" fill="#6E6CDF"/>
<path d="M95.3148 770.319L-56.9988 894.356L-56.8657 894.511L95.4479 770.474L95.3148 770.319Z" fill="#6E6CDF"/>
<path d="M101.828 777.891L-50.4858 901.928L-50.3528 902.083L101.961 778.046L101.828 777.891Z" fill="#6E6CDF"/>
<path d="M108.342 785.464L-43.9714 909.502L-43.8384 909.656L108.475 785.619L108.342 785.464Z" fill="#6E6CDF"/>
<path d="M114.853 793.038L-37.4609 917.075L-37.3279 917.23L114.986 793.192L114.853 793.038Z" fill="#6E6CDF"/>
<path d="M121.367 800.611L-30.9468 924.649L-30.8137 924.804L121.5 800.766L121.367 800.611Z" fill="#6E6CDF"/>
<path d="M127.881 808.185L-24.4321 932.222L-24.2991 932.377L128.015 808.34L127.881 808.185Z" fill="#6E6CDF"/>
<path d="M134.393 815.757L-17.9202 939.795L-17.7871 939.949L134.527 815.912L134.393 815.757Z" fill="#6E6CDF"/>
<path d="M140.908 823.331L-11.406 947.368L-11.2729 947.523L141.041 823.485L140.908 823.331Z" fill="#6E6CDF"/>
<path d="M147.422 830.904L-4.8916 954.941L-4.75848 955.096L147.555 831.059L147.422 830.904Z" fill="#6E6CDF"/>
<path d="M153.934 838.476L1.62061 962.514L1.75368 962.668L154.067 838.631L153.934 838.476Z" fill="#6E6CDF"/>
<path d="M160.449 846.049L8.1355 970.087L8.26858 970.242L160.582 846.204L160.449 846.049Z" fill="#6E6CDF"/>
<path d="M166.962 853.622L14.6479 977.659L14.781 977.814L167.095 853.776L166.962 853.622Z" fill="#6E6CDF"/>
<path d="M173.475 861.196L21.1614 985.233L21.2945 985.388L173.608 861.351L173.475 861.196Z" fill="#6E6CDF"/>
</g>
<mask id="mask5_157_11427" style="mask-type:luminance" maskUnits="userSpaceOnUse" x="1329" y="140" width="197" height="192">
<path d="M1523.22 256.964C1535.31 205.481 1502.21 154.213 1449.31 142.453C1396.4 130.693 1343.72 162.894 1331.63 214.376C1319.55 265.858 1352.64 317.126 1405.54 328.887C1458.45 340.647 1511.14 308.446 1523.22 256.964Z" fill="white"/>
</mask>
<g mask="url(#mask5_157_11427)">
<path d="M1453.64 75.7479L1261.22 232.65L1261.38 232.844L1453.8 75.9421L1453.64 75.7479Z" fill="#6E6CDF"/>
<path d="M1461.95 85.4711L1269.43 242.251L1269.6 242.447L1462.12 85.6671L1461.95 85.4711Z" fill="#6E6CDF"/>
<path d="M1470.19 95.0445L1277.67 251.824L1277.83 252.019L1470.35 95.2387L1470.19 95.0445Z" fill="#6E6CDF"/>
<path d="M1478.42 104.616L1285.9 261.396L1286.07 261.59L1478.59 104.81L1478.42 104.616Z" fill="#6E6CDF"/>
<path d="M1486.65 114.188L1294.13 270.968L1294.3 271.162L1486.82 114.382L1486.65 114.188Z" fill="#6E6CDF"/>
<path d="M1494.88 123.76L1302.36 280.54L1302.53 280.734L1495.05 123.954L1494.88 123.76Z" fill="#6E6CDF"/>
<path d="M1503.12 133.332L1310.6 290.112L1310.76 290.308L1503.28 133.528L1503.12 133.332Z" fill="#6E6CDF"/>
<path d="M1511.35 142.905L1318.83 299.685L1319 299.88L1511.52 143.1L1511.35 142.905Z" fill="#6E6CDF"/>
<path d="M1519.58 152.475L1327.06 309.255L1327.23 309.451L1519.75 152.671L1519.58 152.475Z" fill="#6E6CDF"/>
<path d="M1527.82 162.048L1335.3 318.828L1335.46 319.023L1527.98 162.243L1527.82 162.048Z" fill="#6E6CDF"/>
<path d="M1536.05 171.621L1343.53 328.401L1343.69 328.595L1536.22 171.815L1536.05 171.621Z" fill="#6E6CDF"/>
<path d="M1544.28 181.193L1351.76 337.973L1351.93 338.169L1544.45 181.389L1544.28 181.193Z" fill="#6E6CDF"/>
<path d="M1552.51 190.765L1359.99 347.545L1360.16 347.741L1552.68 190.961L1552.51 190.765Z" fill="#6E6CDF"/>
<path d="M1560.75 200.339L1368.23 357.119L1368.39 357.314L1560.91 200.534L1560.75 200.339Z" fill="#6E6CDF"/>
<path d="M1568.98 209.909L1376.46 366.689L1376.62 366.884L1569.14 210.104L1568.98 209.909Z" fill="#6E6CDF"/>
<path d="M1577.21 219.482L1384.69 376.262L1384.86 376.456L1577.38 219.676L1577.21 219.482Z" fill="#6E6CDF"/>
<path d="M1585.44 229.052L1392.92 385.832L1393.09 386.027L1585.61 229.247L1585.44 229.052Z" fill="#6E6CDF"/>
<path d="M1593.68 238.626L1401.16 395.405L1401.32 395.601L1593.84 238.822L1593.68 238.626Z" fill="#6E6CDF"/>
</g>
<mask id="mask6_157_11427" style="mask-type:luminance" maskUnits="userSpaceOnUse" x="1310" y="355" width="118" height="115">
<path d="M1427.08 417.252C1429.98 385.928 1406.24 358.248 1374.05 355.427C1341.86 352.606 1313.41 375.712 1310.51 407.036C1307.61 438.36 1331.36 466.04 1363.55 468.861C1395.74 471.682 1424.18 448.576 1427.08 417.252Z" fill="white"/>
</mask>
<g mask="url(#mask6_157_11427)">
<path d="M1384.36 316.993L1269.76 410.422L1269.86 410.539L1384.46 317.11L1384.36 316.993Z" fill="#6E6CDF"/>
<path d="M1389.38 322.757L1274.73 416.128L1274.83 416.245L1389.48 322.874L1389.38 322.757Z" fill="#6E6CDF"/>
<path d="M1394.28 328.456L1279.63 421.827L1279.73 421.944L1394.39 328.573L1394.28 328.456Z" fill="#6E6CDF"/>
<path d="M1399.19 334.159L1284.53 427.53L1284.63 427.647L1399.29 334.275L1399.19 334.159Z" fill="#6E6CDF"/>
<path d="M1404.09 339.858L1289.43 433.23L1289.54 433.347L1404.19 339.975L1404.09 339.858Z" fill="#6E6CDF"/>
<path d="M1408.99 345.56L1294.34 438.931L1294.44 439.048L1409.1 345.677L1408.99 345.56Z" fill="#6E6CDF"/>
<path d="M1413.9 351.258L1299.24 444.63L1299.34 444.747L1414 351.375L1413.9 351.258Z" fill="#6E6CDF"/>
<path d="M1418.8 356.96L1304.14 450.331L1304.24 450.448L1418.9 357.077L1418.8 356.96Z" fill="#6E6CDF"/>
<path d="M1423.7 362.661L1309.05 456.032L1309.15 456.149L1423.8 362.778L1423.7 362.661Z" fill="#6E6CDF"/>
<path d="M1428.61 368.361L1313.95 461.732L1314.05 461.849L1428.71 368.478L1428.61 368.361Z" fill="#6E6CDF"/>
<path d="M1433.51 374.061L1318.85 467.432L1318.95 467.549L1433.61 374.178L1433.51 374.061Z" fill="#6E6CDF"/>
<path d="M1438.41 379.763L1323.76 473.134L1323.86 473.251L1438.51 379.88L1438.41 379.763Z" fill="#6E6CDF"/>
<path d="M1443.31 385.464L1328.66 478.835L1328.76 478.952L1443.42 385.581L1443.31 385.464Z" fill="#6E6CDF"/>
<path d="M1448.22 391.166L1333.56 484.537L1333.66 484.654L1448.32 391.283L1448.22 391.166Z" fill="#6E6CDF"/>
<path d="M1453.12 396.863L1338.46 490.235L1338.56 490.352L1453.22 396.98L1453.12 396.863Z" fill="#6E6CDF"/>
<path d="M1458.02 402.566L1343.37 495.938L1343.47 496.055L1458.13 402.683L1458.02 402.566Z" fill="#6E6CDF"/>
<path d="M1462.93 408.266L1348.27 501.638L1348.37 501.754L1463.03 408.383L1462.93 408.266Z" fill="#6E6CDF"/>
<path d="M1467.83 413.968L1353.17 507.339L1353.27 507.456L1467.93 414.085L1467.83 413.968Z" fill="#6E6CDF"/>
<path d="M1386.56 319.999L1271.87 413.327L1271.98 413.444L1386.66 320.116L1386.56 319.999Z" fill="#6E6CDF"/>
<path d="M1391.54 325.749L1276.88 419.12L1276.98 419.237L1391.64 325.866L1391.54 325.749Z" fill="#6E6CDF"/>
<path d="M1396.44 331.451L1281.79 424.822L1281.89 424.939L1396.54 331.568L1396.44 331.451Z" fill="#6E6CDF"/>
<path d="M1401.35 337.152L1286.69 430.523L1286.79 430.64L1401.45 337.269L1401.35 337.152Z" fill="#6E6CDF"/>
<path d="M1406.25 342.852L1291.59 436.223L1291.69 436.34L1406.35 342.969L1406.25 342.852Z" fill="#6E6CDF"/>
<path d="M1411.15 348.552L1296.5 441.923L1296.6 442.04L1411.25 348.669L1411.15 348.552Z" fill="#6E6CDF"/>
<path d="M1416.06 354.255L1301.4 447.626L1301.5 447.743L1416.16 354.372L1416.06 354.255Z" fill="#6E6CDF"/>
<path d="M1420.96 359.955L1306.3 453.326L1306.4 453.443L1421.06 360.071L1420.96 359.955Z" fill="#6E6CDF"/>
<path d="M1425.86 365.655L1311.21 459.026L1311.31 459.143L1425.96 365.772L1425.86 365.655Z" fill="#6E6CDF"/>
<path d="M1430.76 371.354L1316.11 464.726L1316.21 464.843L1430.87 371.471L1430.76 371.354Z" fill="#6E6CDF"/>
<path d="M1435.67 377.057L1321.01 470.429L1321.11 470.546L1435.77 377.174L1435.67 377.057Z" fill="#6E6CDF"/>
<path d="M1440.57 382.757L1325.91 476.128L1326.01 476.245L1440.67 382.874L1440.57 382.757Z" fill="#6E6CDF"/>
<path d="M1445.47 388.459L1330.82 481.83L1330.92 481.947L1445.57 388.576L1445.47 388.459Z" fill="#6E6CDF"/>
<path d="M1450.38 394.157L1335.72 487.529L1335.82 487.645L1450.48 394.274L1450.38 394.157Z" fill="#6E6CDF"/>
<path d="M1455.28 399.86L1340.62 493.231L1340.72 493.348L1455.38 399.977L1455.28 399.86Z" fill="#6E6CDF"/>
<path d="M1460.18 405.56L1345.53 498.931L1345.63 499.048L1460.28 405.677L1460.18 405.56Z" fill="#6E6CDF"/>
<path d="M1465.08 411.261L1350.43 504.633L1350.53 504.75L1465.18 411.378L1465.08 411.261Z" fill="#6E6CDF"/>
<path d="M1469.99 416.96L1355.33 510.331L1355.43 510.448L1470.09 417.077L1469.99 416.96Z" fill="#6E6CDF"/>
</g>
</g>
<mask id="mask7_157_11427" style="mask-type:luminance" maskUnits="userSpaceOnUse" x="0" y="-4" width="1728" height="1121">
<path d="M1728 -4H0V1117H1728V-4Z" fill="white"/>
</mask>
<g mask="url(#mask7_157_11427)">
<path d="M936.65 982.166L887.418 941.232L847.301 974.59L829.076 953.834L887.418 905.322L936.65 946.256L976.767 912.9L994.994 933.656L936.65 982.166Z" fill="#6E6CDF"/>
<path d="M1353.54 22.8839L1304.31 -18.0506L1264.19 15.3059L1245.96 -5.45054L1304.31 -53.9607L1353.54 -13.0285L1393.66 -46.385L1411.88 -25.6285L1353.54 22.8839Z" fill="#6E6CDF"/>
<path d="M229.495 1163.83L180.265 1122.89L140.146 1156.25L121.921 1135.5L180.265 1086.98L229.495 1127.92L269.614 1094.56L287.839 1115.32L229.495 1163.83Z" fill="#6E6CDF"/>
<path d="M-40.7762 739.221L-90.0081 698.286L-130.125 731.645L-148.352 710.889L-90.0081 662.376L-40.7762 703.311L-0.658997 669.954L17.5657 690.711L-40.7762 739.221Z" fill="#6E6CDF"/>
<path d="M733.062 158.186L683.832 117.254L643.712 150.611L625.488 129.854L683.832 81.3418L733.062 122.276L773.181 88.9198L791.406 109.676L733.062 158.186Z" fill="#6E6CDF"/>
<path d="M1691.77 257.168L1642.53 216.234L1602.42 249.593L1584.19 228.836L1642.53 180.324L1691.77 221.258L1731.88 187.902L1750.11 208.658L1691.77 257.168Z" fill="#6E6CDF"/>
<path d="M1525.85 1133.88L1476.62 1092.94L1436.5 1126.3L1418.27 1105.54L1476.62 1057.03L1525.85 1097.96L1565.96 1064.61L1584.19 1085.36L1525.85 1133.88Z" fill="#6E6CDF"/>
</g>
<mask id="mask8_157_11427" style="mask-type:luminance" maskUnits="userSpaceOnUse" x="0" y="-4" width="1728" height="1121">
<path d="M1728 -4H0V1117H1728V-4Z" fill="white"/>
</mask>
<g mask="url(#mask8_157_11427)">
<path d="M143.403 690.547L125.356 675.541L110.647 687.769L103.966 680.16L125.356 662.376L143.403 677.382L158.11 665.154L164.791 672.763L143.403 690.547Z" fill="#6E6CDF"/>
<path d="M1176.2 1039.03L1158.16 1024.03L1143.45 1036.26L1136.77 1028.65L1158.16 1010.86L1176.2 1025.87L1190.91 1013.64L1197.59 1021.25L1176.2 1039.03Z" fill="#6E6CDF"/>
<path d="M1596.66 468.398L1578.61 453.39L1563.9 465.618L1557.22 458.009L1578.61 440.225L1596.66 455.231L1611.36 443.003L1618.04 450.613L1596.66 468.398Z" fill="#6E6CDF"/>
<path d="M1581.37 10.0865L1563.33 -4.9214L1548.62 7.30871L1541.94 -0.30064L1563.33 -18.0864L1581.37 -3.07848L1596.08 -15.3086L1602.76 -7.69924L1581.37 10.0865Z" fill="#6E6CDF"/>
<path d="M800.43 841.891L782.381 826.885L767.674 839.113L760.993 831.504L782.381 813.72L800.43 828.726L815.137 816.498L821.818 824.107L800.43 841.891Z" fill="#6E6CDF"/>
<path d="M9.02473 1071.12L-9.02481 1056.11L-23.7312 1068.34L-30.4128 1060.73L-9.02481 1042.94L9.02473 1057.95L23.7312 1045.72L30.4128 1053.33L9.02473 1071.12Z" fill="#6E6CDF"/>
<path d="M860.265 221.765L842.218 206.757L827.512 218.987L820.83 211.376L842.218 193.592L860.265 208.6L874.972 196.37L881.653 203.979L860.265 221.765Z" fill="#6E6CDF"/>
<path d="M103.201 158.334L85.1534 143.326L70.447 155.557L63.7654 147.947L85.1534 130.161L103.201 145.169L117.907 132.939L124.589 140.549L103.201 158.334Z" fill="#6E6CDF"/>
</g>
<path d="M1291.08 839.138C1289.6 839.138 1288.41 840.301 1288.41 841.739C1288.41 843.176 1289.6 844.339 1291.08 844.339C1292.56 844.339 1293.75 843.176 1293.75 841.739C1293.75 840.301 1292.56 839.138 1291.08 839.138Z" fill="#F0FFF0"/>
<path d="M1306.41 839.138C1304.93 839.138 1303.74 840.301 1303.74 841.739C1303.74 843.176 1304.93 844.339 1306.41 844.339C1307.88 844.339 1309.08 843.176 1309.08 841.739C1309.08 840.301 1307.88 839.138 1306.41 839.138Z" fill="#F0FFF0"/>
<path d="M1321.74 839.138C1320.26 839.138 1319.06 840.301 1319.06 841.739C1319.06 843.176 1320.26 844.339 1321.74 844.339C1323.21 844.339 1324.41 843.176 1324.41 841.739C1324.41 840.301 1323.21 839.138 1321.74 839.138Z" fill="#F0FFF0"/>
<path d="M1337.06 839.138C1335.59 839.138 1334.39 840.301 1334.39 841.739C1334.39 843.176 1335.59 844.339 1337.06 844.339C1338.54 844.339 1339.74 843.176 1339.74 841.739C1339.74 840.301 1338.54 839.138 1337.06 839.138Z" fill="#F0FFF0"/>
<path d="M1352.39 839.138C1350.92 839.138 1349.72 840.301 1349.72 841.739C1349.72 843.176 1350.92 844.339 1352.39 844.339C1353.87 844.339 1355.07 843.176 1355.07 841.739C1355.06 840.301 1353.87 839.138 1352.39 839.138Z" fill="#F0FFF0"/>
<path d="M1367.72 839.138C1366.24 839.138 1365.05 840.301 1365.05 841.739C1365.05 843.176 1366.24 844.339 1367.72 844.339C1369.2 844.339 1370.39 843.176 1370.39 841.739C1370.39 840.301 1369.2 839.138 1367.72 839.138Z" fill="#F0FFF0"/>
<path d="M1383.05 839.138C1381.57 839.138 1380.37 840.301 1380.37 841.739C1380.37 843.176 1381.57 844.339 1383.05 844.339C1384.52 844.339 1385.72 843.176 1385.72 841.739C1385.72 840.301 1384.52 839.138 1383.05 839.138Z" fill="#F0FFF0"/>
<path d="M1398.38 839.138C1396.9 839.138 1395.7 840.301 1395.7 841.739C1395.7 843.176 1396.9 844.339 1398.38 844.339C1399.85 844.339 1401.05 843.176 1401.05 841.739C1401.05 840.301 1399.85 839.138 1398.38 839.138Z" fill="#F0FFF0"/>
<path d="M1413.7 839.138C1412.23 839.138 1411.03 840.301 1411.03 841.739C1411.03 843.176 1412.23 844.339 1413.7 844.339C1415.18 844.339 1416.38 843.176 1416.38 841.739C1416.37 840.301 1415.18 839.138 1413.7 839.138Z" fill="#F0FFF0"/>
<path d="M1429.03 839.138C1427.55 839.138 1426.36 840.301 1426.36 841.739C1426.36 843.176 1427.55 844.339 1429.03 844.339C1430.51 844.339 1431.7 843.176 1431.7 841.739C1431.7 840.301 1430.51 839.138 1429.03 839.138Z" fill="#F0FFF0"/>
<path d="M1444.36 839.138C1442.88 839.138 1441.69 840.301 1441.69 841.739C1441.69 843.176 1442.88 844.339 1444.36 844.339C1445.83 844.339 1447.03 843.176 1447.03 841.739C1447.03 840.301 1445.83 839.138 1444.36 839.138Z" fill="#F0FFF0"/>
<path d="M1459.69 839.138C1458.21 839.138 1457.02 840.301 1457.02 841.739C1457.02 843.176 1458.21 844.339 1459.69 844.339C1461.16 844.339 1462.36 843.176 1462.36 841.739C1462.36 840.301 1461.16 839.138 1459.69 839.138Z" fill="#F0FFF0"/>
<path d="M1475.01 839.138C1473.54 839.138 1472.34 840.301 1472.34 841.739C1472.34 843.176 1473.54 844.339 1475.01 844.339C1476.49 844.339 1477.69 843.176 1477.69 841.739C1477.69 840.301 1476.49 839.138 1475.01 839.138Z" fill="#F0FFF0"/>
<path d="M1490.34 839.138C1488.87 839.138 1487.67 840.301 1487.67 841.739C1487.67 843.176 1488.87 844.339 1490.34 844.339C1491.82 844.339 1493.01 843.176 1493.01 841.739C1493.01 840.301 1491.82 839.138 1490.34 839.138Z" fill="#F0FFF0"/>
<path d="M1505.67 839.138C1504.19 839.138 1503 840.301 1503 841.739C1503 843.176 1504.19 844.339 1505.67 844.339C1507.15 844.339 1508.34 843.176 1508.34 841.739C1508.34 840.301 1507.15 839.138 1505.67 839.138Z" fill="#F0FFF0"/>
<path d="M1521 839.138C1519.52 839.138 1518.32 840.301 1518.32 841.739C1518.32 843.176 1519.52 844.339 1521 844.339C1522.47 844.339 1523.67 843.176 1523.67 841.739C1523.67 840.301 1522.47 839.138 1521 839.138Z" fill="#F0FFF0"/>
<path d="M1536.33 839.138C1534.85 839.138 1533.65 840.301 1533.65 841.739C1533.65 843.176 1534.85 844.339 1536.33 844.339C1537.8 844.339 1539 843.176 1539 841.739C1539 840.301 1537.8 839.138 1536.33 839.138Z" fill="#F0FFF0"/>
<path d="M1551.65 844.337C1553.13 844.337 1554.33 843.173 1554.33 841.736C1554.33 840.301 1553.13 839.136 1551.65 839.136C1550.18 839.136 1548.98 840.299 1548.98 841.736C1548.98 843.173 1550.18 844.337 1551.65 844.337Z" fill="#F0FFF0"/>
<path d="M1291.08 853.231C1289.6 853.231 1288.41 854.395 1288.41 855.832C1288.41 857.267 1289.6 858.432 1291.08 858.432C1292.56 858.432 1293.75 857.269 1293.75 855.832C1293.75 854.395 1292.56 853.231 1291.08 853.231Z" fill="#F0FFF0"/>
<path d="M1306.41 853.231C1304.93 853.231 1303.74 854.395 1303.74 855.832C1303.74 857.267 1304.93 858.432 1306.41 858.432C1307.88 858.432 1309.08 857.269 1309.08 855.832C1309.08 854.395 1307.88 853.231 1306.41 853.231Z" fill="#F0FFF0"/>
<path d="M1321.74 853.231C1320.26 853.231 1319.06 854.395 1319.06 855.832C1319.06 857.267 1320.26 858.432 1321.74 858.432C1323.21 858.432 1324.41 857.269 1324.41 855.832C1324.41 854.395 1323.21 853.231 1321.74 853.231Z" fill="#F0FFF0"/>
<path d="M1337.06 853.231C1335.59 853.231 1334.39 854.395 1334.39 855.832C1334.39 857.267 1335.59 858.432 1337.06 858.432C1338.54 858.432 1339.74 857.269 1339.74 855.832C1339.74 854.395 1338.54 853.231 1337.06 853.231Z" fill="#F0FFF0"/>
<path d="M1352.39 853.231C1350.92 853.231 1349.72 854.395 1349.72 855.832C1349.72 857.267 1350.92 858.432 1352.39 858.432C1353.87 858.432 1355.07 857.269 1355.07 855.832C1355.06 854.395 1353.87 853.231 1352.39 853.231Z" fill="#F0FFF0"/>
<path d="M1367.72 853.231C1366.24 853.231 1365.05 854.395 1365.05 855.832C1365.05 857.267 1366.24 858.432 1367.72 858.432C1369.2 858.432 1370.39 857.269 1370.39 855.832C1370.39 854.395 1369.2 853.231 1367.72 853.231Z" fill="#F0FFF0"/>
<path d="M1383.05 853.231C1381.57 853.231 1380.37 854.395 1380.37 855.832C1380.37 857.267 1381.57 858.432 1383.05 858.432C1384.52 858.432 1385.72 857.269 1385.72 855.832C1385.72 854.395 1384.52 853.231 1383.05 853.231Z" fill="#F0FFF0"/>
<path d="M1398.38 853.231C1396.9 853.231 1395.7 854.395 1395.7 855.832C1395.7 857.267 1396.9 858.432 1398.38 858.432C1399.85 858.432 1401.05 857.269 1401.05 855.832C1401.05 854.395 1399.85 853.231 1398.38 853.231Z" fill="#F0FFF0"/>
<path d="M1413.7 853.231C1412.23 853.231 1411.03 854.395 1411.03 855.832C1411.03 857.267 1412.23 858.432 1413.7 858.432C1415.18 858.432 1416.38 857.269 1416.38 855.832C1416.37 854.395 1415.18 853.231 1413.7 853.231Z" fill="#F0FFF0"/>
<path d="M1429.03 853.231C1427.55 853.231 1426.36 854.395 1426.36 855.832C1426.36 857.267 1427.55 858.432 1429.03 858.432C1430.51 858.432 1431.7 857.269 1431.7 855.832C1431.7 854.395 1430.51 853.231 1429.03 853.231Z" fill="#F0FFF0"/>
<path d="M1444.36 853.231C1442.88 853.231 1441.69 854.395 1441.69 855.832C1441.69 857.267 1442.88 858.432 1444.36 858.432C1445.83 858.432 1447.03 857.269 1447.03 855.832C1447.03 854.395 1445.83 853.231 1444.36 853.231Z" fill="#F0FFF0"/>
<path d="M1459.69 853.231C1458.21 853.231 1457.02 854.395 1457.02 855.832C1457.02 857.267 1458.21 858.432 1459.69 858.432C1461.16 858.432 1462.36 857.269 1462.36 855.832C1462.36 854.395 1461.16 853.231 1459.69 853.231Z" fill="#F0FFF0"/>
<path d="M1475.01 853.231C1473.54 853.231 1472.34 854.395 1472.34 855.832C1472.34 857.267 1473.54 858.432 1475.01 858.432C1476.49 858.432 1477.69 857.269 1477.69 855.832C1477.69 854.395 1476.49 853.231 1475.01 853.231Z" fill="#F0FFF0"/>
<path d="M1490.34 853.231C1488.87 853.231 1487.67 854.395 1487.67 855.832C1487.67 857.267 1488.87 858.432 1490.34 858.432C1491.82 858.432 1493.01 857.269 1493.01 855.832C1493.01 854.395 1491.82 853.231 1490.34 853.231Z" fill="#F0FFF0"/>
<path d="M1505.67 853.231C1504.19 853.231 1503 854.395 1503 855.832C1503 857.267 1504.19 858.432 1505.67 858.432C1507.15 858.432 1508.34 857.269 1508.34 855.832C1508.34 854.395 1507.15 853.231 1505.67 853.231Z" fill="#F0FFF0"/>
<path d="M1521 853.231C1519.52 853.231 1518.32 854.395 1518.32 855.832C1518.32 857.267 1519.52 858.432 1521 858.432C1522.47 858.432 1523.67 857.269 1523.67 855.832C1523.67 854.395 1522.47 853.231 1521 853.231Z" fill="#F0FFF0"/>
<path d="M1536.33 853.231C1534.85 853.231 1533.65 854.395 1533.65 855.832C1533.65 857.267 1534.85 858.432 1536.33 858.432C1537.8 858.432 1539 857.269 1539 855.832C1539 854.395 1537.8 853.231 1536.33 853.231Z" fill="#F0FFF0"/>
<path d="M1551.65 853.231C1550.18 853.231 1548.98 854.395 1548.98 855.832C1548.98 857.267 1550.18 858.432 1551.65 858.432C1553.13 858.432 1554.33 857.269 1554.33 855.832C1554.32 854.395 1553.13 853.231 1551.65 853.231Z" fill="#F0FFF0"/>
<path d="M1291.08 867.326C1289.6 867.326 1288.41 868.49 1288.41 869.927C1288.41 871.364 1289.6 872.528 1291.08 872.528C1292.56 872.528 1293.75 871.364 1293.75 869.927C1293.75 868.49 1292.56 867.326 1291.08 867.326Z" fill="#F0FFF0"/>
<path d="M1306.41 867.326C1304.93 867.326 1303.74 868.49 1303.74 869.927C1303.74 871.364 1304.93 872.528 1306.41 872.528C1307.88 872.528 1309.08 871.364 1309.08 869.927C1309.08 868.49 1307.88 867.326 1306.41 867.326Z" fill="#F0FFF0"/>
<path d="M1321.74 867.326C1320.26 867.326 1319.06 868.49 1319.06 869.927C1319.06 871.364 1320.26 872.528 1321.74 872.528C1323.21 872.528 1324.41 871.364 1324.41 869.927C1324.41 868.49 1323.21 867.326 1321.74 867.326Z" fill="#F0FFF0"/>
<path d="M1337.06 867.326C1335.59 867.326 1334.39 868.49 1334.39 869.927C1334.39 871.364 1335.59 872.528 1337.06 872.528C1338.54 872.528 1339.74 871.364 1339.74 869.927C1339.74 868.49 1338.54 867.326 1337.06 867.326Z" fill="#F0FFF0"/>
<path d="M1352.39 867.326C1350.92 867.326 1349.72 868.49 1349.72 869.927C1349.72 871.364 1350.92 872.528 1352.39 872.528C1353.87 872.528 1355.07 871.364 1355.07 869.927C1355.06 868.49 1353.87 867.326 1352.39 867.326Z" fill="#F0FFF0"/>
<path d="M1367.72 867.326C1366.24 867.326 1365.05 868.49 1365.05 869.927C1365.05 871.364 1366.24 872.528 1367.72 872.528C1369.2 872.528 1370.39 871.364 1370.39 869.927C1370.39 868.49 1369.2 867.326 1367.72 867.326Z" fill="#F0FFF0"/>
<path d="M1383.05 867.326C1381.57 867.326 1380.37 868.49 1380.37 869.927C1380.37 871.364 1381.57 872.528 1383.05 872.528C1384.52 872.528 1385.72 871.364 1385.72 869.927C1385.72 868.49 1384.52 867.326 1383.05 867.326Z" fill="#F0FFF0"/>
<path d="M1398.38 867.326C1396.9 867.326 1395.7 868.49 1395.7 869.927C1395.7 871.364 1396.9 872.528 1398.38 872.528C1399.85 872.528 1401.05 871.364 1401.05 869.927C1401.05 868.49 1399.85 867.326 1398.38 867.326Z" fill="#F0FFF0"/>
<path d="M1413.7 867.326C1412.23 867.326 1411.03 868.49 1411.03 869.927C1411.03 871.364 1412.23 872.528 1413.7 872.528C1415.18 872.528 1416.38 871.364 1416.38 869.927C1416.37 868.49 1415.18 867.326 1413.7 867.326Z" fill="#F0FFF0"/>
<path d="M1429.03 867.326C1427.55 867.326 1426.36 868.49 1426.36 869.927C1426.36 871.364 1427.55 872.528 1429.03 872.528C1430.51 872.528 1431.7 871.364 1431.7 869.927C1431.7 868.49 1430.51 867.326 1429.03 867.326Z" fill="#F0FFF0"/>
<path d="M1444.36 867.326C1442.88 867.326 1441.69 868.49 1441.69 869.927C1441.69 871.364 1442.88 872.528 1444.36 872.528C1445.83 872.528 1447.03 871.364 1447.03 869.927C1447.03 868.49 1445.83 867.326 1444.36 867.326Z" fill="#F0FFF0"/>
<path d="M1459.69 867.326C1458.21 867.326 1457.02 868.49 1457.02 869.927C1457.02 871.364 1458.21 872.528 1459.69 872.528C1461.16 872.528 1462.36 871.364 1462.36 869.927C1462.36 868.49 1461.16 867.326 1459.69 867.326Z" fill="#F0FFF0"/>
<path d="M1475.01 867.326C1473.54 867.326 1472.34 868.49 1472.34 869.927C1472.34 871.364 1473.54 872.528 1475.01 872.528C1476.49 872.528 1477.69 871.364 1477.69 869.927C1477.69 868.49 1476.49 867.326 1475.01 867.326Z" fill="#F0FFF0"/>
<path d="M1490.34 867.326C1488.87 867.326 1487.67 868.49 1487.67 869.927C1487.67 871.364 1488.87 872.528 1490.34 872.528C1491.82 872.528 1493.01 871.364 1493.01 869.927C1493.01 868.49 1491.82 867.326 1490.34 867.326Z" fill="#F0FFF0"/>
<path d="M1505.67 867.326C1504.19 867.326 1503 868.49 1503 869.927C1503 871.364 1504.19 872.528 1505.67 872.528C1507.15 872.528 1508.34 871.364 1508.34 869.927C1508.34 868.49 1507.15 867.326 1505.67 867.326Z" fill="#F0FFF0"/>
<path d="M1521 867.326C1519.52 867.326 1518.32 868.49 1518.32 869.927C1518.32 871.364 1519.52 872.528 1521 872.528C1522.47 872.528 1523.67 871.364 1523.67 869.927C1523.67 868.49 1522.47 867.326 1521 867.326Z" fill="#F0FFF0"/>
<path d="M1536.33 867.326C1534.85 867.326 1533.65 868.49 1533.65 869.927C1533.65 871.364 1534.85 872.528 1536.33 872.528C1537.8 872.528 1539 871.364 1539 869.927C1539 868.49 1537.8 867.326 1536.33 867.326Z" fill="#F0FFF0"/>
<path d="M1551.65 867.326C1550.18 867.326 1548.98 868.49 1548.98 869.927C1548.98 871.364 1550.18 872.528 1551.65 872.528C1553.13 872.528 1554.33 871.364 1554.33 869.927C1554.32 868.49 1553.13 867.326 1551.65 867.326Z" fill="#F0FFF0"/>
<path d="M5.84525 954.814C4.37069 954.814 3.17261 955.977 3.17261 957.415C3.17261 958.849 4.36838 960.015 5.84525 960.015C7.31981 960.015 8.51789 958.852 8.51789 957.415C8.51789 955.977 7.32211 954.814 5.84525 954.814Z" fill="#6E6CDF"/>
<path d="M21.1736 954.814C19.6991 954.814 18.501 955.977 18.501 957.415C18.501 958.849 19.6968 960.015 21.1736 960.015C22.6482 960.015 23.8463 958.852 23.8463 957.415C23.8463 955.977 22.6505 954.814 21.1736 954.814Z" fill="#6E6CDF"/>
<path d="M36.5022 954.814C35.0254 954.814 33.8296 955.977 33.8296 957.415C33.8296 958.849 35.0254 960.015 36.5022 960.015C37.9768 960.015 39.1749 958.852 39.1749 957.415C39.1749 955.977 37.9768 954.814 36.5022 954.814Z" fill="#6E6CDF"/>
<path d="M51.8308 954.814C50.354 954.814 49.1582 955.977 49.1582 957.415C49.1582 958.849 50.354 960.015 51.8308 960.015C53.3054 960.015 54.5035 958.852 54.5035 957.415C54.5012 955.977 53.3054 954.814 51.8308 954.814Z" fill="#6E6CDF"/>
<path d="M67.157 954.814C65.6825 954.814 64.4844 955.977 64.4844 957.415C64.4844 958.849 65.6802 960.015 67.157 960.015C68.6316 960.015 69.8297 958.852 69.8297 957.415C69.8297 955.977 68.6339 954.814 67.157 954.814Z" fill="#6E6CDF"/>
<path d="M82.4854 954.814C81.0108 954.814 79.8127 955.977 79.8127 957.415C79.8127 958.849 81.0085 960.015 82.4854 960.015C83.9599 960.015 85.158 958.852 85.158 957.415C85.1557 955.977 83.9599 954.814 82.4854 954.814Z" fill="#6E6CDF"/>
<path d="M97.8116 954.814C96.337 954.814 95.1389 955.977 95.1389 957.415C95.1389 958.849 96.3347 960.015 97.8116 960.015C99.2884 960.015 100.484 958.852 100.484 957.415C100.484 955.977 99.2884 954.814 97.8116 954.814Z" fill="#6E6CDF"/>
<path d="M113.14 954.814C111.666 954.814 110.468 955.977 110.468 957.415C110.468 958.849 111.663 960.015 113.14 960.015C114.615 960.015 115.813 958.852 115.813 957.415C115.813 955.977 114.617 954.814 113.14 954.814Z" fill="#6E6CDF"/>
<path d="M128.469 954.814C126.994 954.814 125.796 955.977 125.796 957.415C125.796 958.849 126.992 960.015 128.469 960.015C129.943 960.015 131.141 958.852 131.141 957.415C131.141 955.977 129.943 954.814 128.469 954.814Z" fill="#6E6CDF"/>
<path d="M143.797 954.814C142.323 954.814 141.125 955.977 141.125 957.415C141.125 958.849 142.32 960.015 143.797 960.015C145.274 960.015 146.47 958.852 146.47 957.415C146.467 955.977 145.272 954.814 143.797 954.814Z" fill="#6E6CDF"/>
<path d="M159.123 960.013C160.598 960.013 161.796 958.849 161.796 957.412C161.796 955.977 160.6 954.811 159.123 954.811C157.649 954.811 156.451 955.975 156.451 957.412C156.453 958.849 157.649 960.013 159.123 960.013Z" fill="#6E6CDF"/>
<path d="M5.84525 968.907C4.37069 968.907 3.17261 970.071 3.17261 971.508C3.17261 972.943 4.36838 974.108 5.84525 974.108C7.31981 974.108 8.51789 972.945 8.51789 971.508C8.51789 970.071 7.32211 968.907 5.84525 968.907Z" fill="#6E6CDF"/>
<path d="M21.1736 968.907C19.6991 968.907 18.501 970.071 18.501 971.508C18.501 972.943 19.6968 974.108 21.1736 974.108C22.6482 974.108 23.8463 972.945 23.8463 971.508C23.8463 970.071 22.6505 968.907 21.1736 968.907Z" fill="#6E6CDF"/>
<path d="M36.5022 968.907C35.0254 968.907 33.8296 970.071 33.8296 971.508C33.8296 972.943 35.0254 974.108 36.5022 974.108C37.9768 974.108 39.1749 972.945 39.1749 971.508C39.1749 970.071 37.9768 968.907 36.5022 968.907Z" fill="#6E6CDF"/>
<path d="M51.8308 968.907C50.354 968.907 49.1582 970.071 49.1582 971.508C49.1582 972.943 50.354 974.108 51.8308 974.108C53.3054 974.108 54.5035 972.945 54.5035 971.508C54.5012 970.071 53.3054 968.907 51.8308 968.907Z" fill="#6E6CDF"/>
<path d="M67.157 968.907C65.6825 968.907 64.4844 970.071 64.4844 971.508C64.4844 972.943 65.6802 974.108 67.157 974.108C68.6316 974.108 69.8297 972.945 69.8297 971.508C69.8297 970.071 68.6339 968.907 67.157 968.907Z" fill="#6E6CDF"/>
<path d="M82.4854 968.907C81.0108 968.907 79.8127 970.071 79.8127 971.508C79.8127 972.943 81.0085 974.108 82.4854 974.108C83.9599 974.108 85.158 972.945 85.158 971.508C85.1557 970.071 83.9599 968.907 82.4854 968.907Z" fill="#6E6CDF"/>
<path d="M97.8116 968.907C96.337 968.907 95.1389 970.071 95.1389 971.508C95.1389 972.943 96.3347 974.108 97.8116 974.108C99.2884 974.108 100.484 972.945 100.484 971.508C100.484 970.071 99.2884 968.907 97.8116 968.907Z" fill="#6E6CDF"/>
<path d="M113.14 968.907C111.666 968.907 110.468 970.071 110.468 971.508C110.468 972.943 111.663 974.108 113.14 974.108C114.615 974.108 115.813 972.945 115.813 971.508C115.813 970.071 114.617 968.907 113.14 968.907Z" fill="#6E6CDF"/>
<path d="M128.469 968.907C126.994 968.907 125.796 970.071 125.796 971.508C125.796 972.943 126.992 974.108 128.469 974.108C129.943 974.108 131.141 972.945 131.141 971.508C131.141 970.071 129.943 968.907 128.469 968.907Z" fill="#6E6CDF"/>
<path d="M143.797 968.907C142.323 968.907 141.125 970.071 141.125 971.508C141.125 972.943 142.32 974.108 143.797 974.108C145.274 974.108 146.47 972.945 146.47 971.508C146.467 970.071 145.272 968.907 143.797 968.907Z" fill="#6E6CDF"/>
<path d="M159.123 968.907C157.649 968.907 156.451 970.071 156.451 971.508C156.451 972.943 157.646 974.108 159.123 974.108C160.598 974.108 161.796 972.945 161.796 971.508C161.796 970.071 160.6 968.907 159.123 968.907Z" fill="#6E6CDF"/>
<path d="M5.84525 983.002C4.37069 983.002 3.17261 984.166 3.17261 985.603C3.17261 987.04 4.36838 988.204 5.84525 988.204C7.31981 988.204 8.51789 987.04 8.51789 985.603C8.51789 984.166 7.32211 983.002 5.84525 983.002Z" fill="#6E6CDF"/>
<path d="M21.1736 983.002C19.6991 983.002 18.501 984.166 18.501 985.603C18.501 987.04 19.6968 988.204 21.1736 988.204C22.6482 988.204 23.8463 987.04 23.8463 985.603C23.8463 984.166 22.6505 983.002 21.1736 983.002Z" fill="#6E6CDF"/>
<path d="M36.5022 983.002C35.0254 983.002 33.8296 984.166 33.8296 985.603C33.8296 987.04 35.0254 988.204 36.5022 988.204C37.9768 988.204 39.1749 987.04 39.1749 985.603C39.1749 984.166 37.9768 983.002 36.5022 983.002Z" fill="#6E6CDF"/>
<path d="M51.8308 983.002C50.354 983.002 49.1582 984.166 49.1582 985.603C49.1582 987.04 50.354 988.204 51.8308 988.204C53.3054 988.204 54.5035 987.04 54.5035 985.603C54.5035 984.166 53.3054 983.002 51.8308 983.002Z" fill="#6E6CDF"/>
<path d="M67.157 983.002C65.6825 983.002 64.4844 984.166 64.4844 985.603C64.4844 987.04 65.6802 988.204 67.157 988.204C68.6316 988.204 69.8297 987.04 69.8297 985.603C69.8297 984.166 68.6339 983.002 67.157 983.002Z" fill="#6E6CDF"/>
<path d="M82.4854 983.002C81.0108 983.002 79.8127 984.166 79.8127 985.603C79.8127 987.04 81.0085 988.204 82.4854 988.204C83.9599 988.204 85.158 987.04 85.158 985.603C85.158 984.166 83.9599 983.002 82.4854 983.002Z" fill="#6E6CDF"/>
<path d="M97.8116 983.002C96.337 983.002 95.1389 984.166 95.1389 985.603C95.1389 987.04 96.3347 988.204 97.8116 988.204C99.2884 988.204 100.484 987.04 100.484 985.603C100.484 984.166 99.2884 983.002 97.8116 983.002Z" fill="#6E6CDF"/>
<path d="M113.14 983.002C111.666 983.002 110.468 984.166 110.468 985.603C110.468 987.04 111.663 988.204 113.14 988.204C114.615 988.204 115.813 987.04 115.813 985.603C115.813 984.166 114.617 983.002 113.14 983.002Z" fill="#6E6CDF"/>
<path d="M128.469 983.002C126.994 983.002 125.796 984.166 125.796 985.603C125.796 987.04 126.992 988.204 128.469 988.204C129.943 988.204 131.141 987.04 131.141 985.603C131.141 984.166 129.943 983.002 128.469 983.002Z" fill="#6E6CDF"/>
<path d="M143.797 983.002C142.323 983.002 141.125 984.166 141.125 985.603C141.125 987.04 142.32 988.204 143.797 988.204C145.274 988.204 146.47 987.04 146.47 985.603C146.47 984.166 145.272 983.002 143.797 983.002Z" fill="#6E6CDF"/>
<path d="M159.123 983.002C157.649 983.002 156.451 984.166 156.451 985.603C156.451 987.04 157.646 988.204 159.123 988.204C160.598 988.204 161.796 987.04 161.796 985.603C161.796 984.166 160.6 983.002 159.123 983.002Z" fill="#6E6CDF"/>
<path d="M1532.11 69.7169C1530.64 69.7169 1529.44 70.8805 1529.44 72.3176C1529.44 73.7525 1530.64 74.9184 1532.11 74.9184C1533.59 74.9184 1534.79 73.7548 1534.79 72.3176C1534.78 70.8805 1533.59 69.7169 1532.11 69.7169Z" fill="#6E6CDF"/>
<path d="M1547.44 69.717C1545.97 69.717 1544.77 70.8806 1544.77 72.3178C1544.77 73.7526 1545.97 74.9185 1547.44 74.9185C1548.92 74.9185 1550.12 73.7549 1550.12 72.3178C1550.11 70.8806 1548.92 69.717 1547.44 69.717Z" fill="#6E6CDF"/>
<path d="M1562.77 69.717C1561.29 69.717 1560.1 70.8806 1560.1 72.3178C1560.1 73.7526 1561.29 74.9185 1562.77 74.9185C1564.24 74.9185 1565.44 73.7549 1565.44 72.3178C1565.44 70.8806 1564.25 69.717 1562.77 69.717Z" fill="#6E6CDF"/>
<path d="M1578.1 69.717C1576.62 69.717 1575.42 70.8806 1575.42 72.3178C1575.42 73.7526 1576.62 74.9185 1578.1 74.9185C1579.57 74.9185 1580.77 73.7549 1580.77 72.3178C1580.77 70.8806 1579.57 69.717 1578.1 69.717Z" fill="#6E6CDF"/>
<path d="M1593.42 69.717C1591.95 69.717 1590.75 70.8806 1590.75 72.3178C1590.75 73.7526 1591.95 74.9185 1593.42 74.9185C1594.9 74.9185 1596.1 73.7549 1596.1 72.3178C1596.1 70.8806 1594.9 69.717 1593.42 69.717Z" fill="#6E6CDF"/>
<path d="M1608.75 69.717C1607.28 69.717 1606.08 70.8806 1606.08 72.3178C1606.08 73.7526 1607.28 74.9185 1608.75 74.9185C1610.23 74.9185 1611.42 73.7549 1611.42 72.3178C1611.42 70.8806 1610.23 69.717 1608.75 69.717Z" fill="#6E6CDF"/>
<path d="M1624.08 69.717C1622.61 69.717 1621.41 70.8806 1621.41 72.3178C1621.41 73.7526 1622.6 74.9185 1624.08 74.9185C1625.56 74.9185 1626.75 73.7549 1626.75 72.3178C1626.75 70.8806 1625.55 69.717 1624.08 69.717Z" fill="#6E6CDF"/>
<path d="M1639.41 69.717C1637.93 69.717 1636.74 70.8806 1636.74 72.3178C1636.74 73.7526 1637.93 74.9185 1639.41 74.9185C1640.89 74.9185 1642.08 73.7549 1642.08 72.3178C1642.08 70.8806 1640.88 69.717 1639.41 69.717Z" fill="#6E6CDF"/>
<path d="M1654.74 69.717C1653.26 69.717 1652.06 70.8806 1652.06 72.3178C1652.06 73.7526 1653.26 74.9185 1654.74 74.9185C1656.21 74.9185 1657.41 73.7549 1657.41 72.3178C1657.41 70.8806 1656.21 69.717 1654.74 69.717Z" fill="#6E6CDF"/>
<path d="M1670.06 69.717C1668.59 69.717 1667.39 70.8806 1667.39 72.3178C1667.39 73.7526 1668.59 74.9185 1670.06 74.9185C1671.54 74.9185 1672.74 73.7549 1672.74 72.3178C1672.74 70.8806 1671.54 69.717 1670.06 69.717Z" fill="#6E6CDF"/>
<path d="M1685.39 69.717C1683.92 69.717 1682.72 70.8806 1682.72 72.3178C1682.72 73.7526 1683.92 74.9185 1685.39 74.9185C1686.87 74.9185 1688.07 73.7549 1688.07 72.3178C1688.06 70.8806 1686.87 69.717 1685.39 69.717Z" fill="#6E6CDF"/>
<path d="M1700.72 69.717C1699.24 69.717 1698.05 70.8806 1698.05 72.3178C1698.05 73.7526 1699.24 74.9185 1700.72 74.9185C1702.19 74.9185 1703.39 73.7549 1703.39 72.3178C1703.39 70.8806 1702.2 69.717 1700.72 69.717Z" fill="#6E6CDF"/>
<path d="M1716.05 69.717C1714.57 69.717 1713.37 70.8806 1713.37 72.3178C1713.37 73.7526 1714.57 74.9185 1716.05 74.9185C1717.52 74.9185 1718.72 73.7549 1718.72 72.3178C1718.72 70.8806 1717.52 69.717 1716.05 69.717Z" fill="#6E6CDF"/>
<path d="M1532.11 83.8102C1530.64 83.8102 1529.44 84.9738 1529.44 86.4109C1529.44 87.848 1530.64 89.0116 1532.11 89.0116C1533.59 89.0116 1534.79 87.848 1534.79 86.4109C1534.78 84.9738 1533.59 83.8102 1532.11 83.8102Z" fill="#6E6CDF"/>
<path d="M1547.44 83.8102C1545.97 83.8102 1544.77 84.9738 1544.77 86.4109C1544.77 87.848 1545.97 89.0116 1547.44 89.0116C1548.92 89.0116 1550.12 87.848 1550.12 86.4109C1550.11 84.9738 1548.92 83.8102 1547.44 83.8102Z" fill="#6E6CDF"/>
<path d="M1562.77 83.8102C1561.29 83.8102 1560.1 84.9738 1560.1 86.4109C1560.1 87.848 1561.29 89.0116 1562.77 89.0116C1564.24 89.0116 1565.44 87.848 1565.44 86.4109C1565.44 84.9738 1564.25 83.8102 1562.77 83.8102Z" fill="#6E6CDF"/>
<path d="M1578.1 83.8102C1576.62 83.8102 1575.42 84.9738 1575.42 86.4109C1575.42 87.848 1576.62 89.0116 1578.1 89.0116C1579.57 89.0116 1580.77 87.848 1580.77 86.4109C1580.77 84.9738 1579.57 83.8102 1578.1 83.8102Z" fill="#6E6CDF"/>
<path d="M1593.42 83.8102C1591.95 83.8102 1590.75 84.9738 1590.75 86.4109C1590.75 87.848 1591.95 89.0116 1593.42 89.0116C1594.9 89.0116 1596.1 87.848 1596.1 86.4109C1596.1 84.9738 1594.9 83.8102 1593.42 83.8102Z" fill="#6E6CDF"/>
<path d="M1608.75 83.8102C1607.28 83.8102 1606.08 84.9738 1606.08 86.4109C1606.08 87.848 1607.28 89.0116 1608.75 89.0116C1610.23 89.0116 1611.42 87.848 1611.42 86.4109C1611.42 84.9738 1610.23 83.8102 1608.75 83.8102Z" fill="#6E6CDF"/>
<path d="M1624.08 83.8102C1622.61 83.8102 1621.41 84.9738 1621.41 86.4109C1621.41 87.848 1622.6 89.0116 1624.08 89.0116C1625.56 89.0116 1626.75 87.848 1626.75 86.4109C1626.75 84.9738 1625.55 83.8102 1624.08 83.8102Z" fill="#6E6CDF"/>
<path d="M1639.41 83.8102C1637.93 83.8102 1636.74 84.9738 1636.74 86.4109C1636.74 87.848 1637.93 89.0116 1639.41 89.0116C1640.89 89.0116 1642.08 87.848 1642.08 86.4109C1642.08 84.9738 1640.88 83.8102 1639.41 83.8102Z" fill="#6E6CDF"/>
<path d="M1654.74 83.8102C1653.26 83.8102 1652.06 84.9738 1652.06 86.4109C1652.06 87.848 1653.26 89.0116 1654.74 89.0116C1656.21 89.0116 1657.41 87.848 1657.41 86.4109C1657.41 84.9738 1656.21 83.8102 1654.74 83.8102Z" fill="#6E6CDF"/>
<path d="M1670.06 83.8102C1668.59 83.8102 1667.39 84.9738 1667.39 86.4109C1667.39 87.848 1668.59 89.0116 1670.06 89.0116C1671.54 89.0116 1672.74 87.848 1672.74 86.4109C1672.74 84.9738 1671.54 83.8102 1670.06 83.8102Z" fill="#6E6CDF"/>
<path d="M1685.39 83.8102C1683.92 83.8102 1682.72 84.9738 1682.72 86.4109C1682.72 87.848 1683.92 89.0116 1685.39 89.0116C1686.87 89.0116 1688.07 87.848 1688.07 86.4109C1688.06 84.9738 1686.87 83.8102 1685.39 83.8102Z" fill="#6E6CDF"/>
<path d="M1700.72 83.8102C1699.24 83.8102 1698.05 84.9738 1698.05 86.4109C1698.05 87.848 1699.24 89.0116 1700.72 89.0116C1702.19 89.0116 1703.39 87.848 1703.39 86.4109C1703.39 84.9738 1702.2 83.8102 1700.72 83.8102Z" fill="#6E6CDF"/>
<path d="M1716.05 83.8102C1714.57 83.8102 1713.37 84.9738 1713.37 86.4109C1713.37 87.848 1714.57 89.0116 1716.05 89.0116C1717.52 89.0116 1718.72 87.848 1718.72 86.4109C1718.72 84.9738 1717.52 83.8102 1716.05 83.8102Z" fill="#6E6CDF"/>
<path d="M1532.11 97.9056C1530.64 97.9056 1529.44 99.0692 1529.44 100.506C1529.44 101.941 1530.64 103.107 1532.11 103.107C1533.59 103.107 1534.79 101.943 1534.79 100.506C1534.78 99.0692 1533.59 97.9056 1532.11 97.9056Z" fill="#6E6CDF"/>
<path d="M1547.44 97.9056C1545.97 97.9056 1544.77 99.0692 1544.77 100.506C1544.77 101.941 1545.97 103.107 1547.44 103.107C1548.92 103.107 1550.12 101.943 1550.12 100.506C1550.11 99.0692 1548.92 97.9056 1547.44 97.9056Z" fill="#6E6CDF"/>
<path d="M1562.77 97.9056C1561.29 97.9056 1560.1 99.0692 1560.1 100.506C1560.1 101.941 1561.29 103.107 1562.77 103.107C1564.24 103.107 1565.44 101.943 1565.44 100.506C1565.44 99.0692 1564.25 97.9056 1562.77 97.9056Z" fill="#6E6CDF"/>
<path d="M1578.1 97.9056C1576.62 97.9056 1575.42 99.0692 1575.42 100.506C1575.42 101.941 1576.62 103.107 1578.1 103.107C1579.57 103.107 1580.77 101.943 1580.77 100.506C1580.77 99.0692 1579.57 97.9056 1578.1 97.9056Z" fill="#6E6CDF"/>
<path d="M1593.42 97.9056C1591.95 97.9056 1590.75 99.0692 1590.75 100.506C1590.75 101.941 1591.95 103.107 1593.42 103.107C1594.9 103.107 1596.1 101.943 1596.1 100.506C1596.1 99.0692 1594.9 97.9056 1593.42 97.9056Z" fill="#6E6CDF"/>
<path d="M1608.75 97.9056C1607.28 97.9056 1606.08 99.0692 1606.08 100.506C1606.08 101.941 1607.28 103.107 1608.75 103.107C1610.23 103.107 1611.42 101.943 1611.42 100.506C1611.42 99.0692 1610.23 97.9056 1608.75 97.9056Z" fill="#6E6CDF"/>
<path d="M1624.08 97.9056C1622.61 97.9056 1621.41 99.0692 1621.41 100.506C1621.41 101.941 1622.6 103.107 1624.08 103.107C1625.56 103.107 1626.75 101.943 1626.75 100.506C1626.75 99.0692 1625.55 97.9056 1624.08 97.9056Z" fill="#6E6CDF"/>
<path d="M1639.41 97.9056C1637.93 97.9056 1636.74 99.0692 1636.74 100.506C1636.74 101.941 1637.93 103.107 1639.41 103.107C1640.89 103.107 1642.08 101.943 1642.08 100.506C1642.08 99.0692 1640.88 97.9056 1639.41 97.9056Z" fill="#6E6CDF"/>
<path d="M1654.74 97.9056C1653.26 97.9056 1652.06 99.0692 1652.06 100.506C1652.06 101.941 1653.26 103.107 1654.74 103.107C1656.21 103.107 1657.41 101.943 1657.41 100.506C1657.41 99.0692 1656.21 97.9056 1654.74 97.9056Z" fill="#6E6CDF"/>
<path d="M1670.06 97.9056C1668.59 97.9056 1667.39 99.0692 1667.39 100.506C1667.39 101.941 1668.59 103.107 1670.06 103.107C1671.54 103.107 1672.74 101.943 1672.74 100.506C1672.74 99.0692 1671.54 97.9056 1670.06 97.9056Z" fill="#6E6CDF"/>
<path d="M1685.39 97.9056C1683.92 97.9056 1682.72 99.0692 1682.72 100.506C1682.72 101.941 1683.92 103.107 1685.39 103.107C1686.87 103.107 1688.07 101.943 1688.07 100.506C1688.06 99.0692 1686.87 97.9056 1685.39 97.9056Z" fill="#6E6CDF"/>
<path d="M1700.72 97.9056C1699.24 97.9056 1698.05 99.0692 1698.05 100.506C1698.05 101.941 1699.24 103.107 1700.72 103.107C1702.19 103.107 1703.39 101.943 1703.39 100.506C1703.39 99.0692 1702.2 97.9056 1700.72 97.9056Z" fill="#6E6CDF"/>
<path d="M1716.05 97.9056C1714.57 97.9056 1713.37 99.0692 1713.37 100.506C1713.37 101.941 1714.57 103.107 1716.05 103.107C1717.52 103.107 1718.72 101.943 1718.72 100.506C1718.72 99.0692 1717.52 97.9056 1716.05 97.9056Z" fill="#6E6CDF"/>
<path d="M327.007 10.3959C327.007 8.96101 325.811 7.79517 324.334 7.79517C322.857 7.79517 321.662 8.95876 321.662 10.3959C321.662 11.8308 322.857 12.9966 324.334 12.9966C325.811 12.9944 327.007 11.8308 327.007 10.3959Z" fill="#6E6CDF"/>
<path d="M327.007 25.3097C327.007 23.8748 325.811 22.709 324.334 22.709C322.857 22.709 321.662 23.8726 321.662 25.3097C321.662 26.7468 322.857 27.9104 324.334 27.9104C325.811 27.9104 327.007 26.7468 327.007 25.3097Z" fill="#6E6CDF"/>
<path d="M327.007 40.2257C327.007 38.7908 325.811 37.625 324.334 37.625C322.857 37.625 321.662 38.7886 321.662 40.2257C321.662 41.6606 322.857 42.8264 324.334 42.8264C325.811 42.8264 327.007 41.6606 327.007 40.2257Z" fill="#6E6CDF"/>
<path d="M327.007 55.1417C327.007 53.7069 325.811 52.541 324.334 52.541C322.857 52.541 321.662 53.7046 321.662 55.1417C321.662 56.5789 322.857 57.7425 324.334 57.7425C325.811 57.7402 327.007 56.5766 327.007 55.1417Z" fill="#6E6CDF"/>
<path d="M327.007 70.0555C327.007 68.6207 325.811 67.4548 324.334 67.4548C322.857 67.4548 321.662 68.6184 321.662 70.0555C321.662 71.4927 322.857 72.6563 324.334 72.6563C325.811 72.6563 327.007 71.4927 327.007 70.0555Z" fill="#6E6CDF"/>
<path d="M327.007 84.9716C327.007 83.5367 325.811 82.3708 324.334 82.3708C322.857 82.3708 321.662 83.5344 321.662 84.9716C321.662 86.4064 322.857 87.5723 324.334 87.5723C325.811 87.5723 327.007 86.4064 327.007 84.9716Z" fill="#6E6CDF"/>
<path d="M327.007 99.8876C327.007 98.4527 325.811 97.2869 324.334 97.2869C322.857 97.2869 321.662 98.4505 321.662 99.8876C321.662 101.322 322.857 102.488 324.334 102.488C325.811 102.486 327.007 101.322 327.007 99.8876Z" fill="#6E6CDF"/>
<path d="M327.007 114.801C327.007 113.367 325.811 112.201 324.334 112.201C322.857 112.201 321.662 113.364 321.662 114.801C321.662 116.236 322.857 117.402 324.334 117.402C325.811 117.402 327.007 116.239 327.007 114.801Z" fill="#6E6CDF"/>
<path d="M327.007 129.717C327.007 128.28 325.811 127.117 324.334 127.117C322.857 127.117 321.662 128.28 321.662 129.717C321.662 131.152 322.857 132.318 324.334 132.318C325.811 132.318 327.007 131.155 327.007 129.717Z" fill="#6E6CDF"/>
<path d="M327.007 144.633C327.007 143.196 325.811 142.033 324.334 142.033C322.857 142.033 321.662 143.196 321.662 144.633C321.662 146.068 322.857 147.234 324.334 147.234C325.811 147.232 327.007 146.068 327.007 144.633Z" fill="#6E6CDF"/>
<path d="M327.007 159.547C327.007 158.112 325.811 156.947 324.334 156.947C322.857 156.947 321.662 158.11 321.662 159.547C321.662 160.982 322.857 162.148 324.334 162.148C325.811 162.148 327.007 160.984 327.007 159.547Z" fill="#6E6CDF"/>
<path d="M327.007 174.463C327.007 173.028 325.811 171.863 324.334 171.863C322.857 171.863 321.662 173.026 321.662 174.463C321.662 175.9 322.857 177.064 324.334 177.064C325.811 177.064 327.007 175.9 327.007 174.463Z" fill="#6E6CDF"/>
<path d="M327.007 189.379C327.007 187.942 325.811 186.779 324.334 186.779C322.857 186.779 321.662 187.942 321.662 189.379C321.662 190.816 322.857 191.98 324.334 191.98C325.811 191.978 327.007 190.814 327.007 189.379Z" fill="#6E6CDF"/>
<path d="M327.007 204.295C327.007 202.858 325.811 201.695 324.334 201.695C322.857 201.695 321.662 202.858 321.662 204.295C321.662 205.73 322.857 206.896 324.334 206.896C325.811 206.894 327.007 205.73 327.007 204.295Z" fill="#6E6CDF"/>
<path d="M327.007 219.209C327.007 217.774 325.811 216.608 324.334 216.608C322.857 216.608 321.662 217.772 321.662 219.209C321.662 220.644 322.857 221.81 324.334 221.81C325.811 221.81 327.007 220.646 327.007 219.209Z" fill="#6E6CDF"/>
<path d="M321.664 234.125C321.664 235.56 322.86 236.726 324.337 236.726C325.811 236.726 327.009 235.562 327.009 234.125C327.009 232.688 325.814 231.524 324.337 231.524C322.86 231.524 321.664 232.688 321.664 234.125Z" fill="#6E6CDF"/>
<path d="M312.524 10.3959C312.524 8.96101 311.328 7.79517 309.851 7.79517C308.377 7.79517 307.179 8.95876 307.179 10.3959C307.179 11.8308 308.374 12.9966 309.851 12.9966C311.328 12.9944 312.524 11.8308 312.524 10.3959Z" fill="#6E6CDF"/>
<path d="M312.524 25.3097C312.524 23.8748 311.328 22.709 309.851 22.709C308.377 22.709 307.179 23.8726 307.179 25.3097C307.179 26.7468 308.374 27.9104 309.851 27.9104C311.328 27.9104 312.524 26.7468 312.524 25.3097Z" fill="#6E6CDF"/>
<path d="M312.524 40.2257C312.524 38.7908 311.328 37.625 309.851 37.625C308.377 37.625 307.179 38.7886 307.179 40.2257C307.179 41.6606 308.374 42.8264 309.851 42.8264C311.328 42.8264 312.524 41.6606 312.524 40.2257Z" fill="#6E6CDF"/>
<path d="M312.524 55.1417C312.524 53.7069 311.328 52.541 309.851 52.541C308.377 52.541 307.179 53.7046 307.179 55.1417C307.179 56.5789 308.374 57.7425 309.851 57.7425C311.328 57.7402 312.524 56.5766 312.524 55.1417Z" fill="#6E6CDF"/>
<path d="M312.524 70.0555C312.524 68.6207 311.328 67.4548 309.851 67.4548C308.377 67.4548 307.179 68.6184 307.179 70.0555C307.179 71.4927 308.374 72.6563 309.851 72.6563C311.328 72.6563 312.524 71.4927 312.524 70.0555Z" fill="#6E6CDF"/>
<path d="M312.524 84.9716C312.524 83.5367 311.328 82.3708 309.851 82.3708C308.377 82.3708 307.179 83.5344 307.179 84.9716C307.179 86.4064 308.374 87.5723 309.851 87.5723C311.328 87.5723 312.524 86.4064 312.524 84.9716Z" fill="#6E6CDF"/>
<path d="M312.524 99.8876C312.524 98.4527 311.328 97.2869 309.851 97.2869C308.377 97.2869 307.179 98.4505 307.179 99.8876C307.179 101.322 308.374 102.488 309.851 102.488C311.328 102.486 312.524 101.322 312.524 99.8876Z" fill="#6E6CDF"/>
<path d="M312.524 114.801C312.524 113.367 311.328 112.201 309.851 112.201C308.377 112.201 307.179 113.364 307.179 114.801C307.179 116.236 308.374 117.402 309.851 117.402C311.328 117.402 312.524 116.239 312.524 114.801Z" fill="#6E6CDF"/>
<path d="M312.524 129.717C312.524 128.28 311.328 127.117 309.851 127.117C308.377 127.117 307.179 128.28 307.179 129.717C307.179 131.152 308.374 132.318 309.851 132.318C311.328 132.318 312.524 131.155 312.524 129.717Z" fill="#6E6CDF"/>
<path d="M312.524 144.633C312.524 143.196 311.328 142.033 309.851 142.033C308.377 142.033 307.179 143.196 307.179 144.633C307.179 146.068 308.374 147.234 309.851 147.234C311.328 147.232 312.524 146.068 312.524 144.633Z" fill="#6E6CDF"/>
<path d="M312.524 159.547C312.524 158.112 311.328 156.947 309.851 156.947C308.377 156.947 307.179 158.11 307.179 159.547C307.179 160.982 308.374 162.148 309.851 162.148C311.328 162.148 312.524 160.984 312.524 159.547Z" fill="#6E6CDF"/>
<path d="M312.524 174.463C312.524 173.028 311.328 171.863 309.851 171.863C308.377 171.863 307.179 173.026 307.179 174.463C307.179 175.9 308.374 177.064 309.851 177.064C311.328 177.064 312.524 175.9 312.524 174.463Z" fill="#6E6CDF"/>
<path d="M312.524 189.379C312.524 187.942 311.328 186.779 309.851 186.779C308.377 186.779 307.179 187.942 307.179 189.379C307.179 190.816 308.374 191.98 309.851 191.98C311.328 191.978 312.524 190.814 312.524 189.379Z" fill="#6E6CDF"/>
<path d="M312.524 204.295C312.524 202.858 311.328 201.695 309.851 201.695C308.377 201.695 307.179 202.858 307.179 204.295C307.179 205.73 308.374 206.896 309.851 206.896C311.328 206.894 312.524 205.73 312.524 204.295Z" fill="#6E6CDF"/>
<path d="M312.524 219.209C312.524 217.774 311.328 216.608 309.851 216.608C308.377 216.608 307.179 217.772 307.179 219.209C307.179 220.644 308.374 221.81 309.851 221.81C311.328 221.81 312.524 220.646 312.524 219.209Z" fill="#6E6CDF"/>
<path d="M312.524 234.125C312.524 232.688 311.328 231.524 309.851 231.524C308.377 231.524 307.179 232.688 307.179 234.125C307.179 235.56 308.374 236.726 309.851 236.726C311.328 236.724 312.524 235.56 312.524 234.125Z" fill="#6E6CDF"/>
<path d="M298.039 10.3959C298.039 8.96101 296.843 7.79517 295.366 7.79517C293.889 7.79517 292.693 8.95876 292.693 10.3959C292.693 11.8308 293.889 12.9966 295.366 12.9966C296.843 12.9944 298.039 11.8308 298.039 10.3959Z" fill="#6E6CDF"/>
<path d="M298.039 25.3097C298.039 23.8748 296.843 22.709 295.366 22.709C293.889 22.709 292.693 23.8726 292.693 25.3097C292.693 26.7468 293.889 27.9104 295.366 27.9104C296.843 27.9104 298.039 26.7468 298.039 25.3097Z" fill="#6E6CDF"/>
<path d="M298.039 40.2257C298.039 38.7908 296.843 37.625 295.366 37.625C293.889 37.625 292.693 38.7886 292.693 40.2257C292.693 41.6606 293.889 42.8264 295.366 42.8264C296.843 42.8264 298.039 41.6606 298.039 40.2257Z" fill="#6E6CDF"/>
<path d="M298.039 55.1417C298.039 53.7069 296.843 52.541 295.366 52.541C293.889 52.541 292.693 53.7046 292.693 55.1417C292.693 56.5789 293.889 57.7425 295.366 57.7425C296.843 57.7402 298.039 56.5766 298.039 55.1417Z" fill="#6E6CDF"/>
<path d="M298.039 70.0555C298.039 68.6207 296.843 67.4548 295.366 67.4548C293.889 67.4548 292.693 68.6184 292.693 70.0555C292.693 71.4927 293.889 72.6563 295.366 72.6563C296.843 72.6563 298.039 71.4927 298.039 70.0555Z" fill="#6E6CDF"/>
<path d="M298.039 84.9716C298.039 83.5367 296.843 82.3708 295.366 82.3708C293.889 82.3708 292.693 83.5344 292.693 84.9716C292.693 86.4064 293.889 87.5723 295.366 87.5723C296.843 87.5723 298.039 86.4064 298.039 84.9716Z" fill="#6E6CDF"/>
<path d="M298.039 99.8876C298.039 98.4527 296.843 97.2869 295.366 97.2869C293.889 97.2869 292.693 98.4505 292.693 99.8876C292.693 101.322 293.889 102.488 295.366 102.488C296.843 102.486 298.039 101.322 298.039 99.8876Z" fill="#6E6CDF"/>
<path d="M298.039 114.801C298.039 113.367 296.843 112.201 295.366 112.201C293.889 112.201 292.693 113.364 292.693 114.801C292.693 116.236 293.889 117.402 295.366 117.402C296.843 117.402 298.039 116.239 298.039 114.801Z" fill="#6E6CDF"/>
<path d="M298.039 129.717C298.039 128.28 296.843 127.117 295.366 127.117C293.889 127.117 292.693 128.28 292.693 129.717C292.693 131.152 293.889 132.318 295.366 132.318C296.843 132.318 298.039 131.155 298.039 129.717Z" fill="#6E6CDF"/>
<path d="M298.039 144.633C298.039 143.196 296.843 142.033 295.366 142.033C293.889 142.033 292.693 143.196 292.693 144.633C292.693 146.068 293.889 147.234 295.366 147.234C296.843 147.232 298.039 146.068 298.039 144.633Z" fill="#6E6CDF"/>
<path d="M298.039 159.547C298.039 158.112 296.843 156.947 295.366 156.947C293.889 156.947 292.693 158.11 292.693 159.547C292.693 160.982 293.889 162.148 295.366 162.148C296.843 162.148 298.039 160.984 298.039 159.547Z" fill="#6E6CDF"/>
<path d="M298.039 174.463C298.039 173.028 296.843 171.863 295.366 171.863C293.889 171.863 292.693 173.026 292.693 174.463C292.693 175.9 293.889 177.064 295.366 177.064C296.843 177.064 298.039 175.9 298.039 174.463Z" fill="#6E6CDF"/>
<path d="M298.039 189.379C298.039 187.942 296.843 186.779 295.366 186.779C293.889 186.779 292.693 187.942 292.693 189.379C292.693 190.816 293.889 191.98 295.366 191.98C296.843 191.978 298.039 190.814 298.039 189.379Z" fill="#6E6CDF"/>
<path d="M298.039 204.295C298.039 202.858 296.843 201.695 295.366 201.695C293.889 201.695 292.693 202.858 292.693 204.295C292.693 205.73 293.889 206.896 295.366 206.896C296.843 206.894 298.039 205.73 298.039 204.295Z" fill="#6E6CDF"/>
<path d="M298.039 219.209C298.039 217.774 296.843 216.608 295.366 216.608C293.889 216.608 292.693 217.772 292.693 219.209C292.693 220.644 293.889 221.81 295.366 221.81C296.843 221.81 298.039 220.646 298.039 219.209Z" fill="#6E6CDF"/>
<path d="M298.039 234.125C298.039 232.688 296.843 231.524 295.366 231.524C293.889 231.524 292.693 232.688 292.693 234.125C292.693 235.56 293.889 236.726 295.366 236.726C296.843 236.724 298.039 235.56 298.039 234.125Z" fill="#6E6CDF"/>
<path d="M251.887 116.904C257.317 103.895 250.88 89.0651 237.511 83.7813C224.142 78.4975 208.903 84.7603 203.473 97.7697C198.043 110.779 204.479 125.609 217.848 130.892C231.217 136.176 246.457 129.913 251.887 116.904Z" fill="#6E6CDF"/>
<path d="M227.686 237.934C242.116 237.934 253.813 226.551 253.813 212.51C253.813 198.469 242.116 187.086 227.686 187.086C213.256 187.086 201.559 198.469 201.559 212.51C201.559 226.551 213.256 237.934 227.686 237.934Z" fill="#6E6CDF"/>
<path d="M227.686 488.469C211.374 488.469 198.103 475.553 198.103 459.679C198.103 443.806 211.374 430.892 227.686 430.892C243.998 430.892 257.269 443.806 257.269 459.679C257.269 475.553 243.998 488.469 227.686 488.469ZM227.686 437.618C215.184 437.618 205.015 447.514 205.015 459.679C205.015 471.844 215.187 481.743 227.686 481.743C240.187 481.743 250.357 471.844 250.357 459.679C250.357 447.514 240.187 437.618 227.686 437.618Z" fill="#F0FFF0"/>
<path d="M1426.3 966.477C1440.48 963.837 1449.77 950.517 1447.05 936.725C1444.34 922.934 1430.65 913.894 1416.48 916.533C1402.31 919.173 1393.02 932.493 1395.73 946.285C1398.44 960.076 1412.13 969.117 1426.3 966.477Z" fill="#6E6CDF"/>
<path d="M1533.48 966.545C1547.73 964.343 1557.45 951.317 1555.18 937.45C1552.92 923.582 1539.53 914.125 1525.28 916.327C1511.03 918.529 1501.31 931.555 1503.58 945.423C1505.84 959.29 1519.23 968.747 1533.48 966.545Z" fill="#6E6CDF"/>
<path d="M1559.02 574.555C1559.02 590.428 1545.75 603.342 1529.44 603.342C1513.13 603.342 1499.86 590.428 1499.86 574.555C1499.86 558.682 1513.13 545.768 1529.44 545.768C1545.75 545.768 1559.02 558.682 1559.02 574.555ZM1506.77 574.555C1506.77 586.72 1516.94 596.616 1529.44 596.616C1541.94 596.616 1552.11 586.72 1552.11 574.555C1552.11 562.39 1541.94 552.494 1529.44 552.494C1516.94 552.494 1506.77 562.39 1506.77 574.555Z" fill="#F0FFF0"/>
</g>
<defs>
<clipPath id="clip0_157_11427">
<rect width="1728" height="1121" fill="white" transform="translate(0 -4)"/>
</clipPath>
</defs>
</svg>
